<svg xmlns="http://www.w3.org/2000/svg" fill="none" viewBox="79.71 58 399.85 325.36">
<path opacity="0.57" d="M445.061 186.476C448.604 174.065 452.503 161.443 453.167 147.97C453.662 137.894 452.965 127.267 447.558 118.657C443.723 112.553 437.781 107.933 431.361 104.455C425.217 101.131 418.529 98.7562 411.63 97.4349C405.858 96.3324 399.9 95.9514 394.355 94.0545C378.88 88.7529 379.294 67.9275 363.227 63.2987C350.078 59.5049 333.744 67.2547 321.341 70.5216C298.181 76.6257 273.294 76.3987 250.256 69.873C239.928 66.9466 229.981 62.7961 219.532 60.3399C204.171 56.7325 187.504 56.9919 173.082 63.2663C158.661 69.5407 146.882 82.3488 144.248 97.4916C143.389 102.404 143.478 107.446 142.456 112.334C139.57 126.107 128.505 136.581 119.856 147.849C112.592 157.317 107.015 167.88 103.124 179.018C135.89 162.927 174.477 159.806 210.307 156.693C289.799 149.875 372.046 156.506 445.061 186.476Z" fill="#424156"/>
<path d="M148.171 86.2871C204.389 113.436 227.322 157.162 227.322 157.162L219.564 158.386L211.393 158.572C211.393 158.572 197.474 129.956 143.08 98.236" fill="#444968"/>
<path d="M148.171 86.2871C204.389 113.436 227.322 157.162 227.322 157.162L219.564 158.386L211.393 158.572C211.393 158.572 197.474 129.956 143.08 98.236" stroke="#0C0D46" stroke-width="1.5" stroke-miterlimit="10" stroke-linecap="round" stroke-linejoin="round"/>
<path d="M403.143 95.2695C340.659 114.117 308.946 158.005 308.946 158.005L317.288 159.359L325.102 160.624C325.102 160.624 348.189 126.682 424.69 100.506" fill="#444968"/>
<path d="M403.143 95.2695C340.659 114.117 308.946 158.005 308.946 158.005L317.288 159.359L325.102 160.624C325.102 160.624 348.189 126.682 424.69 100.506" stroke="#0C0D46" stroke-width="1.5" stroke-miterlimit="10" stroke-linecap="round" stroke-linejoin="round"/>
<path d="M444.048 246.228C434.109 225.468 438.754 206.62 444.275 187.262C371.26 157.293 289.013 150.662 209.521 157.479C173.691 160.592 135.104 163.705 102.338 179.804C98.844 181.523 97.3605 198.887 96.8498 202.535C94.6935 217.832 95.4312 233.89 102.492 247.906C109.69 262.214 122.523 272.826 129.519 287.369C134.601 297.939 134.674 310.018 135.526 321.659C137.244 345.143 147.928 362.839 170.464 372.786C202.112 386.745 230.987 377.893 261.159 367.144C293.463 355.641 328.345 350.988 362.635 353.784C385.965 355.689 410.722 360.74 431.888 351.004C446.683 344.195 457.667 330.487 461.906 315.117C465.173 303.298 464.411 290.838 460.739 279.205C456.945 267.167 449.431 257.464 444.048 246.228Z" fill="#444968"/>
<path d="M443.472 312.758C446.99 312.936 448.231 312.96 451.165 313.155Z" fill="#444968"/>
<path d="M443.472 312.758C446.99 312.936 448.231 312.96 451.165 313.155" stroke="#0C0D46" stroke-width="1.5" stroke-miterlimit="10" stroke-linecap="round" stroke-linejoin="round"/>
<path d="M145.156 309.433C145.156 309.433 345.928 308.663 434.028 312.319Z" fill="#444968"/>
<path d="M145.156 309.433C145.156 309.433 345.928 308.663 434.028 312.319" stroke="#0C0D46" stroke-width="1.5" stroke-miterlimit="10" stroke-linecap="round" stroke-linejoin="round"/>
<path d="M193.916 173.002C193.916 173.002 280.452 164.953 346.001 175.053L348.141 218.893L182.957 219.428C182.957 219.428 185.316 188.583 193.916 173.002Z" fill="#7B7D9B" stroke="#0C0D46" stroke-width="1.5" stroke-miterlimit="10" stroke-linecap="round" stroke-linejoin="round"/>
<path d="M197.62 176.032C197.62 176.032 279.211 169.093 341.777 177.775L343.803 214.935L187.236 215.389C187.228 215.389 189.473 189.238 197.62 176.032Z" stroke="#0C0D46" stroke-miterlimit="10" stroke-linecap="round" stroke-linejoin="round"/>
<path d="M210.947 200.916V191.039C210.947 190.393 211.179 189.838 211.644 189.373C212.109 188.908 212.664 188.676 213.31 188.676H220.807C221.464 188.676 222.025 188.908 222.49 189.373C222.955 189.838 223.187 190.393 223.187 191.039V200.916H220.926V196.802H213.191V200.916H210.947ZM213.191 194.558H220.926V191.532C220.926 191.215 220.903 191.039 220.858 191.005C220.813 190.96 220.637 190.937 220.331 190.937H213.786C213.469 190.937 213.287 190.96 213.242 191.005C213.208 191.039 213.191 191.215 213.191 191.532V194.558ZM227.419 200.916C226.773 200.916 226.218 200.689 225.753 200.236C225.3 199.771 225.073 199.216 225.073 198.57V191.056H227.3V198.094C227.3 198.411 227.317 198.593 227.351 198.638C227.396 198.672 227.578 198.689 227.895 198.689H232.264C232.581 198.689 232.757 198.672 232.791 198.638C232.836 198.593 232.859 198.411 232.859 198.094V191.056H235.086V198.57C235.086 199.216 234.854 199.771 234.389 200.236C233.936 200.689 233.386 200.916 232.74 200.916H227.419ZM238.857 200.916C238.211 200.916 237.656 200.689 237.191 200.236C236.738 199.771 236.511 199.216 236.511 198.57V188.03H238.738V191.056H242.58V193.283H238.738V198.094C238.738 198.411 238.755 198.593 238.789 198.638C238.835 198.672 239.016 198.689 239.333 198.689H242.58V200.916H238.857ZM246.277 200.916C245.631 200.916 245.076 200.689 244.611 200.236C244.158 199.771 243.931 199.216 243.931 198.57V193.402C243.931 192.756 244.158 192.206 244.611 191.753C245.076 191.288 245.631 191.056 246.277 191.056H251.598C252.244 191.056 252.794 191.288 253.247 191.753C253.712 192.206 253.944 192.756 253.944 193.402V198.57C253.944 199.216 253.712 199.771 253.247 200.236C252.794 200.689 252.244 200.916 251.598 200.916H246.277ZM246.753 198.689H251.122C251.44 198.689 251.615 198.672 251.649 198.638C251.695 198.593 251.717 198.411 251.717 198.094V193.878C251.717 193.561 251.695 193.385 251.649 193.351C251.615 193.306 251.44 193.283 251.122 193.283H246.753C246.436 193.283 246.255 193.306 246.209 193.351C246.175 193.385 246.158 193.561 246.158 193.878V198.094C246.158 198.411 246.175 198.593 246.209 198.638C246.255 198.672 246.436 198.689 246.753 198.689ZM255.753 204.826V191.056H263.42C264.066 191.056 264.616 191.288 265.069 191.753C265.534 192.206 265.766 192.756 265.766 193.402V198.57C265.766 199.216 265.534 199.771 265.069 200.236C264.616 200.689 264.066 200.916 263.42 200.916H257.98V204.826H255.753ZM258.575 198.689H262.944C263.261 198.689 263.437 198.672 263.471 198.638C263.516 198.593 263.539 198.411 263.539 198.094V193.878C263.539 193.561 263.516 193.385 263.471 193.351C263.437 193.306 263.261 193.283 262.944 193.283H258.575C258.258 193.283 258.076 193.306 258.031 193.351C257.997 193.385 257.98 193.561 257.98 193.878V198.094C257.98 198.411 257.997 198.593 258.031 198.638C258.076 198.672 258.258 198.689 258.575 198.689ZM267.091 200.916V191.056H269.318V200.916H267.091ZM267.091 190.07V187.826H269.318V190.07H267.091ZM273.571 200.916C272.925 200.916 272.369 200.689 271.905 200.236C271.451 199.771 271.225 199.216 271.225 198.57V187.809H273.469V198.094C273.469 198.411 273.486 198.593 273.52 198.638C273.565 198.672 273.741 198.689 274.047 198.689H275.56V200.916H273.571ZM279.165 200.916C278.519 200.916 277.964 200.689 277.499 200.236C277.046 199.771 276.819 199.216 276.819 198.57V193.402C276.819 192.756 277.046 192.206 277.499 191.753C277.964 191.288 278.519 191.056 279.165 191.056H284.486C285.132 191.056 285.682 191.288 286.135 191.753C286.6 192.206 286.832 192.756 286.832 193.402V198.57C286.832 199.216 286.6 199.771 286.135 200.236C285.682 200.689 285.132 200.916 284.486 200.916H279.165ZM279.641 198.689H284.01C284.327 198.689 284.503 198.672 284.537 198.638C284.582 198.593 284.605 198.411 284.605 198.094V193.878C284.605 193.561 284.582 193.385 284.537 193.351C284.503 193.306 284.327 193.283 284.01 193.283H279.641C279.324 193.283 279.142 193.306 279.097 193.351C279.063 193.385 279.046 193.561 279.046 193.878V198.094C279.046 198.411 279.063 198.593 279.097 198.638C279.142 198.672 279.324 198.689 279.641 198.689ZM290.654 200.916C290.008 200.916 289.453 200.689 288.988 200.236C288.535 199.771 288.308 199.216 288.308 198.57V188.03H290.535V191.056H294.377V193.283H290.535V198.094C290.535 198.411 290.552 198.593 290.586 198.638C290.632 198.672 290.813 198.689 291.13 198.689H294.377V200.916H290.654ZM303.339 200.916C302.693 200.916 302.137 200.684 301.673 200.219C301.208 199.754 300.976 199.199 300.976 198.553V191.039C300.976 190.393 301.208 189.838 301.673 189.373C302.137 188.908 302.693 188.676 303.339 188.676H310.853C311.499 188.676 312.054 188.908 312.519 189.373C312.983 189.838 313.216 190.393 313.216 191.039V198.553C313.216 199.199 312.983 199.754 312.519 200.219C312.054 200.684 311.499 200.916 310.853 200.916H303.339ZM303.815 198.655H310.36C310.666 198.655 310.841 198.638 310.887 198.604C310.932 198.559 310.955 198.377 310.955 198.06V191.532C310.955 191.215 310.932 191.039 310.887 191.005C310.841 190.96 310.666 190.937 310.36 190.937H303.815C303.497 190.937 303.316 190.96 303.271 191.005C303.237 191.039 303.22 191.215 303.22 191.532V198.06C303.22 198.377 303.237 198.559 303.271 198.604C303.316 198.638 303.497 198.655 303.815 198.655ZM315.088 200.916V188.676H317.553L325.067 197.618V188.676H327.328V200.916H324.863L317.332 191.957V200.916H315.088Z" fill="white"/>
<path d="M208.637 231.416C210.33 231.416 211.702 230.044 211.702 228.351C211.702 226.659 210.33 225.287 208.637 225.287C206.945 225.287 205.573 226.659 205.573 228.351C205.573 230.044 206.945 231.416 208.637 231.416Z" fill="#5B5EE1" stroke="#0C0D46" stroke-width="1.5" stroke-miterlimit="10" stroke-linecap="round" stroke-linejoin="round"/>
<path d="M223.91 231.017C225.602 231.017 226.974 229.645 226.974 227.953C226.974 226.261 225.602 224.889 223.91 224.889C222.218 224.889 220.846 226.261 220.846 227.953C220.846 229.645 222.218 231.017 223.91 231.017Z" fill="#5B5EE1" stroke="#0C0D46" stroke-width="1.5" stroke-miterlimit="10" stroke-linecap="round" stroke-linejoin="round"/>
<path d="M239.321 230.88C241.013 230.88 242.385 229.509 242.385 227.816C242.385 226.124 241.013 224.752 239.321 224.752C237.628 224.752 236.256 226.124 236.256 227.816C236.256 229.509 237.628 230.88 239.321 230.88Z" fill="#7B7D9B" stroke="#0C0D46" stroke-width="1.5" stroke-miterlimit="10" stroke-linecap="round" stroke-linejoin="round"/>
<path d="M254.593 230.88C256.285 230.88 257.657 229.509 257.657 227.816C257.657 226.124 256.285 224.752 254.593 224.752C252.9 224.752 251.528 226.124 251.528 227.816C251.528 229.509 252.9 230.88 254.593 230.88Z" fill="#7B7D9B" stroke="#0C0D46" stroke-width="1.5" stroke-miterlimit="10" stroke-linecap="round" stroke-linejoin="round"/>
<path d="M292.32 230.351C294.012 230.351 295.384 228.979 295.384 227.287C295.384 225.595 294.012 224.223 292.32 224.223C290.628 224.223 289.256 225.595 289.256 227.287C289.256 228.979 290.628 230.351 292.32 230.351Z" fill="#5B5EE1" stroke="#0C0D46" stroke-width="1.5" stroke-miterlimit="10" stroke-linecap="round" stroke-linejoin="round"/>
<path d="M307.593 229.953C309.285 229.953 310.657 228.581 310.657 226.888C310.657 225.196 309.285 223.824 307.593 223.824C305.9 223.824 304.528 225.196 304.528 226.888C304.528 228.581 305.9 229.953 307.593 229.953Z" fill="#5B5EE1" stroke="#0C0D46" stroke-width="1.5" stroke-miterlimit="10" stroke-linecap="round" stroke-linejoin="round"/>
<path d="M323.003 229.816C324.696 229.816 326.067 228.444 326.067 226.752C326.067 225.059 324.696 223.688 323.003 223.688C321.311 223.688 319.939 225.059 319.939 226.752C319.939 228.444 321.311 229.816 323.003 229.816Z" fill="#7B7D9B" stroke="#0C0D46" stroke-width="1.5" stroke-miterlimit="10" stroke-linecap="round" stroke-linejoin="round"/>
<path d="M151.869 184.312C153.31 184.312 154.479 183.144 154.479 181.702C154.479 180.26 153.31 179.092 151.869 179.092C150.427 179.092 149.258 180.26 149.258 181.702C149.258 183.144 150.427 184.312 151.869 184.312Z" fill="#7B7D9B" stroke="#0C0D46" stroke-width="1.5" stroke-miterlimit="10" stroke-linecap="round" stroke-linejoin="round"/>
<path d="M164.88 183.889C166.321 183.889 167.49 182.72 167.49 181.278C167.49 179.837 166.321 178.668 164.88 178.668C163.438 178.668 162.27 179.837 162.27 181.278C162.27 182.72 163.438 183.889 164.88 183.889Z" fill="#5B5EE1" stroke="#0C0D46" stroke-width="1.5" stroke-miterlimit="10" stroke-linecap="round" stroke-linejoin="round"/>
<path d="M177.996 183.687C179.437 183.687 180.606 182.519 180.606 181.077C180.606 179.635 179.437 178.467 177.996 178.467C176.554 178.467 175.385 179.635 175.385 181.077C175.385 182.519 176.554 183.687 177.996 183.687Z" fill="#5B5EE1" stroke="#0C0D46" stroke-width="1.5" stroke-miterlimit="10" stroke-linecap="round" stroke-linejoin="round"/>
<path d="M149.445 194.299C150.887 194.299 152.055 193.13 152.055 191.688C152.055 190.247 150.887 189.078 149.445 189.078C148.004 189.078 146.835 190.247 146.835 191.688C146.835 193.13 148.004 194.299 149.445 194.299Z" fill="#D6A35F" stroke="#0C0D46" stroke-width="1.5" stroke-miterlimit="10" stroke-linecap="round" stroke-linejoin="round"/>
<path d="M162.456 193.879C163.898 193.879 165.066 192.71 165.066 191.268C165.066 189.827 163.898 188.658 162.456 188.658C161.014 188.658 159.846 189.827 159.846 191.268C159.846 192.71 161.014 193.879 162.456 193.879Z" fill="#7B7D9B" stroke="#0C0D46" stroke-width="1.5" stroke-miterlimit="10" stroke-linecap="round" stroke-linejoin="round"/>
<path d="M175.572 193.674C177.014 193.674 178.182 192.505 178.182 191.063C178.182 189.622 177.014 188.453 175.572 188.453C174.131 188.453 172.962 189.622 172.962 191.063C172.962 192.505 174.131 193.674 175.572 193.674Z" fill="#C0C1F1" stroke="#0C0D46" stroke-width="1.5" stroke-miterlimit="10" stroke-linecap="round" stroke-linejoin="round"/>
<path d="M147.71 204.699C149.151 204.699 150.32 203.53 150.32 202.089C150.32 200.647 149.151 199.479 147.71 199.479C146.268 199.479 145.1 200.647 145.1 202.089C145.1 203.53 146.268 204.699 147.71 204.699Z" fill="#C0C1F1" stroke="#0C0D46" stroke-width="1.5" stroke-miterlimit="10" stroke-linecap="round" stroke-linejoin="round"/>
<path d="M160.713 204.277C162.154 204.277 163.323 203.109 163.323 201.667C163.323 200.225 162.154 199.057 160.713 199.057C159.271 199.057 158.103 200.225 158.103 201.667C158.103 203.109 159.271 204.277 160.713 204.277Z" fill="#5B5EE1" stroke="#0C0D46" stroke-width="1.5" stroke-miterlimit="10" stroke-linecap="round" stroke-linejoin="round"/>
<path d="M173.837 204.076C175.279 204.076 176.448 202.907 176.448 201.466C176.448 200.024 175.279 198.855 173.837 198.855C172.396 198.855 171.227 200.024 171.227 201.466C171.227 202.907 172.396 204.076 173.837 204.076Z" fill="#D6A35F" stroke="#0C0D46" stroke-width="1.5" stroke-miterlimit="10" stroke-linecap="round" stroke-linejoin="round"/>
<path d="M175.791 210.633C175.791 210.633 144.33 211.144 144.33 211.176L141.419 218.472L173.845 217.985L175.791 210.633Z" fill="#7B7D9B" stroke="#0C0D46" stroke-width="1.5" stroke-miterlimit="10" stroke-linecap="round" stroke-linejoin="round"/>
<path opacity="0.2" d="M215.69 383.356C235.277 383.356 251.156 379.073 251.156 373.79C251.156 368.507 235.277 364.225 215.69 364.225C196.103 364.225 180.225 368.507 180.225 373.79C180.225 379.073 196.103 383.356 215.69 383.356Z" fill="#0C0D46"/>
<path d="M444.316 188.023C371.86 157.421 290.237 150.644 211.353 157.607C175.798 160.785 133.126 165.163 100.611 181.594" stroke="#0C0D46" stroke-width="1.5" stroke-miterlimit="10" stroke-linecap="round" stroke-linejoin="round"/>
<path d="M279.438 337.353C292.846 343.376 316.987 354.579 316.987 354.579L343.73 336.51L307.957 315.555L279.325 329.449C275.993 331.062 276.066 335.837 279.438 337.353Z" fill="#5B5EE1" stroke="#0C0D46" stroke-width="1.5" stroke-miterlimit="10" stroke-linecap="round" stroke-linejoin="round"/>
<path opacity="0.2" d="M280.038 337.152C293.446 343.175 317.587 354.378 317.587 354.378L344.33 336.309L308.556 315.354L279.925 329.248C276.593 330.869 276.658 335.636 280.038 337.152Z" fill="#0C0D46"/>
<path d="M337.189 311.543L303.215 294.074C299.251 292.039 297.686 287.167 299.729 283.203C301.764 279.239 306.636 277.675 310.6 279.718L344.574 297.187L337.189 311.543Z" stroke="white" stroke-miterlimit="10"/>
<path opacity="0.5" d="M353.564 222.752C353.353 223.871 353.215 225.014 353.159 226.157" stroke="#0C0D46" stroke-miterlimit="10" stroke-linecap="round" stroke-linejoin="round"/>
<path opacity="0.2" d="M412.028 200.832C407.285 200.37 402.551 199.908 397.809 199.445C393.504 199.024 389.2 198.602 384.895 198.189C379.813 197.694 374.738 197.2 369.655 196.705C367.385 196.487 365.253 196.616 362.992 196.851C362.084 196.949 361.314 197.613 360.86 198.408C360.406 199.202 360.211 200.118 360.025 201.01C359.482 203.645 358.93 206.279 358.387 208.914C357.982 210.884 357.569 212.87 357.536 214.888C357.528 215.31 358.339 215.796 357.933 215.675C356.944 215.383 356.166 214.645 355.428 213.932C353.28 211.856 350.054 209.959 349.316 206.855C348.903 205.104 349.438 202.891 349.641 201.132C349.916 198.7 350.346 196.284 350.921 193.901C351.319 192.271 351.854 190.545 353.183 189.515C353.84 189.012 354.626 188.721 355.404 188.445C357.496 187.691 359.538 188.469 361.638 188.68C363.956 188.915 366.348 188.988 368.683 189.183C373.749 189.612 378.816 190.034 383.89 190.464C390.408 191.015 396.941 191.566 403.394 192.644C404.375 192.806 404.87 193.503 405.632 194.152C408.063 196.211 410.536 198.319 412.182 201.042C412.133 201.14 412.149 200.84 412.028 200.832Z" fill="#0C0D46"/>
<g opacity="0.5">
<path opacity="0.5" d="M329.018 106.85C329.479 106.85 329.853 106.476 329.853 106.015C329.853 105.554 329.479 105.18 329.018 105.18C328.557 105.18 328.183 105.554 328.183 106.015C328.183 106.476 328.557 106.85 329.018 106.85Z" fill="#C0C1F1"/>
<path opacity="0.5" d="M291 88.0742C291.461 88.0742 291.834 87.7004 291.834 87.2393C291.834 86.7781 291.461 86.4043 291 86.4043C290.538 86.4043 290.165 86.7781 290.165 87.2393C290.165 87.7004 290.538 88.0742 291 88.0742Z" fill="#C0C1F1"/>
<path opacity="0.5" d="M408.315 149.082C408.776 149.082 409.15 148.708 409.15 148.247C409.15 147.786 408.776 147.412 408.315 147.412C407.854 147.412 407.48 147.786 407.48 148.247C407.48 148.708 407.854 149.082 408.315 149.082Z" fill="#C0C1F1"/>
<path opacity="0.5" d="M348.741 151.676C349.202 151.676 349.576 151.302 349.576 150.841C349.576 150.38 349.202 150.006 348.741 150.006C348.28 150.006 347.906 150.38 347.906 150.841C347.906 151.302 348.28 151.676 348.741 151.676Z" fill="#C0C1F1"/>
<path opacity="0.5" d="M444.016 127.17C444.477 127.17 444.851 126.796 444.851 126.335C444.851 125.874 444.477 125.5 444.016 125.5C443.554 125.5 443.181 125.874 443.181 126.335C443.181 126.796 443.554 127.17 444.016 127.17Z" fill="#C0C1F1"/>
<path opacity="0.5" d="M249.762 141.869C250.223 141.869 250.597 141.495 250.597 141.034C250.597 140.573 250.223 140.199 249.762 140.199C249.301 140.199 248.927 140.573 248.927 141.034C248.927 141.495 249.301 141.869 249.762 141.869Z" fill="#C0C1F1"/>
<path opacity="0.5" d="M209.473 79.9512C209.934 79.9512 210.308 79.5773 210.308 79.1162C210.308 78.6551 209.934 78.2812 209.473 78.2812C209.012 78.2812 208.638 78.6551 208.638 79.1162C208.638 79.5773 209.012 79.9512 209.473 79.9512Z" fill="#C0C1F1"/>
<path opacity="0.5" d="M180.419 96.4473C180.88 96.4473 181.254 96.0734 181.254 95.6123C181.254 95.1512 180.88 94.7773 180.419 94.7773C179.958 94.7773 179.584 95.1512 179.584 95.6123C179.584 96.0734 179.958 96.4473 180.419 96.4473Z" fill="#C0C1F1"/>
<path opacity="0.5" d="M148.739 141.275C149.2 141.275 149.574 140.902 149.574 140.44C149.574 139.979 149.2 139.605 148.739 139.605C148.278 139.605 147.904 139.979 147.904 140.44C147.904 140.902 148.278 141.275 148.739 141.275Z" fill="#C0C1F1"/>
<path opacity="0.5" d="M184.959 154.668C185.42 154.668 185.794 154.294 185.794 153.833C185.794 153.372 185.42 152.998 184.959 152.998C184.498 152.998 184.124 153.372 184.124 153.833C184.124 154.294 184.498 154.668 184.959 154.668Z" fill="#C0C1F1"/>
</g>
<g opacity="0.7">
<path opacity="0.7" d="M284.919 129.147L258.387 105.216L266.785 109.383L255.574 91.168L269.436 105.095L267.879 98.9501L276.367 109.205L274.486 103.076L286.8 127.079L284.919 129.147Z" fill="#7B7D9B"/>
<path opacity="0.7" d="M284.894 129.511C286.125 129.511 287.124 128.513 287.124 127.282C287.124 126.051 286.125 125.053 284.894 125.053C283.663 125.053 282.665 126.051 282.665 127.282C282.665 128.513 283.663 129.511 284.894 129.511Z" fill="#C0C1F1" stroke="#0C0D46" stroke-miterlimit="10" stroke-linejoin="round"/>
</g>
<path d="M190.568 373.847V317.459H197.223V373.847C197.223 375.687 195.732 377.171 193.9 377.171C192.059 377.179 190.568 375.687 190.568 373.847Z" fill="#845629" stroke="#0C0D46" stroke-width="1.5" stroke-miterlimit="10" stroke-linecap="round" stroke-linejoin="round"/>
<path d="M236.767 372.535V316.146H243.422V372.535C243.422 374.375 241.93 375.858 240.098 375.858C238.25 375.858 236.767 374.367 236.767 372.535Z" fill="#845629" stroke="#0C0D46" stroke-width="1.5" stroke-miterlimit="10" stroke-linecap="round" stroke-linejoin="round"/>
<path d="M214.409 367.175V310.787H221.064V367.175C221.064 369.016 219.572 370.499 217.74 370.499C215.892 370.499 214.409 369.007 214.409 367.175Z" fill="#845629" stroke="#0C0D46" stroke-width="1.5" stroke-miterlimit="10" stroke-linecap="round" stroke-linejoin="round"/>
<path d="M178.375 300.833V318.019C178.375 318.019 207.202 330.211 254.754 318.14L254.26 300.646L178.375 300.833Z" fill="#A06D35" stroke="#0C0D46" stroke-width="1.5" stroke-miterlimit="10" stroke-linecap="round" stroke-linejoin="round"/>
<path d="M216.346 308.04C237.317 308.04 254.317 304.814 254.317 300.834C254.317 296.853 237.317 293.627 216.346 293.627C195.376 293.627 178.376 296.853 178.376 300.834C178.376 304.814 195.376 308.04 216.346 308.04Z" fill="#845629" stroke="#0C0D46" stroke-width="1.5" stroke-miterlimit="10" stroke-linecap="round" stroke-linejoin="round"/>
<path d="M281.709 246.418C284.927 246.799 287.18 250.163 286.735 253.932C286.289 257.702 283.314 260.442 280.095 260.061L279.82 263.246C284.627 263.814 289.069 259.72 289.734 254.094C290.399 248.468 287.043 243.442 282.236 242.875L281.709 246.418Z" fill="#C0C1F1" stroke="#0C0D46" stroke-width="1.5" stroke-miterlimit="10" stroke-linecap="round" stroke-linejoin="round"/>
<path d="M256.409 236.795L252.372 269.926L278.263 273.314L283.306 238.984L256.409 236.795Z" fill="#C0C1F1" stroke="#0C0D46" stroke-width="1.5" stroke-miterlimit="10" stroke-linecap="round" stroke-linejoin="round"/>
<path d="M283.3 238.986C283.499 236.545 277.641 234.076 270.215 233.471C262.79 232.866 256.61 234.354 256.411 236.795C256.212 239.236 262.07 241.705 269.495 242.31C276.921 242.915 283.101 241.427 283.3 238.986Z" fill="#A1A3D3" stroke="#0C0D46" stroke-width="1.5" stroke-miterlimit="10" stroke-linecap="round" stroke-linejoin="round"/>
<path opacity="0.5" d="M263.785 222.808C265.69 219.444 264.961 215.739 262.715 212.65C263.218 213.307 263.38 214.126 263.291 214.904C263.039 217.044 261.451 218.455 259.951 220.043C257.803 222.313 256.327 225.442 257.616 228.142C258.184 229.325 259.213 230.29 260.275 231.19C261.475 232.211 262.748 233.168 264.069 234.076C262.529 231.595 260.94 228.782 261.888 226.091C262.294 224.915 263.161 223.902 263.785 222.808Z" fill="white"/>
<path opacity="0.5" d="M271.908 229.001C271.908 228.985 271.9 228.961 271.9 228.945C271.575 226.213 269.865 223.724 269.67 220.936C269.533 218.893 270.124 216.818 271.357 215.058C272.637 213.226 274.583 211.735 275.475 209.741C276.383 207.714 276.066 205.444 275.58 203.32C277.242 205.42 277.923 208.063 277.453 210.559C276.95 213.21 275.24 215.593 274.575 218.212C273.172 223.765 277.25 230.396 272.718 235.349C271.94 236.2 270.805 236.873 269.549 236.93C271.227 234.644 272.208 231.717 271.908 229.001Z" fill="white"/>
<path opacity="0.5" d="M283.484 226.877C283.613 228.409 283.265 229.965 282.398 231.279C281.546 232.568 280.168 233.605 278.571 234.164C280.087 232.203 281.157 230.419 281.238 228.004C281.319 225.539 280.42 222.621 278.766 220.578C281.619 221.681 283.257 224.242 283.484 226.877Z" fill="white"/>
<path d="M382.805 229.99C387.466 216.695 391.9 203.563 391.819 189.604C391.77 181.927 389.152 173.666 380.551 169.386C373.904 166.071 365.076 165.982 357.796 167.7C350.59 169.402 345.24 174.501 342.41 180.103C339.589 185.704 338.917 191.825 338.276 197.848C337.944 200.961 337.611 204.074 337.287 207.178C336.704 212.666 335.277 217.944 333.218 223.448C337.911 224.786 342.945 225.839 348.579 226.901C361.477 229.325 373.15 230.03 382.805 229.99Z" fill="#D6A35F" stroke="#0C0D46" stroke-width="1.5" stroke-miterlimit="10" stroke-linecap="round" stroke-linejoin="round"/>
<path d="M356.791 170.95C353.516 170.48 350.557 165.689 354.197 163.63C355.656 162.803 357.529 163.273 359.077 163.954C360.358 164.513 361.614 165.227 362.482 166.281C361.849 165.3 362.49 163.816 363.657 163.541C364.314 163.387 365.003 163.573 365.619 163.841C367.873 164.821 369.502 167.002 369.745 169.353" fill="#D6A35F"/>
<path d="M356.791 170.95C353.516 170.48 350.557 165.689 354.197 163.63C355.656 162.803 357.529 163.273 359.077 163.954C360.358 164.513 361.614 165.227 362.482 166.281C361.849 165.3 362.49 163.816 363.657 163.541C364.314 163.387 365.003 163.573 365.619 163.841C367.873 164.821 369.502 167.002 369.745 169.353" stroke="#0C0D46" stroke-width="1.5" stroke-miterlimit="10" stroke-linecap="round" stroke-linejoin="round"/>
<path opacity="0.2" d="M387.223 217.051C386.136 220.634 384.572 224.046 383.688 227.775C383.631 228.027 383.558 228.294 383.356 228.456C383.161 228.61 382.902 228.626 382.651 228.635C378.281 228.748 373.92 228.181 369.583 227.605C379.862 215.527 380.583 195.82 377.09 180.628C375.971 175.756 374.179 170.398 369.713 168.169C369.518 167.642 369.307 167.326 369.113 166.799C370.685 166.304 372.38 166.693 373.985 167.091C375.274 167.407 376.571 167.731 377.827 168.161C382.156 169.668 385.974 172.611 388.528 176.413C392.07 181.69 391.024 190.64 390.627 196.566C390.222 202.532 389.152 207.996 388.025 213.873C387.814 214.959 387.539 216.013 387.223 217.051Z" fill="#0C0D46"/>
<path opacity="0.5" d="M343.003 194.006C342.605 195.797 342.378 197.621 342.313 199.453" stroke="#0C0D46" stroke-miterlimit="10" stroke-linecap="round" stroke-linejoin="round"/>
<path opacity="0.5" d="M380.154 223.172C379.895 224.866 379.49 226.544 378.93 228.165" stroke="#0C0D46" stroke-miterlimit="10" stroke-linecap="round" stroke-linejoin="round"/>
<path opacity="0.5" d="M345.791 212.738C345.394 214.53 345.167 216.354 345.102 218.186" stroke="#0C0D46" stroke-miterlimit="10" stroke-linecap="round" stroke-linejoin="round"/>
<path opacity="0.5" d="M354.757 179.363C353.436 180.433 352.163 182.452 352.009 184.146" stroke="#0C0D46" stroke-miterlimit="10" stroke-linecap="round" stroke-linejoin="round"/>
<path d="M280.849 281.272C263.736 281.281 246.624 281.929 229.568 283.226C237.755 287.433 244.897 293.019 253.993 294.445C263.088 295.872 273.197 294.008 279.609 287.401C280.727 286.25 281.781 284.774 281.571 283.177C281.36 281.58 281.943 280.097 280.849 281.272Z" fill="#C9C5E6" stroke="#0C0D46" stroke-width="1.5" stroke-miterlimit="10" stroke-linecap="round" stroke-linejoin="round"/>
<path d="M269.347 269.904C261.475 265.145 254.536 259.998 254.925 247.83C251.172 250.87 247.775 261.181 249.008 268.558C250.24 275.935 256.23 283.693 263.056 286.757L269.347 269.904Z" fill="#FFEAD4" stroke="#0C0D46" stroke-width="1.5" stroke-miterlimit="10" stroke-linecap="round" stroke-linejoin="round"/>
<path d="M253.644 249.426C251.731 253.155 251.78 257.678 253.101 261.658C254.423 265.639 256.506 268.76 259.295 271.897" stroke="#0C0D46" stroke-width="1.5" stroke-miterlimit="10" stroke-linecap="round" stroke-linejoin="round"/>
<path d="M250.75 254.469C248.618 262.178 251.237 271.119 256.871 276.794" stroke="#0C0D46" stroke-width="1.5" stroke-miterlimit="10" stroke-linecap="round" stroke-linejoin="round"/>
<path d="M208.483 260.251C206.059 258.07 203.838 255.857 201.617 253.012C199.988 250.929 194.8 245.676 192.603 241.857C192.327 241.379 191.703 241.598 191.598 242.141C189.385 253.044 192.206 263.607 196.956 272.97C198.764 267.822 203.984 263.218 208.483 260.251Z" fill="#FFEAD4" stroke="#0C0D46" stroke-width="1.5" stroke-miterlimit="10" stroke-linecap="round" stroke-linejoin="round"/>
<path d="M191.038 248.83C193.681 252.762 196.007 256.904 197.977 261.209Z" fill="#FFEAD4"/>
<path d="M191.038 248.83C193.681 252.762 196.007 256.904 197.977 261.209" stroke="#0C0D46" stroke-width="1.5" stroke-miterlimit="10" stroke-linecap="round" stroke-linejoin="round"/>
<path d="M191.687 242.215C195.1 247.273 197.807 252.113 200.41 257.633" stroke="#0C0D46" stroke-width="1.5" stroke-miterlimit="10" stroke-linecap="round" stroke-linejoin="round"/>
<path d="M378.249 240.382C378.038 239.539 375.355 228.507 374.285 228.563C367.021 228.993 359.734 228.158 352.624 226.691C347.079 225.548 338.073 224.194 333.339 221C331.393 227.534 328.143 235.04 325.314 241.242C322.971 246.373 321.966 250.078 318.204 254.253C309.482 263.932 301.708 274.446 294.72 285.438C285 288.218 276.554 291.696 266.404 290.205C258.809 289.086 251.513 286.476 244.314 283.898C232.106 279.536 221.957 271.73 212.132 263.413C210.851 262.327 209.651 261.297 208.492 260.259C203.993 263.226 201.067 267.92 199.259 273.076C204.058 282.52 210.924 290.991 219.33 298.433C228.134 306.215 238.234 312.432 248.757 317.596C264.37 325.249 281.126 330.98 298.465 332.893C319.096 335.171 342.053 335.819 358.339 320.75C372.007 308.112 379.043 289.191 380.697 270.968C381.621 260.73 380.753 250.329 378.249 240.382Z" fill="white" stroke="#0C0D46" stroke-width="1.5" stroke-miterlimit="10" stroke-linecap="round" stroke-linejoin="round"/>
<path d="M210.907 277.752C228.214 298.488 254.196 308.265 280.647 313.696C288.737 315.358 296.957 316.614 305.217 316.598C316.023 316.582 326.699 314.393 337.286 312.22" stroke="#0C0D46" stroke-miterlimit="10" stroke-linecap="round" stroke-linejoin="round"/>
<path d="M211.353 270.392C211.564 265.909 211.58 261.442 210.737 256.951C210.591 256.173 208.808 247.296 206.87 249.655C202.428 255.087 198.415 260.891 195.027 267.06C194.111 268.722 193.227 270.416 192.392 272.134C198.067 268.957 204.771 268.884 211.353 270.392Z" fill="#FFEAD4" stroke="#0C0D46" stroke-width="1.5" stroke-miterlimit="10" stroke-linecap="round" stroke-linejoin="round"/>
<path d="M214.215 292.967C211.596 288.695 210.648 284.634 210.851 279.624C210.972 276.535 211.215 273.463 211.361 270.391C204.779 268.883 198.075 268.956 192.4 272.133C189.288 278.497 186.815 285.233 186.085 292.31C185.826 294.856 192.522 296.834 194.176 297.507C198.885 299.42 203.725 300.984 208.662 302.184C214.458 303.594 220.505 305.191 226.455 305.71C227.436 305.799 228.061 305.97 229.041 306.051C229.058 306.051 229.033 306.034 229.058 306.034C227.217 305.459 225.977 304.308 224.437 303.149C220.611 300.287 216.744 297.093 214.215 292.967Z" fill="white" stroke="#0C0D46" stroke-width="1.5" stroke-miterlimit="10" stroke-linecap="round" stroke-linejoin="round"/>
<path d="M190.382 276.754C190.382 276.754 200.539 274.16 211.102 275.96Z" fill="white"/>
<path d="M190.382 276.754C190.382 276.754 200.539 274.16 211.102 275.96" stroke="#0C0D46" stroke-width="1.5" stroke-miterlimit="10" stroke-linecap="round" stroke-linejoin="round"/>
<path d="M186.896 288.857C196.17 294.175 207.973 296.826 218.479 298.253" stroke="#0C0D46" stroke-miterlimit="10" stroke-linecap="round" stroke-linejoin="round"/>
<path d="M204.325 252.867C204.438 258.42 203.538 263.997 201.674 269.226Z" fill="#FFEAD4"/>
<path d="M204.325 252.867C204.438 258.42 203.538 263.997 201.674 269.226" stroke="#0C0D46" stroke-width="1.5" stroke-miterlimit="10" stroke-linecap="round" stroke-linejoin="round"/>
<path d="M207.543 249.77C209.149 255.995 207.9 263.137 206.871 269.484Z" fill="#FFEAD4"/>
<path d="M207.543 249.77C209.149 255.995 207.9 263.137 206.871 269.484" stroke="#0C0D46" stroke-width="1.5" stroke-miterlimit="10" stroke-linecap="round" stroke-linejoin="round"/>
<path opacity="0.2" d="M219.816 298.992C215.171 295.142 211.929 289.629 210.826 283.695C210.542 284.125 210.818 284.076 210.567 284.522C209.343 286.719 206.838 287.878 204.414 288.543C198.699 290.116 192.473 289.759 186.977 287.538C186.807 287.473 186.661 287.481 186.637 287.659C186.515 288.575 186.393 289.483 186.272 290.399C186.029 292.215 186.053 293.464 187.634 294.444C189.401 295.531 191.533 296.268 193.446 297.063C197.272 298.66 201.188 300.054 205.16 301.221C208.913 302.324 212.715 303.24 216.557 303.961C218.527 304.326 220.513 304.642 222.508 304.91C224.542 305.177 226.455 305.712 228.514 305.729C225.515 303.678 222.621 301.311 219.816 298.992Z" fill="#272ABF"/>
<path d="M329.262 266.251C321.285 275.825 314.84 282.286 304.132 288.933C295.279 294.429 281.523 295.305 271.544 293.286C264.005 291.762 254.804 288.552 254.991 279.319C255.128 272.469 262.4 264.241 269.712 266.089C278.524 268.318 288.405 265.749 295.012 259.49C302.024 252.851 306.353 243.975 313.649 237.449C321.739 230.21 325.338 227.648 335.544 224.365" fill="white"/>
<path d="M329.262 266.251C321.285 275.825 314.84 282.286 304.132 288.933C295.279 294.429 281.523 295.305 271.544 293.286C264.005 291.762 254.804 288.552 254.991 279.319C255.128 272.469 262.4 264.241 269.712 266.089C278.524 268.318 288.405 265.749 295.012 259.49C302.024 252.851 306.353 243.975 313.649 237.449C321.739 230.21 325.338 227.648 335.544 224.365" stroke="#0C0D46" stroke-width="1.5" stroke-miterlimit="10" stroke-linecap="round" stroke-linejoin="round"/>
<path d="M265.78 291.763C265.78 291.763 255.112 277.09 270.789 266.309" stroke="#0C0D46" stroke-width="1.5" stroke-miterlimit="10" stroke-linecap="round" stroke-linejoin="round"/>
<path d="M262.238 280.988C268.691 282.658 275.581 282.594 281.993 280.794C292.969 277.722 301.692 270.223 309.709 262.449C315.967 256.386 320.312 248.263 327.43 243.091C334.458 237.992 343.407 235.974 351.976 235.949" stroke="#0C0D46" stroke-miterlimit="10" stroke-linecap="round" stroke-linejoin="round"/>
<path opacity="0.2" d="M334.936 288.925C335.544 283.437 336.16 277.957 336.792 272.469C338.049 261.549 337.441 249.487 340.821 238.908C337.854 243.099 334.279 246.828 330.712 250.525C321.779 259.798 312.7 269.113 301.87 276.068C291.039 283.031 278.158 287.531 265.358 286.152C261.135 285.698 256.19 283.802 255.509 279.611C254.252 282.942 256.02 286.347 258.768 288.617C261.516 290.887 265.083 291.884 268.56 292.662C274.17 293.918 281.385 295.605 287.132 294.51C292.101 293.562 297.468 291.389 302.056 289.249C305.736 287.531 309.263 285.48 312.578 283.129C315.861 280.802 318.172 277.649 321.203 275.209C319.396 283.137 316.696 291.235 313.21 298.596C310.333 304.676 306.604 311.217 300.208 314.047C283.703 321.351 262.505 313.998 247.184 306.881C233.832 300.679 221.503 292.905 210.713 282.894C211.442 283.575 211.799 286.509 212.221 287.531C212.958 289.322 213.85 291.057 214.88 292.694C216.817 295.775 219.257 298.701 222.07 300.987C228.442 306.151 235.948 310.374 243.139 314.282C254.658 320.532 266.817 325.59 279.374 329.352C290.877 332.797 303.458 333.316 315.391 333.932C318.561 334.094 321.73 334.296 324.9 334.224C328.572 334.142 330.112 334.653 330.591 330.843C331.466 323.896 331.969 316.876 332.69 309.912C333.42 302.917 334.166 295.921 334.936 288.925Z" fill="#272ABF"/>
<path d="M395.053 195.588C380.818 196.293 366.477 194.396 352.77 189.978C362.408 179.724 376.286 174.9 389.297 177.276L395.053 195.588Z" fill="#FFEAD4" stroke="#0C0D46" stroke-width="1.5" stroke-miterlimit="10" stroke-linecap="round" stroke-linejoin="round"/>
<path d="M355.42 187.498C362.773 183.501 371.066 181.345 379.432 181.426" stroke="#0C0D46" stroke-width="1.5" stroke-miterlimit="10" stroke-linecap="round" stroke-linejoin="round"/>
<path d="M356.239 188.049C363.551 186.461 371.139 186.12 378.572 187.052" stroke="#0C0D46" stroke-width="1.5" stroke-miterlimit="10" stroke-linecap="round" stroke-linejoin="round"/>
<path d="M378.475 265.554C386.184 260.795 400.565 251.043 406.158 243.918C415.635 231.847 419.793 211.881 413.162 197.322C408.963 188.105 399.227 176.643 388.276 176.116C384.036 175.913 379.683 179.496 378.516 183.484C377.648 186.427 378.289 189.767 380.177 192.183C382.155 194.704 384.814 195.798 387.262 197.598C389.913 199.543 391.729 202.907 392.702 205.98C393.65 208.979 393.974 212.189 393.545 215.31C392.823 220.587 389.208 227.202 383.331 227.81C379.772 228.175 376.173 228.159 372.622 227.754C372.306 229.124 372.225 230.623 372.055 232.026C371.868 233.485 371.73 234.944 371.625 236.411C371.422 239.346 371.382 242.288 371.512 245.223C371.82 252.519 373.23 260.131 378.564 265.481" fill="#C9C5E6"/>
<path d="M378.475 265.554C386.184 260.795 400.565 251.043 406.158 243.918C415.635 231.847 419.793 211.881 413.162 197.322C408.963 188.105 399.227 176.643 388.276 176.116C384.036 175.913 379.683 179.496 378.516 183.484C377.648 186.427 378.289 189.767 380.177 192.183C382.155 194.704 384.814 195.798 387.262 197.598C389.913 199.543 391.729 202.907 392.702 205.98C393.65 208.979 393.974 212.189 393.545 215.31C392.823 220.587 389.208 227.202 383.331 227.81C379.772 228.175 376.173 228.159 372.622 227.754C372.306 229.124 372.225 230.623 372.055 232.026C371.868 233.485 371.73 234.944 371.625 236.411C371.422 239.346 371.382 242.288 371.512 245.223C371.82 252.519 373.23 260.131 378.564 265.481" stroke="#0C0D46" stroke-width="1.5" stroke-miterlimit="10" stroke-linecap="round" stroke-linejoin="round"/>
<path d="M385.219 196.228C385.219 196.228 381.961 180.405 395.693 178.078" stroke="#0C0D46" stroke-width="1.5" stroke-miterlimit="10" stroke-linecap="round" stroke-linejoin="round"/>
<path d="M352.534 238.973L413.981 243.472L405.956 232.609C404.748 230.98 402.891 229.95 400.873 229.796L345.052 225.492C342.255 225.273 339.742 227.186 339.207 229.934L315.877 354.286L330.541 362.669L352.664 238.981H352.534V238.973Z" fill="#5B5EE1" stroke="#0C0D46" stroke-width="1.5" stroke-miterlimit="10" stroke-linecap="round" stroke-linejoin="round"/>
<path opacity="0.2" d="M352.469 239.176L413.916 243.675L405.891 232.812C404.683 231.183 402.826 230.153 400.808 229.999L344.987 225.695C342.19 225.476 339.677 227.389 339.142 230.137L315.812 354.49L330.477 362.872L352.599 239.184H352.469V239.176Z" fill="#0C0D46"/>
<path d="M340.455 227.453L350.807 238.543" stroke="#0C0D46" stroke-width="1.5" stroke-miterlimit="10" stroke-linecap="round" stroke-linejoin="round"/>
<path d="M349.389 241.343L328.02 356.843C327.453 359.915 329.682 362.809 332.803 363.036L389.848 367.243C392.555 367.446 394.971 365.549 395.417 362.874L414.751 247.358C415.261 244.309 413.048 241.488 409.968 241.253L354.958 237.054C352.283 236.852 349.883 238.7 349.389 241.343Z" fill="#5B5EE1" stroke="#0C0D46" stroke-width="1.5" stroke-miterlimit="10" stroke-linecap="round" stroke-linejoin="round"/>
<path d="M359.003 215.684C357.682 215.579 356.433 215.044 355.436 214.16L350.483 209.345C349.429 208.381 348.935 206.938 349.178 205.527L351.456 192.346C351.902 189.784 354.22 187.985 356.814 188.187L401.837 192.2C403.629 192.346 405.299 193.205 406.45 194.608C407.861 196.124 409.312 197.226 410.722 198.742C411.906 199.828 412.441 201.433 412.165 203.006L409.863 216.001C409.474 218.068 407.601 219.519 405.502 219.365C390.294 218.173 374.235 216.86 359.003 215.684Z" fill="#5B5EE1" stroke="#0C0D46" stroke-width="1.5" stroke-miterlimit="10" stroke-linecap="round" stroke-linejoin="round"/>
<path d="M357.398 215.191L359.806 200.364C360.122 198.038 362.214 196.368 364.556 196.578C379.829 197.948 396.877 199.643 412.149 201.013" stroke="#0C0D46" stroke-width="1.5" stroke-miterlimit="10" stroke-linecap="round" stroke-linejoin="round"/>
<path d="M352.761 189.889L362.084 196.974" stroke="#0C0D46" stroke-width="1.5" stroke-miterlimit="10" stroke-linecap="round" stroke-linejoin="round"/>
<path d="M361.297 232.487C360.39 232.341 359.773 231.49 359.919 230.582L362.943 211.597C363.089 210.689 363.94 210.073 364.848 210.219C365.756 210.365 366.372 211.216 366.226 212.124L363.202 231.109C363.057 232.009 362.205 232.633 361.297 232.487Z" fill="#272ABF" stroke="#0C0D46" stroke-width="1.5" stroke-miterlimit="10" stroke-linecap="round" stroke-linejoin="round"/>
<path d="M398.554 235.287C397.646 235.124 397.046 234.257 397.209 233.357L400.589 214.429C400.751 213.521 401.618 212.921 402.518 213.083C403.426 213.245 404.026 214.113 403.864 215.012L400.484 233.941C400.321 234.849 399.462 235.449 398.554 235.287Z" fill="#272ABF" stroke="#0C0D46" stroke-width="1.5" stroke-miterlimit="10" stroke-linecap="round" stroke-linejoin="round"/>
<path opacity="0.2" d="M386.013 366.616C382.625 366.162 374.689 365.343 371.892 365.886C381.798 363.941 384.36 353.986 385.803 345.62C388.34 330.964 391.899 316.478 394.144 301.781C398.189 275.297 404.318 240.618 395.004 240.229C400.483 240.374 405.761 240.61 408.744 240.739C409.911 240.788 411.119 240.853 412.132 241.42C415.018 243.041 415.424 246.624 414.994 249.535C412.659 265.472 409.092 281.093 406.336 296.998C402.688 318.034 400.581 339.305 395.895 360.122C395.522 361.76 395.093 363.487 393.909 364.678C391.745 366.867 388.932 366.997 386.013 366.616Z" fill="#0C0D46"/>
<path opacity="0.2" d="M410.827 200.663C410.73 200.663 410.633 200.671 410.535 200.696C410.316 200.753 410.089 200.712 409.863 200.671C408.857 200.493 407.836 200.355 406.815 200.266C406.506 200.242 403.069 200.355 402.915 199.982C403.767 202.098 403.458 204.133 403.28 206.362C403.086 208.778 402.713 211.177 402.17 213.544C401.48 216.576 399.47 218.076 396.39 218.457C399.511 218.66 404.529 218.887 407.674 218.887C408.014 218.895 408.371 218.887 408.655 218.716C409.028 218.489 409.19 218.044 409.319 217.63C410.933 212.523 411.816 207.189 411.93 201.839C411.954 201.158 411.435 200.663 410.827 200.663Z" fill="#0C0D46"/>
<path opacity="0.57" d="M120.942 90.2682C117.602 83.6047 110.517 80.5973 102.954 88.7685C98.5763 93.4946 99.3464 100.604 98.1628 106.473C96.8577 112.942 94.1177 118.706 91.3129 124.631C90.8427 125.62 90.3807 126.65 90.3969 127.744C90.4536 132.219 94.4663 133.159 98.0331 132.495C112.536 129.803 121.12 115.406 122.806 101.69C123.301 97.5883 122.555 93.5027 120.942 90.2682Z" fill="#424156"/>
<path opacity="0.57" d="M81.7641 90.7393C80.6049 92.166 80.2725 94.071 79.9969 95.895C79.7456 97.5811 79.5105 99.324 79.9807 100.962C80.4509 102.599 81.7965 104.115 83.4989 104.212C85.185 104.318 86.6604 103.053 87.5521 101.618C89.2544 98.8863 90.1299 94.1197 88.5005 91.1852C87.1062 88.6722 83.5556 88.5425 81.7641 90.7393Z" fill="#424156"/>
<path opacity="0.57" d="M472.802 244.875C474.277 244.113 475.655 242.71 476.839 240.522C486.218 223.255 469.446 191.356 455.965 220.377C451.255 230.494 463.828 249.512 472.802 244.875Z" fill="#424156"/>
</svg>