<svg width="760" height="372" viewBox="0 0 760 372" fill="none" xmlns="http://www.w3.org/2000/svg">
<path d="M622.28 368.437L290.48 370.387C250.5 346.937 244.15 302.837 265.8 271.957C279.71 252.117 303.99 237.957 308.76 214.367C311.93 198.657 305.39 182.797 303.52 166.887C298.89 127.467 327.29 86.8574 366.54 76.7574C398.58 68.5174 430.01 73.6774 461.31 84.2974C486.86 92.9574 510.57 106.907 536.5 114.157C570.68 123.717 604.91 108.747 638.29 117.597C672.35 126.637 687.74 164.167 671.86 194.237C664.34 208.467 654.51 221.267 647.48 235.787C642.34 246.397 638.05 257.807 638.45 269.537C638.92 283.127 646.03 295.167 645.01 308.617C644.14 320.067 640.74 332.107 635.04 342.197C633.7 344.577 620.51 368.447 622.28 368.437Z" fill="#3D40C6"/>
<path d="M507.97 358.842L412.28 356.702C395.83 356.332 382.65 343.572 382.99 328.332L385.46 217.702C385.8 202.462 399.54 190.302 415.99 190.672L511.68 192.812C528.13 193.182 541.31 205.942 540.97 221.182L540.87 332.182C540.53 347.422 524.42 359.212 507.97 358.842Z" fill="#5B5EE1" stroke="#0C0D46" stroke-width="2.5" stroke-miterlimit="10" stroke-linecap="round" stroke-linejoin="round"/>
<path d="M569.01 198.767C566.46 181.457 553.92 165.417 538.22 158.007C510.69 145.027 480.22 136.287 449.55 137.637C436.11 138.227 421.11 141.077 407.38 146.607C385.65 155.367 367.16 170.847 363.24 194.737C367.3 199.637 374.1 201.667 380.96 202.077C384.86 196.577 387.73 188.937 392.77 185.927C404.9 178.667 425.7 177.647 439.52 176.667C469.07 174.567 499.8 181.177 527.84 190.127C535.15 192.457 542.94 196.137 546.79 203.167C548.12 205.587 548.81 208.727 549.58 211.847C555.84 216.197 563.32 215.057 569.62 211.327C569.94 206.527 569.43 201.587 569.01 198.767Z" fill="#5B5EE1" stroke="#0C0D46" stroke-width="2.5" stroke-miterlimit="10" stroke-linecap="round" stroke-linejoin="round"/>
<path d="M549.59 211.846C550.96 217.406 552.6 222.896 558.55 224.156C566.62 225.856 569.13 218.766 569.63 211.336C563.32 215.046 555.85 216.186 549.59 211.846Z" fill="#272ABF" stroke="#0C0D46" stroke-width="2.5" stroke-miterlimit="10" stroke-linecap="round" stroke-linejoin="round"/>
<path d="M363.24 194.738C363.2 194.978 363.15 195.208 363.12 195.448C362.1 202.218 364.06 208.318 371.57 208.228C375.64 208.178 378.5 205.558 380.96 202.088C374.1 201.668 367.3 199.638 363.24 194.738Z" fill="#272ABF" stroke="#0C0D46" stroke-width="2.5" stroke-miterlimit="10" stroke-linecap="round" stroke-linejoin="round"/>
<path d="M506.31 195.11C505.03 189.71 504.18 184.22 503.98 178.61C503.46 163.97 504.34 149.3 503.21 134.68C502.22 121.87 500.45 107.17 492.21 96.7901C482.86 85.0201 468.82 79.3901 454.11 78.5001C439.76 77.6301 424.42 81.7501 413.51 91.3901C401.43 102.07 398.1 119.2 400.26 134.59C402.97 153.88 408.8 172.76 410.55 192.18C410.55 192.21 410.56 192.25 410.56 192.28C410.8 194.92 410.74 197.71 410.5 200.55C440.42 219.77 476.83 213.56 506.31 195.11Z" fill="#D6A35F" stroke="#0C0D46" stroke-width="2.5" stroke-miterlimit="10" stroke-linecap="round" stroke-linejoin="round"/>
<path d="M489.79 119.618C486.41 105.908 477.16 94.658 461.1 94.288C452.51 94.088 446.59 98.378 438.68 100.248C433.62 101.448 428.36 101.498 423.38 103.068C401.13 110.078 400.9 135.738 410.57 153.198C420.26 170.698 441.11 179.768 460.5 174.588C484.18 168.278 495.41 142.408 489.79 119.618Z" fill="#EDCDA4" stroke="#0C0D46" stroke-width="2.5" stroke-miterlimit="10" stroke-linecap="round" stroke-linejoin="round"/>
<path d="M445.81 151.42C446.61 151.28 447.39 150.8 448.1 149.86C449.55 147.96 451.99 143.77 449.48 141.74C447.17 139.87 442.79 141.16 440.39 142.2C437.96 143.26 438.93 146.35 440.18 148.01C441.67 149.98 443.79 151.78 445.81 151.42Z" fill="#A06D35" stroke="#0C0D46" stroke-width="2.5" stroke-miterlimit="10" stroke-linecap="round" stroke-linejoin="round"/>
<path d="M445.85 151.691C446.42 155.271 447.45 158.781 448.91 162.091" stroke="#0C0D46" stroke-width="2.5" stroke-miterlimit="10" stroke-linecap="round" stroke-linejoin="round"/>
<path d="M442.69 162.738C450.54 165.678 455.76 161.738 458.04 154.008" stroke="#0C0D46" stroke-width="2.5" stroke-miterlimit="10" stroke-linecap="round" stroke-linejoin="round"/>
<path d="M490.48 137.777C481.67 132.187 471.51 133.367 461.57 133.417C459.69 133.427 457.81 133.237 455.97 132.857C451.43 131.907 448.95 127.877 449.92 123.327C451.76 114.707 465.16 114.437 471.91 115.007C477.99 115.527 483.91 117.127 489.78 118.797C490.22 120.557 490.59 122.507 490.84 124.637C491.44 129.777 491.08 134.277 490.48 137.777Z" fill="#D6A35F" stroke="#0C0D46" stroke-width="2.5" stroke-miterlimit="10" stroke-linecap="round" stroke-linejoin="round"/>
<path d="M408.95 149.568C408.99 148.208 410.27 146.878 411.26 145.948C414.1 143.258 417.56 141.228 421.29 140.038C423.75 139.248 426.33 138.828 428.75 137.898C432.71 136.368 435.92 133.248 435.11 128.908C433.16 118.508 421.57 121.888 415.87 123.368C412.15 124.328 406.98 126.148 404.69 129.228C404.69 129.228 404.48 139.558 408.77 149.388L408.95 149.568Z" fill="#D6A35F" stroke="#0C0D46" stroke-width="2.5" stroke-miterlimit="10" stroke-linecap="round" stroke-linejoin="round"/>
<path d="M425.2 136.478C427.475 136.478 429.32 134.634 429.32 132.358C429.32 130.083 427.475 128.238 425.2 128.238C422.925 128.238 421.08 130.083 421.08 132.358C421.08 134.634 422.925 136.478 425.2 136.478Z" fill="#0C0D46"/>
<path d="M460.74 130.999C463.121 130.999 465.05 129.069 465.05 126.689C465.05 124.309 463.121 122.379 460.74 122.379C458.36 122.379 456.43 124.309 456.43 126.689C456.43 129.069 458.36 130.999 460.74 130.999Z" fill="#0C0D46"/>
<path d="M418.64 182.656C419.04 186.766 420.2 190.826 422.08 194.646" stroke="#A06D35" stroke-width="1.5" stroke-miterlimit="10" stroke-linecap="round" stroke-linejoin="round"/>
<path d="M433.55 201.809C433 206.159 433.3 210.619 434.45 214.859" stroke="#A06D35" stroke-width="1.5" stroke-miterlimit="10" stroke-linecap="round" stroke-linejoin="round"/>
<path d="M460.12 189.039C460.27 192.699 460.42 196.359 460.56 200.019" stroke="#A06D35" stroke-width="1.5" stroke-miterlimit="10" stroke-linecap="round" stroke-linejoin="round"/>
<path d="M486.96 177.789C487.88 181.799 488.19 185.949 487.88 190.059" stroke="#A06D35" stroke-width="1.5" stroke-miterlimit="10" stroke-linecap="round" stroke-linejoin="round"/>
<path d="M496.83 157.117C497.33 160.837 497.6 164.597 497.63 168.347" stroke="#A06D35" stroke-width="1.5" stroke-miterlimit="10" stroke-linecap="round" stroke-linejoin="round"/>
<path opacity="0.2" d="M503.7 143.347C504.77 123.537 501.65 103.147 485.31 90.3372C478.04 84.6372 469.4 80.5572 460.22 79.2572C451.79 78.0572 443.14 78.4972 434.88 80.5572C430.69 81.5972 422.1 83.3372 419.72 87.4172C419.02 87.7372 419.1 87.0272 418.4 87.3472C432.48 83.0872 447.81 81.4972 461.86 85.8572C488.61 94.1572 493.35 125.027 493.7 149.197C493.89 162.507 494.33 177.007 490.38 189.807C487.96 197.667 483.8 204.447 476.53 208.507C481.79 206.627 487 204.627 492.16 202.507C496.51 200.717 501.8 199.197 505.06 195.607C505.25 195.407 505.43 195.187 505.52 194.927C505.65 194.587 505.62 194.197 505.59 193.837C504.05 176.967 502.99 160.347 503.7 143.347Z" fill="#0C0D46"/>
<path d="M426.96 93.6487C423.84 94.7687 420.03 91.8687 420.3 88.5587C420.61 84.6187 425.08 83.5787 428.09 84.4387C425.18 83.6087 424.75 77.6687 425.47 75.4287C426.63 71.8187 430.43 69.3687 434.2 70.1787C438.05 71.0087 440.6 74.9787 442.44 78.1387C444.87 82.3087 447.96 86.1587 452.86 87.4687" fill="#D6A35F"/>
<path d="M426.96 93.6487C423.84 94.7687 420.03 91.8687 420.3 88.5587C420.61 84.6187 425.08 83.5787 428.09 84.4387C425.18 83.6087 424.75 77.6687 425.47 75.4287C426.63 71.8187 430.43 69.3687 434.2 70.1787C438.05 71.0087 440.6 74.9787 442.44 78.1387C444.87 82.3087 447.96 86.1587 452.86 87.4687" stroke="#0C0D46" stroke-width="2.5" stroke-miterlimit="10" stroke-linecap="round" stroke-linejoin="round"/>
<path d="M550.82 313.001C547.02 294.881 541.95 277.021 535.66 259.571C530.28 244.641 523.62 231.721 517.34 217.121C513.35 207.841 508.35 198.111 505.97 188.301C476.48 206.341 440.07 212.411 410.15 193.631C409.49 201.231 407.43 209.271 406.03 216.181C401.78 237.181 395.16 257.561 391.97 278.761C387.52 308.301 384.63 340.521 381.92 370.231L556.31 368.761C557.8 352.001 554.26 329.391 550.82 313.001Z" fill="white" stroke="#0C0D46" stroke-width="2.5" stroke-miterlimit="10" stroke-linecap="round" stroke-linejoin="round"/>
<path d="M408.24 207.832C408.24 207.832 452.21 233.812 509.68 200.332" stroke="#0C0D46" stroke-width="2.5" stroke-miterlimit="10" stroke-linecap="round" stroke-linejoin="round"/>
<path d="M442.5 216.941C436.93 260.711 433.89 304.801 433.42 348.921" stroke="#0C0D46" stroke-width="1.5" stroke-miterlimit="10" stroke-linecap="round" stroke-linejoin="round"/>
<path d="M452.99 217.441C447.42 261.211 444.38 305.301 443.91 349.421" stroke="#0C0D46" stroke-width="1.5" stroke-miterlimit="10" stroke-linecap="round" stroke-linejoin="round"/>
<path d="M497.01 264.359H463.31V284.619H497.01V264.359Z" stroke="#0C0D46" stroke-width="1.5" stroke-miterlimit="10" stroke-linecap="round" stroke-linejoin="round"/>
<path opacity="0.2" d="M544.68 291.601C540.73 275.381 535.68 259.391 529.13 243.601C521.43 225.031 511.04 208.231 505.24 189.051C500.49 192.251 495.48 195.061 490.22 197.331C488.2 198.201 485.34 198.951 483.18 199.481C490.96 235.181 489.8 276.211 486.81 312.361C485.15 332.371 482.04 351.511 478.64 368.191C492.41 367.781 501.79 368.291 515.56 368.311C529.2 368.331 543.15 369.601 556.75 368.931C557.69 364.011 555.6 356.901 555.02 351.841C554.24 345.051 553.37 338.271 552.37 331.511C550.38 318.101 547.89 304.761 544.68 291.601Z" fill="#272ABF"/>
<path d="M405.25 289.509C397.42 303.569 385.131 321.259 370.021 327.879C364.151 330.449 357.481 331.689 351.281 330.069C339.311 326.949 335.761 315.059 337.151 304.019C338.741 291.389 344.581 281.309 350.971 270.609C363.561 249.519 379.771 230.449 399.231 215.399C404.251 211.519 410.021 211.529 413.971 216.499C415.401 218.299 415.931 220.649 416.341 222.909C420.401 245.509 416.41 269.459 405.25 289.509Z" fill="white" stroke="#0C0D46" stroke-width="2.5" stroke-miterlimit="10" stroke-linecap="round" stroke-linejoin="round"/>
<path d="M103.2 314.179L16.03 242.979L43.09 254.789L5 199.199L50.77 240.889L44.92 221.789L73.22 252.749L66.35 233.749L108.82 307.389L103.2 314.179Z" fill="#3D40C6"/>
<path d="M102.85 315.349C106.727 315.349 109.87 312.206 109.87 308.329C109.87 304.452 106.727 301.309 102.85 301.309C98.9731 301.309 95.8301 304.452 95.8301 308.329C95.8301 312.206 98.9731 315.349 102.85 315.349Z" fill="#C0C1F1" stroke="#0C0D46" stroke-width="1.5" stroke-miterlimit="10" stroke-linecap="round" stroke-linejoin="round"/>
<path d="M673.83 220.082C665.67 228.202 658.68 245.632 656.77 252.282C654.53 260.092 653.15 268.442 655.19 276.302C657.8 286.342 666.42 295.982 677.58 294.962C704.19 292.532 699.87 242.562 692.52 226.072C686.75 213.122 679.96 213.972 673.83 220.082Z" fill="#3D40C6"/>
<path d="M248.17 215.03C259.41 212.17 264.91 221.37 263.36 231.18C261.75 241.33 253.09 249.44 243.83 253.27C234.12 257.28 217.27 257.7 209.12 249.72C202.37 243.12 200.34 231.55 205.94 223.95C207.35 222.04 209.22 220.39 211.48 219.64C215.37 218.34 219.56 219.84 223.62 220.45C227.55 221.04 231.6 220.78 235.42 219.69C239.77 218.44 243.78 216.15 248.17 215.03Z" fill="#3D40C6"/>
<path d="M214.56 200.078C221.56 196.408 225.41 187.607 223.35 179.977C222.89 178.267 222.14 176.578 220.85 175.358C217.87 172.518 212.83 173.037 209.46 175.397C206.09 177.757 204 181.498 202.02 185.108C200.29 188.258 198.57 191.408 196.84 194.548C196.23 195.668 195.6 196.878 195.74 198.138C195.92 199.648 197.17 200.807 198.48 201.557C203 204.137 208.89 203.338 213.32 200.608C217.75 197.878 220.93 193.527 223.48 188.987" fill="#3D40C6"/>
<path d="M481.17 329.449C461.37 331.329 442.92 341.929 432.8 359.229L484.12 359.049L481.17 329.449Z" fill="#FFEAD4" stroke="#0C0D46" stroke-width="2.5" stroke-miterlimit="10" stroke-linecap="round" stroke-linejoin="round"/>
<path d="M434.37 358.221C446.46 345.951 462.86 338.011 479.98 336.141" stroke="#0C0D46" stroke-width="2.5" stroke-miterlimit="10" stroke-linecap="round" stroke-linejoin="round"/>
<path d="M482 345.961C468.15 347.181 451.04 352.241 440.72 358.911" stroke="#0C0D46" stroke-width="2.5" stroke-miterlimit="10" stroke-linecap="round" stroke-linejoin="round"/>
<path d="M511.84 217.992C535.18 232.132 548.77 256.322 557.89 281.282C565.58 302.322 581.16 338.772 562.51 357.992C552.78 368.022 537.05 369.282 523.88 369.092C516.77 368.992 509.82 367.682 502.84 366.932C496.07 366.202 489.32 364.822 483.64 360.832C477.93 356.822 473.84 349.982 474.6 343.052C476.51 325.552 499.4 319.632 513.19 315.442C513.95 315.212 514.85 314.852 514.98 314.062C515.08 313.482 514.69 312.942 514.32 312.482C511.44 308.872 507.44 300.662 505.45 296.482C499.5 284.002 495.79 274.102 495.11 262.522" fill="white"/>
<path d="M511.84 217.992C535.18 232.132 548.77 256.322 557.89 281.282C565.58 302.322 581.16 338.772 562.51 357.992C552.78 368.022 537.05 369.282 523.88 369.092C516.77 368.992 509.82 367.682 502.84 366.932C496.07 366.202 489.32 364.822 483.64 360.832C477.93 356.822 473.84 349.982 474.6 343.052C476.51 325.552 499.4 319.632 513.19 315.442C513.95 315.212 514.85 314.852 514.98 314.062C515.08 313.482 514.69 312.942 514.32 312.482C511.44 308.872 507.44 300.662 505.45 296.482C499.5 284.002 495.79 274.102 495.11 262.522" stroke="#0C0D46" stroke-width="2.5" stroke-miterlimit="10" stroke-linecap="round" stroke-linejoin="round"/>
<path d="M513.77 315.231C520.41 313.651 527.25 312.881 534.07 312.941" stroke="#0C0D46" stroke-width="2.5" stroke-miterlimit="10" stroke-linecap="round" stroke-linejoin="round"/>
<path d="M488.23 324.883C485.12 333.163 485.77 342.763 489.95 350.553C494.13 358.343 501.79 364.183 510.4 366.163" stroke="#0C0D46" stroke-width="2.5" stroke-miterlimit="10" stroke-linecap="round" stroke-linejoin="round"/>
<g opacity="0.4">
<path opacity="0.4" d="M480.82 136.21L456.33 139.91C452.72 140.46 449.32 137.95 448.77 134.34L446.99 122.57C446.44 118.96 448.95 115.56 452.56 115.01L477.05 111.31C480.66 110.76 484.06 113.27 484.61 116.88L486.39 128.65C486.93 132.26 484.43 135.66 480.82 136.21Z" fill="white"/>
<path opacity="0.4" d="M432.5 143.94L408.01 147.64C404.4 148.19 401 145.68 400.45 142.07L398.67 130.3C398.12 126.69 400.63 123.29 404.24 122.74L428.73 119.04C432.34 118.49 435.74 121 436.29 124.61L438.07 136.38C438.62 139.99 436.11 143.39 432.5 143.94Z" fill="white"/>
</g>
<path d="M480.641 135.94L456.151 139.64C452.541 140.19 449.141 137.68 448.591 134.07L446.81 122.3C446.26 118.69 448.771 115.29 452.381 114.74L476.87 111.04C480.48 110.49 483.88 113 484.43 116.61L486.211 128.38C486.761 132 484.251 135.4 480.641 135.94Z" stroke="white" stroke-width="1.5" stroke-miterlimit="10"/>
<path d="M432.33 143.671L407.84 147.371C404.23 147.921 400.83 145.411 400.28 141.801L398.5 130.031C397.95 126.421 400.46 123.021 404.07 122.471L428.56 118.771C432.17 118.221 435.57 120.731 436.12 124.341L437.9 136.111C438.44 139.731 435.94 143.131 432.33 143.671Z" stroke="white" stroke-width="1.5" stroke-miterlimit="10"/>
<path d="M437.23 130.969L447.89 128.969" stroke="white" stroke-width="1.5" stroke-miterlimit="10"/>
<path d="M654.51 369.408L662.13 369.398" stroke="#0C0D46" stroke-width="2.5" stroke-miterlimit="10" stroke-linecap="round" stroke-linejoin="round"/>
<path d="M262.5 370.08L645.39 369.43" stroke="#0C0D46" stroke-width="2.5" stroke-miterlimit="10" stroke-linecap="round" stroke-linejoin="round"/>
<path d="M221.021 370.152L251.841 370.102" stroke="#0C0D46" stroke-width="2.5" stroke-miterlimit="10" stroke-linecap="round" stroke-linejoin="round"/>
<path d="M225.52 99.0605C226.095 99.0605 226.56 98.5948 226.56 98.0205C226.56 97.4461 226.095 96.9805 225.52 96.9805C224.946 96.9805 224.48 97.4461 224.48 98.0205C224.48 98.5948 224.946 99.0605 225.52 99.0605Z" fill="#C0C1F1"/>
<path d="M601.29 65.08C601.864 65.08 602.33 64.6144 602.33 64.04C602.33 63.4656 601.864 63 601.29 63C600.716 63 600.25 63.4656 600.25 64.04C600.25 64.6144 600.716 65.08 601.29 65.08Z" fill="#C0C1F1"/>
<path d="M693.23 176.01C693.805 176.01 694.27 175.544 694.27 174.97C694.27 174.395 693.805 173.93 693.23 173.93C692.656 173.93 692.19 174.395 692.19 174.97C692.19 175.544 692.656 176.01 693.23 176.01Z" fill="#C0C1F1"/>
<path d="M162.56 288.439C163.135 288.439 163.601 287.974 163.601 287.399C163.601 286.825 163.135 286.359 162.56 286.359C161.986 286.359 161.521 286.825 161.521 287.399C161.521 287.974 161.986 288.439 162.56 288.439Z" fill="#C0C1F1"/>
<path d="M486.27 76.2909C486.845 76.2909 487.31 75.8253 487.31 75.2509C487.31 74.6766 486.845 74.2109 486.27 74.2109C485.696 74.2109 485.23 74.6766 485.23 75.2509C485.23 75.8253 485.696 76.2909 486.27 76.2909Z" fill="#C0C1F1"/>
<path d="M271.8 146.76C272.374 146.76 272.84 146.294 272.84 145.72C272.84 145.145 272.374 144.68 271.8 144.68C271.225 144.68 270.76 145.145 270.76 145.72C270.76 146.294 271.225 146.76 271.8 146.76Z" fill="#C0C1F1"/>
<path d="M414.01 255.721C416.37 250.201 417.65 244.181 417.74 238.171C412.06 236.881 406.45 238.801 401.27 241.681C402.67 246.461 403.45 251.391 403.53 256.341C403.6 261.131 403.02 265.961 401.66 270.711C401.51 271.241 402.119 271.651 402.549 271.301C407.589 267.151 411.44 261.731 414.01 255.721Z" fill="#5B5EE1" stroke="#0C0D46" stroke-width="2.5" stroke-miterlimit="10" stroke-linecap="round" stroke-linejoin="round"/>
<path d="M416.65 227.279C417.3 230.249 417.68 233.319 417.75 236.499C417.76 237.049 417.75 237.609 417.74 238.159C412.06 236.869 406.45 238.789 401.27 241.669C400.23 238.109 398.84 234.639 397.16 231.279C403.37 228.109 409.95 225.799 416.65 227.279Z" fill="#272ABF" stroke="#0C0D46" stroke-width="2.5" stroke-miterlimit="10" stroke-linecap="round" stroke-linejoin="round"/>
<path d="M403.82 202.25C410.73 210.17 414.51 217.47 416.65 227.28C409.95 225.8 403.37 228.11 397.17 231.28C394.6 226.13 393.55 223.9 389.72 219.48" fill="#5B5EE1"/>
<path d="M403.82 202.25C410.73 210.17 414.51 217.47 416.65 227.28C409.95 225.8 403.37 228.11 397.17 231.28C394.6 226.13 393.55 223.9 389.72 219.48" stroke="#0C0D46" stroke-width="2.5" stroke-miterlimit="10" stroke-linecap="round" stroke-linejoin="round"/>
<path d="M413.63 255.518C410.41 254.718 406.94 254.998 403.88 256.288C403.78 256.328 403.65 256.368 403.59 256.288C403.52 256.208 403.71 256.088 403.71 256.198" stroke="#0C0D46" stroke-width="1.5" stroke-miterlimit="10" stroke-linecap="round" stroke-linejoin="round"/>
<path d="M513.19 225.398C529.35 241.888 541.65 263.418 549.55 285.638C553.46 296.638 556.4 307.988 558.29 319.508C559.6 327.448 560.76 336.348 557.76 344.058C554.51 352.378 545.36 357.938 537 360.318C530.33 362.218 523.31 362.538 516.39 362.228" stroke="#0C0D46" stroke-width="1.5" stroke-miterlimit="10" stroke-linecap="round" stroke-linejoin="round"/>
<path d="M487.7 257.348C486.43 250.378 486.53 243.108 488 236.168C494.88 236.178 500.83 239.848 506.04 244.528C503.17 249.668 500.98 255.128 499.6 260.818C498.26 266.318 497.67 272.028 497.98 277.848C498.01 278.498 497.2 278.808 496.8 278.288C492.09 272.198 489.08 264.948 487.7 257.348Z" fill="#5B5EE1" stroke="#0C0D46" stroke-width="2.5" stroke-miterlimit="10" stroke-linecap="round" stroke-linejoin="round"/>
<path d="M492.12 223.918C490.59 227.168 489.34 230.598 488.43 234.248C488.27 234.878 488.14 235.528 488.01 236.168C494.89 236.178 500.84 239.848 506.05 244.528C508.18 240.708 510.69 237.068 513.5 233.638C507.19 228.348 500.22 223.968 492.12 223.918Z" fill="#272ABF" stroke="#0C0D46" stroke-width="2.5" stroke-miterlimit="10" stroke-linecap="round" stroke-linejoin="round"/>
<path d="M512.21 198.879C502.18 206.189 497.15 213.179 492.12 223.919C500.22 223.969 507.19 228.349 513.5 233.639C517.81 228.379 520.53 225.499 526.09 221.409" fill="#5B5EE1"/>
<path d="M512.21 198.879C502.18 206.189 497.15 213.179 492.12 223.919C500.22 223.969 507.19 228.349 513.5 233.639C517.81 228.379 520.53 225.499 526.09 221.409" stroke="#0C0D46" stroke-width="2.5" stroke-miterlimit="10" stroke-linecap="round" stroke-linejoin="round"/>
<path d="M488.19 257.218C492.1 257.148 496.03 258.378 499.21 260.658C499.31 260.728 499.45 260.808 499.55 260.728C499.65 260.658 499.46 260.468 499.43 260.588" stroke="#0C0D46" stroke-width="1.5" stroke-miterlimit="10" stroke-linecap="round" stroke-linejoin="round"/>
<path opacity="0.2" d="M523.09 225.189C537.36 238.379 546.59 256.339 554.36 273.889C563.63 294.849 574.59 322.349 568.21 345.469C566.5 351.659 563.01 357.539 557.66 361.079C552.5 364.499 546.15 365.469 540.02 366.359C533.66 367.279 527.19 368.189 520.75 368.409C515.45 368.599 510.35 368.059 505.13 367.789C499.71 367.499 494.58 367.659 489.43 365.559C483.75 363.239 478.81 358.249 478.15 352.159C484.48 358.589 494.42 359.349 503.44 359.699C516.1 360.179 530.08 360.169 539.66 351.879C545.28 347.019 548.54 339.789 549.5 332.419C551.31 318.459 544.93 305.619 540.19 292.879C536.39 282.639 532.01 272.259 524.98 263.769C521.76 259.889 517.44 255.409 513.05 252.859C509.38 250.729 503.29 252.729 501.55 256.989C504.73 249.199 507.83 243.139 512.71 236.399C513.42 235.409 521.67 223.679 523.09 225.189Z" fill="#272ABF"/>
<path d="M525.39 368.65H433.83C430.97 368.65 428.64 366.31 428.64 363.46V360.35C428.64 357.49 430.98 355.16 433.83 355.16H525.39C528.25 355.16 530.58 357.5 530.58 360.35V363.46C530.58 366.31 528.25 368.65 525.39 368.65Z" fill="#5B5EE1" stroke="#0C0D46" stroke-width="2.5" stroke-miterlimit="10" stroke-linecap="round" stroke-linejoin="round"/>
<path d="M448.41 370.149H306.19C300.92 370.149 296.62 365.839 296.62 360.579V246.699C296.62 241.429 300.93 237.129 306.19 237.129H448.4C453.67 237.129 457.97 241.439 457.97 246.699V360.579C457.98 365.839 453.68 370.149 448.41 370.149Z" fill="#5B5EE1" stroke="#0C0D46" stroke-width="2.5" stroke-miterlimit="10" stroke-linecap="round" stroke-linejoin="round"/>
<path d="M353.39 330.23C352.81 331.34 353.64 332.67 354.91 332.68C355.56 332.69 356.16 332.33 356.46 331.76L366.72 311.85L375.1 295.56C375.75 294.31 377.58 294.33 378.19 295.59L386.21 312.06L396.06 332.19C396.35 332.77 396.94 333.14 397.59 333.15C398.87 333.16 399.71 331.86 399.16 330.73L389.23 310.49L378.28 287.97C377.67 286.71 375.83 286.69 375.19 287.94L363.76 310.21L353.39 330.23ZM346.87 331.67L362.05 302.75L375.32 277.35C375.97 276.11 377.77 276.13 378.4 277.38L391.11 303.06L405.65 332.31C405.94 332.89 406.53 333.25 407.17 333.26C408.44 333.27 409.29 331.96 408.73 330.83L394.13 301.46L378.46 269.82C377.84 268.57 376.03 268.55 375.38 269.79L359.02 301.08L343.8 330.12C343.21 331.24 344.03 332.57 345.31 332.58C345.98 332.59 346.57 332.24 346.87 331.67ZM374.98 307.02L362.96 330.35C362.38 331.47 363.21 332.79 364.48 332.8H364.49C365.15 332.81 365.75 332.45 366.04 331.88L374.89 314.68C375.54 313.43 377.37 313.45 377.98 314.71L386.47 332.1C386.76 332.68 387.35 333.05 388 333.06H388.01C389.28 333.07 390.13 331.77 389.58 330.64L378.07 307.06C377.46 305.8 375.63 305.78 374.98 307.02ZM353.39 330.23C352.81 331.34 353.64 332.67 354.91 332.68C355.56 332.69 356.16 332.33 356.46 331.76L366.72 311.85L375.1 295.56C375.75 294.31 377.58 294.33 378.19 295.59L386.21 312.06L396.06 332.19C396.35 332.77 396.94 333.14 397.59 333.15C398.87 333.16 399.71 331.86 399.16 330.73L389.23 310.49L378.28 287.97C377.67 286.71 375.83 286.69 375.19 287.94L363.76 310.21L353.39 330.23Z" fill="white"/>
</svg>
