<svg width="562" height="759" viewBox="0 0 562 759" fill="none" xmlns="http://www.w3.org/2000/svg">
<path opacity="0.57" d="M375.843 5.88404C369.119 2.84648 361.734 0.898672 353.484 0.409574C340.23 -0.379848 326.753 -0.259718 313.918 2.87223C293.717 7.78895 274.687 23.8949 260.912 37.9929C246.245 53.0005 237.018 71.6634 228.415 90.0261C218.817 110.508 207.144 133.976 180.144 137.082C169.857 138.267 159.347 136.233 149.106 137.709C130.681 140.36 118.042 156.054 114.182 172.195C112.805 177.944 112.535 183.873 111.447 189.682C108.285 206.594 99.4956 223.867 93.7291 240.111C86.9766 259.108 79.6475 277.694 76.3829 297.567C65.1382 366.109 123.79 444.699 204.196 440.246C220.64 439.336 235.986 432.712 251.881 428.696C275.747 422.673 298.506 427.564 316.662 443.241C328.604 453.555 336.24 467.67 348.759 477.383C384.326 504.996 426.17 483.209 446.893 451.212C459.626 431.554 465.29 408.609 467.615 385.81C472.982 333.134 452.938 280.302 464.137 228.312C469.643 202.759 475.586 177.892 482.022 152.502C488.412 127.335 485.519 104.836 463.458 86.9456C446.948 73.5598 433.797 64.387 421.018 47.6719C408.861 31.7719 395.291 14.6449 375.843 5.88404Z" fill="#424156"/>
<path d="M282.262 83.4343C280.68 72.5044 275.22 64.5511 268.374 60.207C268.113 60.0396 267.778 60.207 267.713 60.5047C265.862 68.4952 266.653 78.6624 270.29 86.4575C273.853 85.1273 278.978 83.6855 282.783 83.8436C282.345 83.2297 282.373 84.1878 282.262 83.4343Z" fill="#FFEAD4" stroke="#0C0D46" stroke-width="1.425" stroke-miterlimit="10" stroke-linecap="round" stroke-linejoin="round"/>
<path d="M268.234 60.6719C268.057 68.0298 269.676 75.1459 272.029 82.1132" stroke="#0C0D46" stroke-width="1.425" stroke-miterlimit="10" stroke-linecap="round" stroke-linejoin="round"/>
<path d="M270.15 61.75C272.095 68.5126 274.085 75.3682 277.769 81.3681" stroke="#0C0D46" stroke-width="1.425" stroke-miterlimit="10" stroke-linecap="round" stroke-linejoin="round"/>
<path d="M293.313 172.62C287.732 155.941 282.058 140.276 277.648 123.254C274.328 110.435 270.811 98.8077 269.546 87.0871C269.351 85.3104 269.239 83.4313 270.011 81.8221C271.835 78.0082 277.695 78.0082 280.923 80.7337C284.151 83.4593 285.453 87.7568 286.783 91.766C293.453 111.933 304.597 130.602 319.182 146.044" fill="white"/>
<path d="M293.313 172.62C287.732 155.941 282.058 140.276 277.648 123.254C274.328 110.435 270.811 98.8077 269.546 87.0871C269.351 85.3104 269.239 83.4313 270.011 81.8221C271.835 78.0082 277.695 78.0082 280.923 80.7337C284.151 83.4593 285.453 87.7568 286.783 91.766C293.453 111.933 304.597 130.602 319.182 146.044" stroke="#0C0D46" stroke-width="1.425" stroke-miterlimit="10" stroke-linecap="round" stroke-linejoin="round"/>
<path d="M271.351 94.1013C271.816 91.0316 273.797 88.1573 276.634 86.9015C279.471 85.6457 283.099 86.1853 285.248 88.4178" stroke="#0C0D46" stroke-width="1.425" stroke-miterlimit="10" stroke-linecap="round" stroke-linejoin="round"/>
<path d="M449.466 117.202C449.466 117.192 449.457 117.183 449.457 117.174C440.908 119.239 434.611 128.941 432.806 137.797C432.927 137.424 439.011 140.01 439.411 140.187C440.322 140.587 443.82 142.903 444.666 142.373C445.048 142.141 445.262 141.713 445.401 141.285C447.178 135.89 447.838 133.536 448.48 129.536C449.057 125.983 450.35 120.709 449.466 117.202Z" fill="#FFEAD4" stroke="#0C0D46" stroke-width="1.425" stroke-miterlimit="10" stroke-linecap="round" stroke-linejoin="round"/>
<path d="M438.006 134.131C439.644 127.192 442.713 120.931 448.862 117.043" stroke="#0C0D46" stroke-width="1.425" stroke-miterlimit="10" stroke-linecap="round" stroke-linejoin="round"/>
<path d="M443.374 134.775C443.187 129.501 446.583 122.98 449.55 118.785" stroke="#0C0D46" stroke-width="1.425" stroke-miterlimit="10" stroke-linecap="round" stroke-linejoin="round"/>
<path d="M375.869 549.134C401.489 549.134 422.258 528.365 422.258 502.745C422.258 477.125 401.489 456.355 375.869 456.355C350.249 456.355 329.479 477.125 329.479 502.745C329.479 528.365 350.249 549.134 375.869 549.134Z" fill="#5B5EE1" stroke="#0C0D46" stroke-width="1.425" stroke-miterlimit="10" stroke-linecap="round"/>
<path d="M422.054 509.702C418.221 535.172 394.38 552.771 368.911 548.929C356.576 547.069 345.702 540.52 338.289 530.483C330.875 520.446 327.824 508.121 329.684 495.786C331.545 483.452 338.093 472.578 348.13 465.164C358.167 457.75 370.492 454.699 382.827 456.56C395.161 458.42 406.036 464.969 413.449 475.006C420.072 483.982 423.226 494.782 422.482 505.796C422.389 507.098 422.249 508.4 422.054 509.702ZM338.791 530.111C346.102 540.018 356.828 546.474 369.004 548.315C381.171 550.148 393.329 547.134 403.236 539.823C413.142 532.511 419.598 521.786 421.44 509.609C423.272 497.433 420.258 485.284 412.947 475.378C405.636 465.471 394.91 459.015 382.734 457.174C370.567 455.341 358.409 458.355 348.502 465.666C338.596 472.978 332.14 483.703 330.298 495.88C330.103 497.163 329.963 498.447 329.88 499.731C329.154 510.595 332.252 521.256 338.791 530.111Z" fill="#5B5EE1" stroke="#0C0D46" stroke-width="1.425" stroke-miterlimit="10" stroke-linecap="round"/>
<g opacity="0.3">
<path opacity="0.3" d="M382.427 548.469C381.385 548.599 380.344 548.692 379.292 548.738C373.237 549.027 367.144 548.673 361.432 546.664C354.344 546.664 346.837 538.013 340.931 534.906C346.596 524.488 355.851 516.06 366.763 511.409C377.674 506.758 390.157 505.884 401.599 508.991C405.515 504.284 406.91 495.121 407.599 489.261C408.659 480.154 407.989 468.35 399.329 462.945C404.352 466.08 409.217 470.145 412.817 474.768C415.887 478.722 417.915 483.056 419.589 487.782C420.575 490.582 421.477 493.447 421.803 496.396C421.98 497.986 422.138 499.67 422.184 501.279C422.463 512.618 418.622 523.865 411.292 532.525C403.971 541.176 393.59 547.083 382.427 548.469Z" fill="#0C0D46"/>
</g>
<g opacity="0.3">
<path opacity="0.3" d="M351.2 520.394C355.531 520.394 359.042 516.883 359.042 512.553C359.042 508.222 355.531 504.711 351.2 504.711C346.869 504.711 343.358 508.222 343.358 512.553C343.358 516.883 346.869 520.394 351.2 520.394Z" fill="#0C0D46"/>
<path opacity="0.3" d="M361.451 487.305C364.739 487.305 367.404 484.64 367.404 481.352C367.404 478.064 364.739 475.398 361.451 475.398C358.163 475.398 355.498 478.064 355.498 481.352C355.498 484.64 358.163 487.305 361.451 487.305Z" fill="#0C0D46"/>
<path opacity="0.3" d="M407.673 490.177C409.831 490.177 411.58 488.428 411.58 486.27C411.58 484.112 409.831 482.363 407.673 482.363C405.515 482.363 403.766 484.112 403.766 486.27C403.766 488.428 405.515 490.177 407.673 490.177Z" fill="#0C0D46"/>
<path opacity="0.3" d="M383.738 512.489C389.343 512.489 393.887 507.945 393.887 502.34C393.887 496.735 389.343 492.191 383.738 492.191C378.133 492.191 373.59 496.735 373.59 502.34C373.59 507.945 378.133 512.489 383.738 512.489Z" fill="#0C0D46"/>
</g>
<path d="M350.968 520.482C355.375 520.482 358.949 516.909 358.949 512.501C358.949 508.093 355.375 504.52 350.968 504.52C346.56 504.52 342.986 508.093 342.986 512.501C342.986 516.909 346.56 520.482 350.968 520.482Z" stroke="#0C0D46" stroke-width="1.425" stroke-miterlimit="10" stroke-linecap="round"/>
<path d="M361.302 487.513C364.801 487.513 367.637 484.677 367.637 481.178C367.637 477.68 364.801 474.844 361.302 474.844C357.803 474.844 354.967 477.68 354.967 481.178C354.967 484.677 357.803 487.513 361.302 487.513Z" stroke="#0C0D46" stroke-width="1.425" stroke-miterlimit="10" stroke-linecap="round"/>
<path d="M407.505 490.25C409.802 490.25 411.663 488.388 411.663 486.092C411.663 483.795 409.802 481.934 407.505 481.934C405.209 481.934 403.347 483.795 403.347 486.092C403.347 488.388 405.209 490.25 407.505 490.25Z" stroke="#0C0D46" stroke-width="1.425" stroke-miterlimit="10" stroke-linecap="round"/>
<path d="M383.636 512.466C389.303 512.466 393.896 507.872 393.896 502.206C393.896 496.539 389.303 491.945 383.636 491.945C377.97 491.945 373.376 496.539 373.376 502.206C373.376 507.872 377.97 512.466 383.636 512.466Z" stroke="#0C0D46" stroke-width="1.425" stroke-miterlimit="10" stroke-linecap="round"/>
<path d="M320.762 740.156C312.232 739.625 306.028 740.258 297.963 742.304C290.652 744.155 282.736 743.876 275.601 741.458C266.252 738.286 261.304 732.388 250.122 733.895C241.323 735.086 234.262 740.825 225.342 742.156C218.886 743.123 211.686 741.709 207.314 737.002C205.342 734.872 203.984 732.137 201.519 730.565C197.808 728.184 192.896 729.17 188.589 730.249C171.836 734.416 157.837 744.5 141.149 749.793C138.358 750.676 134.34 750.955 133.409 748.248C132.842 746.593 133.958 744.835 135.279 743.653C136.6 742.472 138.209 741.514 139.084 739.988C139.958 738.463 139.642 736.091 137.93 735.57C133.121 734.1 122.377 741.867 117.921 743.607C110.638 746.444 102.982 748.602 95.0847 748.769C93.2801 748.807 91.1779 748.583 90.2105 747.114C89.6616 746.276 89.6337 745.207 89.8012 744.23C90.8151 738.556 97.9684 733.97 95.8847 728.575C94.4336 724.826 89.4477 723.905 85.3269 723.933C73.7365 724.007 62.1833 727.086 52.1743 732.76C46.3326 736.072 40.5746 740.379 33.812 740.556C31.4678 740.611 28.6307 739.718 28.1749 737.486C27.9052 736.156 29.0121 734.658 30.0446 733.765C37.0491 727.682 40.8909 723.756 48.472 716.51C55.6067 709.682 64.4716 705.012 73.0016 699.961C92.0058 688.706 112.48 679.878 133.586 673.05C174.562 659.804 217.937 653.916 261.034 652.995C262.708 652.958 264.392 652.939 266.066 652.921C311.302 652.586 357.273 660.204 399.142 677.041C420.713 685.72 441.262 696.985 459.456 711.245C466.359 716.659 474.619 720.221 480.898 726.435C483.595 729.105 486.423 732.677 486.321 736.63C486.181 741.886 483.214 744.258 478.842 746.732C474.926 748.946 470.238 750.416 465.912 751.616C463.242 752.351 460.182 752.741 457.41 752.639C455.912 752.583 453.977 752.695 453.522 751.011C453.112 749.513 454.582 748.034 455.717 747.411C458.535 745.886 469.01 744.555 468.628 739.904C468.191 734.732 445.085 744.128 442.192 744.965C438.145 746.128 433.559 747.234 429.904 745.197C427.634 743.932 426.146 741.644 423.978 740.221C415.225 734.463 403.588 745.644 393.374 743.002C390.984 742.379 388.826 741.021 386.398 740.593C382.817 739.96 379.254 741.411 375.766 742.425C358.008 747.532 339.199 741.309 320.762 740.156Z" fill="#5B5EE1"/>
<path d="M26.2217 736.997C55.3744 706.803 93.1129 686.292 133.316 673.297C174.292 660.05 217.668 654.162 260.764 653.241C262.439 653.204 264.122 653.185 265.797 653.167C311.033 652.832 357.004 660.45 398.872 677.287C415.625 684.022 431.746 692.319 446.648 702.375C460.787 711.919 475.931 719.081 487 732.467" stroke="#0C0D46" stroke-width="1.425" stroke-miterlimit="10" stroke-linecap="round" stroke-linejoin="round"/>
<path opacity="0.15" d="M330.604 658.579C284.912 652.961 241.314 654.254 195.743 659.314C112.731 668.532 63.2998 706.55 63.2998 706.55C74.1088 711.424 94.9734 711.554 106.722 709.973C107.959 709.806 109.224 709.601 110.443 709.843C111.885 710.122 113.131 710.987 114.359 711.787C134.768 725.098 162.432 726.391 183.994 715.043C189.269 712.271 194.468 708.717 200.412 708.438C203.705 708.28 206.942 709.155 210.161 709.871C224.012 712.94 238.756 713.117 252.56 709.657C259.415 707.936 266.066 705.294 272.066 701.555C277.555 698.141 282.28 690.904 289.043 690.597C292.01 690.467 294.94 691.155 297.88 691.62C318.846 694.978 338.009 686.355 352.455 671.667C354.818 674.03 359.729 675.769 362.966 675.928C369.264 676.235 378.51 676.402 382.073 670.588C381.914 670.746 365.72 665.453 364.492 665.119C353.162 662.002 341.888 659.965 330.604 658.579Z" fill="#0C0D46"/>
<path d="M225.231 548.683L200.748 606.979H246.318L266.225 547.13C252.188 543.614 237.742 542.283 225.231 548.683Z" fill="#393F5B"/>
<path d="M376.39 188.703L225.231 548.684C237.752 542.284 252.198 543.624 266.225 547.131L384.687 190.908L376.39 188.703Z" fill="#444968"/>
<path d="M51.8121 522.444C47.0866 520.081 41.7472 519.811 36.3799 520.853L17.9897 549.541L57.8677 553.336L84.1461 506.137C71.1232 502.649 56.8724 510.63 51.8121 522.444Z" fill="#393F5B"/>
<path d="M262.42 168.297L36.3799 520.855C41.7472 519.813 47.0866 520.083 51.812 522.446C56.8724 510.632 71.1231 502.651 84.146 506.139L270.16 172.018L262.42 168.297Z" fill="#444968"/>
<path d="M467.484 222.729C478.057 222.729 486.628 214.158 486.628 203.585C486.628 193.012 478.057 184.441 467.484 184.441C456.912 184.441 448.341 193.012 448.341 203.585C448.341 214.158 456.912 222.729 467.484 222.729Z" fill="#FDFDFF" stroke="#272ABF" stroke-width="1.9" stroke-miterlimit="10" stroke-linecap="round" stroke-linejoin="round"/>
<path d="M467.317 218.206C475.398 218.206 481.949 211.655 481.949 203.574C481.949 195.492 475.398 188.941 467.317 188.941C459.236 188.941 452.685 195.492 452.685 203.574C452.685 211.655 459.236 218.206 467.317 218.206Z" fill="#FDFDFF" stroke="#272ABF" stroke-width="1.9" stroke-miterlimit="10" stroke-linecap="round" stroke-linejoin="round"/>
<path d="M476.172 210.34C476.34 210.526 476.2 210.824 475.949 210.814L462.145 210.07C461.996 210.061 461.857 209.996 461.754 209.884L459.178 207.01C459.01 206.824 459.15 206.526 459.401 206.535L473.205 207.28C473.354 207.289 473.493 207.354 473.596 207.466L476.172 210.34Z" fill="#272ABF"/>
<path d="M476.721 200.152C476.889 200.338 476.749 200.636 476.498 200.627L462.694 199.883C462.545 199.873 462.405 199.808 462.303 199.697L459.726 196.822C459.559 196.636 459.699 196.339 459.95 196.348L473.754 197.092C473.903 197.101 474.042 197.166 474.145 197.278L476.721 200.152Z" fill="#272ABF"/>
<path d="M459.317 204.284C459.131 204.451 459.233 204.758 459.494 204.777L473.298 205.521C473.447 205.53 473.596 205.474 473.707 205.381L476.582 202.805C476.768 202.637 476.665 202.33 476.405 202.312L462.601 201.567C462.452 201.558 462.303 201.614 462.191 201.707L459.317 204.284Z" fill="#272ABF"/>
<g opacity="0.8">
<path opacity="0.8" d="M405.439 302.517C413.659 302.517 420.323 295.853 420.323 287.633C420.323 279.413 413.659 272.75 405.439 272.75C397.22 272.75 390.556 279.413 390.556 287.633C390.556 295.853 397.22 302.517 405.439 302.517Z" fill="#FDFDFF" stroke="#272ABF" stroke-width="1.9" stroke-miterlimit="10" stroke-linecap="round" stroke-linejoin="round"/>
<path opacity="0.8" d="M405.765 298.893C412.053 298.893 417.151 293.795 417.151 287.507C417.151 281.219 412.053 276.121 405.765 276.121C399.477 276.121 394.379 281.219 394.379 287.507C394.379 293.795 399.477 298.893 405.765 298.893Z" fill="#FDFDFF" stroke="#272ABF" stroke-width="1.9" stroke-miterlimit="10" stroke-linecap="round" stroke-linejoin="round"/>
<path opacity="0.8" d="M399.086 286.814C398.816 287.056 398.537 287.307 398.528 287.567L398.333 291.214C398.314 291.474 398.565 291.744 398.546 292.004L401.57 293.995C401.812 294.265 402.072 294.283 402.351 294.041L405.57 292.386C405.839 292.144 406.118 291.893 406.128 291.632L406.202 290.33L404.946 289.483L404.872 290.786C404.853 291.046 404.584 291.288 404.323 291.279L402.705 292.237C402.435 292.479 402.174 292.469 401.923 292.19L400.416 291.065C400.174 290.795 399.923 290.516 399.942 290.255L400.044 288.432C400.063 288.172 400.332 287.93 400.593 287.939L402.193 287.242C402.463 287 402.723 287.009 402.974 287.288L405.002 288.442L406.258 289.288L408.286 290.442C408.528 290.711 408.788 290.73 409.067 290.488L412.286 288.832C412.546 288.851 412.816 288.6 412.844 288.079L413.03 284.693C413.048 284.432 412.797 284.163 412.555 283.884L409.514 282.153C409.272 281.884 409.011 281.865 408.732 282.107L405.784 283.511C405.514 283.753 405.235 284.004 405.225 284.265L405.151 285.567L406.407 286.414L406.481 285.111C406.5 284.851 406.77 284.609 407.039 284.358L408.639 283.66C408.909 283.418 409.169 283.428 409.421 283.707L410.937 284.572C411.179 284.842 411.43 285.121 411.411 285.381L411.309 287.204C411.281 287.725 411.262 287.986 411.002 287.967L409.123 288.907C408.853 289.149 408.593 289.139 408.342 288.86L406.332 287.446L405.077 286.6L403.049 285.446C402.807 285.177 402.546 285.158 402.267 285.4L399.086 286.814Z" fill="#272ABF"/>
</g>
<g opacity="0.89">
<path opacity="0.89" d="M168.595 222.19C177.76 222.19 185.19 214.76 185.19 205.595C185.19 196.43 177.76 189 168.595 189C159.43 189 152 196.43 152 205.595C152 214.76 159.43 222.19 168.595 222.19Z" fill="#FDFDFF" stroke="#272ABF" stroke-width="1.9" stroke-miterlimit="10" stroke-linecap="round" stroke-linejoin="round"/>
<path opacity="0.89" d="M168.594 218.612C175.699 218.612 181.459 212.853 181.459 205.748C181.459 198.643 175.699 192.883 168.594 192.883C161.489 192.883 155.729 198.643 155.729 205.748C155.729 212.853 161.489 218.612 168.594 218.612Z" stroke="#272ABF" stroke-width="1.9" stroke-miterlimit="10" stroke-linecap="round" stroke-linejoin="round"/>
<g opacity="0.89">
<path opacity="0.89" d="M163.376 203.296L167.032 208.896L167.2 208.84L172.688 197.715L172.772 197.277L163.376 203.296Z" fill="#272ABF"/>
<path opacity="0.89" d="M169.702 203.5L167.032 208.896L173.702 208.393L172.762 197.277L169.702 203.5Z" fill="#272ABF"/>
<path opacity="0.89" d="M162.893 204.273L164.465 214.106L164.623 213.948L166.576 209.985L166.548 209.873L162.893 204.273Z" fill="#272ABF"/>
<path opacity="0.89" d="M173.218 209.371L166.549 209.873L164.465 214.106L173.218 209.371Z" fill="#272ABF"/>
</g>
</g>
<g opacity="0.7">
<path opacity="0.7" d="M315.6 61.1993C323.111 61.1993 329.199 55.1105 329.199 47.5996C329.199 40.0888 323.111 34 315.6 34C308.089 34 302 40.0888 302 47.5996C302 55.1105 308.089 61.1993 315.6 61.1993Z" fill="#FDFDFF" stroke="#272ABF" stroke-width="1.9" stroke-miterlimit="10" stroke-linecap="round" stroke-linejoin="round"/>
<path opacity="0.7" d="M315.674 58.2348C321.495 58.2348 326.213 53.5162 326.213 47.6955C326.213 41.8748 321.495 37.1562 315.674 37.1562C309.853 37.1562 305.135 41.8748 305.135 47.6955C305.135 53.5162 309.853 58.2348 315.674 58.2348Z" stroke="#272ABF" stroke-width="1.9" stroke-miterlimit="10" stroke-linecap="round" stroke-linejoin="round"/>
<g opacity="0.7">
<path opacity="0.7" d="M311.07 48.7705L316.27 50.51L316.353 50.3891L314.223 40.4452L314.046 40.1289L311.07 48.7705Z" fill="#272ABF"/>
<path opacity="0.7" d="M315.237 45.6822L316.27 50.51L320.307 46.7985L314.046 40.1289L315.237 45.6822Z" fill="#272ABF"/>
<path opacity="0.7" d="M311.256 49.6445L317.265 55.1607L317.284 54.9839L316.53 51.4398L316.456 51.384L311.256 49.6445Z" fill="#272ABF"/>
<path opacity="0.7" d="M320.493 47.6719L316.456 51.3834L317.265 55.16L320.493 47.6719Z" fill="#272ABF"/>
</g>
</g>
<path d="M173.688 212.976C174.212 212.976 174.636 212.551 174.636 212.027C174.636 211.503 174.212 211.078 173.688 211.078C173.164 211.078 172.739 211.503 172.739 212.027C172.739 212.551 173.164 212.976 173.688 212.976Z" fill="#C0C1F1"/>
<path d="M242.049 98.5695C242.573 98.5695 242.998 98.1447 242.998 97.6207C242.998 97.0967 242.573 96.6719 242.049 96.6719C241.525 96.6719 241.1 97.0967 241.1 97.6207C241.1 98.1447 241.525 98.5695 242.049 98.5695Z" fill="#C0C1F1"/>
<path d="M189.352 457.452C189.876 457.452 190.301 457.028 190.301 456.504C190.301 455.98 189.876 455.555 189.352 455.555C188.828 455.555 188.403 455.98 188.403 456.504C188.403 457.028 188.828 457.452 189.352 457.452Z" fill="#C0C1F1"/>
<path d="M249.64 442.722C250.164 442.722 250.589 442.297 250.589 441.773C250.589 441.249 250.164 440.824 249.64 440.824C249.116 440.824 248.691 441.249 248.691 441.773C248.691 442.297 249.116 442.722 249.64 442.722Z" fill="#C0C1F1"/>
<path d="M464.211 607.929C464.735 607.929 465.159 607.504 465.159 606.98C465.159 606.456 464.735 606.031 464.211 606.031C463.687 606.031 463.262 606.456 463.262 606.98C463.262 607.504 463.687 607.929 464.211 607.929Z" fill="#C0C1F1"/>
<path d="M431.932 357.28C432.456 357.28 432.881 356.856 432.881 356.332C432.881 355.808 432.456 355.383 431.932 355.383C431.408 355.383 430.983 355.808 430.983 356.332C430.983 356.856 431.408 357.28 431.932 357.28Z" fill="#C0C1F1"/>
<path d="M97.7369 84.8C98.2609 84.8 98.6857 84.3752 98.6857 83.8512C98.6857 83.3271 98.2609 82.9023 97.7369 82.9023C97.2129 82.9023 96.7881 83.3271 96.7881 83.8512C96.7881 84.3752 97.2129 84.8 97.7369 84.8Z" fill="#C0C1F1"/>
<path d="M293.313 21.1945C293.837 21.1945 294.261 20.7697 294.261 20.2457C294.261 19.7217 293.837 19.2969 293.313 19.2969C292.789 19.2969 292.364 19.7217 292.364 20.2457C292.364 20.7697 292.789 21.1945 293.313 21.1945Z" fill="#C0C1F1"/>
<path d="M428.137 69.1359C428.661 69.1359 429.086 68.7111 429.086 68.1871C429.086 67.6631 428.661 67.2383 428.137 67.2383C427.613 67.2383 427.188 67.6631 427.188 68.1871C427.188 68.7111 427.613 69.1359 428.137 69.1359Z" fill="#C0C1F1"/>
<path d="M81.6906 284.731C98.8752 284.731 112.806 270.8 112.806 253.615C112.806 236.431 98.8752 222.5 81.6906 222.5C64.5061 222.5 50.5752 236.431 50.5752 253.615C50.5752 270.8 64.5061 284.731 81.6906 284.731Z" fill="#7B7D9B" stroke="#0C0D46" stroke-width="0.950001" stroke-miterlimit="10" stroke-linecap="round" stroke-linejoin="round"/>
<path d="M97.4387 280.694C91.0482 284.424 83.6251 285.764 76.2486 284.461C68.0069 283.01 60.8257 278.434 56.0259 271.578C51.226 264.722 49.3842 256.415 50.8353 248.174C52.2864 239.932 56.863 232.751 63.7187 227.951C70.5743 223.151 78.8811 221.309 87.1227 222.761C95.3643 224.212 102.546 228.788 107.345 235.644C117.252 249.792 113.801 269.364 99.6526 279.271C98.9363 279.782 98.1922 280.257 97.4387 280.694ZM66.1558 226.9C65.4117 227.337 64.6768 227.802 63.9698 228.305C57.2072 233.039 52.6957 240.128 51.2632 248.258C49.8307 256.388 51.6446 264.592 56.3793 271.355C61.1141 278.117 68.2023 282.629 76.3323 284.061C84.4623 285.494 92.6574 283.68 99.4294 278.945C106.192 274.21 110.703 267.122 112.136 258.992C113.569 250.862 111.755 242.658 107.02 235.895C102.285 229.133 95.1969 224.621 87.0669 223.188C79.7834 221.895 72.4626 223.216 66.1558 226.9Z" fill="#7B7D9B" stroke="#0C0D46" stroke-width="0.950001" stroke-miterlimit="10" stroke-linecap="round" stroke-linejoin="round"/>
<g opacity="0.3">
<path opacity="0.3" d="M99.8848 247.807C99.6615 252.393 98.5918 256.933 96.5918 261.165C93.6245 267.444 88.8897 272.895 83.0759 276.69C77.9226 280.048 70.6297 283.174 64.8066 279.583C68.1926 281.667 72.0809 283.379 75.9319 284.151C79.2249 284.811 82.4341 284.737 85.7642 284.327C87.7363 284.086 89.7362 283.769 91.5966 283.081C92.6012 282.709 93.671 282.309 94.6384 281.853C101.531 278.635 107.14 272.97 110.154 265.984C113.438 258.375 113.661 249.519 110.331 241.938C108.694 238.217 106.666 234.664 103.754 231.826C101.048 229.194 96.4523 225.417 92.6757 224.738C93.6059 224.906 95.643 228.506 96.0058 229.24C98.8429 235.008 100.192 241.445 99.8848 247.807Z" fill="#0C0D46"/>
</g>
<path d="M80.1183 241.099C83.0774 241.099 85.4762 238.7 85.4762 235.741C85.4762 232.782 83.0774 230.383 80.1183 230.383C77.1591 230.383 74.7603 232.782 74.7603 235.741C74.7603 238.7 77.1591 241.099 80.1183 241.099Z" fill="#7B7D9B" stroke="#0C0D46" stroke-width="0.950001" stroke-miterlimit="10" stroke-linecap="round" stroke-linejoin="round"/>
<path opacity="0.3" d="M79.9878 240.806C82.7312 240.806 84.9551 238.582 84.9551 235.838C84.9551 233.095 82.7312 230.871 79.9878 230.871C77.2445 230.871 75.0205 233.095 75.0205 235.838C75.0205 238.582 77.2445 240.806 79.9878 240.806Z" fill="#0C0D46"/>
<path d="M64.397 255.549C66.7448 255.549 68.6481 253.646 68.6481 251.298C68.6481 248.95 66.7448 247.047 64.397 247.047C62.0493 247.047 60.146 248.95 60.146 251.298C60.146 253.646 62.0493 255.549 64.397 255.549Z" fill="#7B7D9B" stroke="#0C0D46" stroke-width="0.950001" stroke-miterlimit="10" stroke-linecap="round" stroke-linejoin="round"/>
<path opacity="0.3" d="M64.2211 255.286C66.425 255.286 68.2117 253.499 68.2117 251.295C68.2117 249.091 66.425 247.305 64.2211 247.305C62.0171 247.305 60.2305 249.091 60.2305 251.295C60.2305 253.499 62.0171 255.286 64.2211 255.286Z" fill="#0C0D46"/>
<path d="M83.6897 265.326C87.4914 265.326 90.5732 262.244 90.5732 258.442C90.5732 254.64 87.4914 251.559 83.6897 251.559C79.888 251.559 76.8062 254.64 76.8062 258.442C76.8062 262.244 79.888 265.326 83.6897 265.326Z" fill="#7B7D9B" stroke="#0C0D46" stroke-width="0.950001" stroke-miterlimit="10" stroke-linecap="round" stroke-linejoin="round"/>
<path opacity="0.3" d="M83.4947 264.983C87.0497 264.983 89.9317 262.102 89.9317 258.546C89.9317 254.991 87.0497 252.109 83.4947 252.109C79.9396 252.109 77.0576 254.991 77.0576 258.546C77.0576 262.102 79.9396 264.983 83.4947 264.983Z" fill="#0C0D46"/>
<path d="M307.508 144.91C293.192 158.464 280.457 174.165 272.718 192.444C265.974 208.379 257.602 232.062 273.36 245.429C286.681 256.721 307.117 263.251 324.177 257.363C344.111 250.48 345.535 220.211 354.083 201.588C359.041 190.779 363.897 177.849 368.074 167.617C369.339 164.51 370.074 161.04 371.45 157.673C355.907 144.92 335.702 137.841 315.433 136.176C312.977 139.227 310.382 142.185 307.508 144.91Z" fill="white" stroke="#0C0D46" stroke-width="1.425" stroke-miterlimit="10" stroke-linecap="round" stroke-linejoin="round"/>
<path d="M376.91 109.899C369.589 97.881 351.571 96.5601 341.655 105.276C331.599 114.113 325.125 125.834 316.846 136.178C336.167 137.759 355.431 144.512 370.24 156.67C376.435 141.471 386.305 125.331 376.91 109.899Z" fill="#D6A35F" stroke="#0C0D46" stroke-width="1.425" stroke-miterlimit="10" stroke-linecap="round" stroke-linejoin="round"/>
<path d="M363.338 161.098C377.105 160.605 390.649 157.954 403.542 153.089C411.998 149.889 422.816 145.052 429.011 138.494C431.43 135.926 434.109 133.285 437.56 132.55C442.713 131.452 446.666 136.215 446.35 141.164C445.959 147.387 442.853 153.507 438.369 157.805C413.337 181.786 379.719 194.753 346.074 203.097" fill="white"/>
<path d="M363.338 161.098C377.105 160.605 390.649 157.954 403.542 153.089C411.998 149.889 422.816 145.052 429.011 138.494C431.43 135.926 434.109 133.285 437.56 132.55C442.713 131.452 446.666 136.215 446.35 141.164C445.959 147.387 442.853 153.507 438.369 157.805C413.337 181.786 379.719 194.753 346.074 203.097" stroke="#0C0D46" stroke-width="1.425" stroke-miterlimit="10" stroke-linecap="round" stroke-linejoin="round"/>
<path d="M291.293 255.94C285.684 286.228 280.856 312.069 275.247 342.366C273.257 353.11 272.792 366.384 275.898 376.932C276.159 377.807 276.438 378.672 276.726 379.537C282.987 382.774 289.805 382.699 296.484 381.127C298.14 373.295 297.916 365.193 298.577 356.291C299.814 339.491 305.488 323.603 311.349 307.92C318.567 288.628 328.437 269.019 333.022 248.898" fill="white"/>
<path d="M291.293 255.94C285.684 286.228 280.856 312.069 275.247 342.366C273.257 353.11 272.792 366.384 275.898 376.932C276.159 377.807 276.438 378.672 276.726 379.537C282.987 382.774 289.805 382.699 296.484 381.127C298.14 373.295 297.916 365.193 298.577 356.291C299.814 339.491 305.488 323.603 311.349 307.92C318.567 288.628 328.437 269.019 333.022 248.898" stroke="#0C0D46" stroke-width="1.425" stroke-miterlimit="10" stroke-linecap="round" stroke-linejoin="round"/>
<path d="M273.778 364.945C277.788 368.927 284.02 370.508 289.443 368.908" stroke="#0C0D46" stroke-width="1.425" stroke-miterlimit="10" stroke-linecap="round" stroke-linejoin="round"/>
<path d="M268.951 210.441C237.147 242.487 183.66 311.239 183.66 311.239C175.902 316.141 171.986 319.108 167.028 325.62C168.693 332.187 172.488 338.578 177.567 343.117C181.586 341.163 185.474 338.754 189.306 335.852C225.194 308.662 251.621 285.221 281.099 251.185" fill="white"/>
<path d="M268.951 210.441C237.147 242.487 183.66 311.239 183.66 311.239C175.902 316.141 171.986 319.108 167.028 325.62C168.693 332.187 172.488 338.578 177.567 343.117C181.586 341.163 185.474 338.754 189.306 335.852C225.194 308.662 251.621 285.221 281.099 251.185" stroke="#0C0D46" stroke-width="1.425" stroke-miterlimit="10" stroke-linecap="round" stroke-linejoin="round"/>
<path d="M183.381 324.551C184.004 329.481 185.725 333.062 190.078 335.462" stroke="#0C0D46" stroke-width="1.425" stroke-miterlimit="10" stroke-linecap="round" stroke-linejoin="round"/>
<path d="M429.085 138.448C432.592 137.006 437.746 139.443 439.736 142.671C441.718 145.899 441.997 149.871 441.95 153.666" stroke="#0C0D46" stroke-width="1.425" stroke-miterlimit="10" stroke-linecap="round" stroke-linejoin="round"/>
<path d="M350.958 151.262C371.759 151.262 388.622 134.399 388.622 113.598C388.622 92.7964 371.759 75.9336 350.958 75.9336C330.156 75.9336 313.293 92.7964 313.293 113.598C313.293 134.399 330.156 151.262 350.958 151.262Z" fill="white" stroke="#0C0D46" stroke-width="1.425" stroke-miterlimit="10" stroke-linecap="round" stroke-linejoin="round"/>
<path d="M439.522 545.273C439.829 541.738 440.118 538.119 439.169 534.705C438.22 531.292 435.746 528.073 432.285 527.273C426.397 525.915 421.532 531.124 420.1 537.003C410.779 519.013 386.659 510.427 368.064 518.483C356.297 523.58 347.404 534.315 343.264 546.454C339.144 558.537 339.432 571.932 342.855 584.137C337.283 576.323 323.674 567.579 314.651 564.872C304.028 561.681 290.363 565.681 286.726 576.165C282.336 563.328 270.076 553.57 256.588 552.165C243.1 550.77 227.649 557.244 220.719 568.9C206.124 552.575 179.985 547.998 160.72 558.398C156.544 560.649 152.256 564.407 152.674 569.132C153.083 562.751 153.26 556.23 151.558 550.063C149.856 543.896 146.014 538.036 140.228 535.301C137.921 534.212 134.154 534.445 133.977 536.984C134.34 528.194 135.819 520.641 131.465 512.278C127.577 504.799 119.745 499.097 111.317 499.209C102.889 499.32 94.6664 506.26 94.4711 514.678C86.6945 508.52 74.8809 509.05 66.6486 514.594C58.4255 520.138 53.6163 529.831 52.3141 539.663C25.2543 521.078 -0.67987 559.561 18.7801 581.197C25.459 588.62 36.054 590.778 45.8863 592.527C36.6215 604.071 30.2774 621.317 36.1936 634.879C42.1097 648.451 55.914 658.218 70.6764 659.297C68.9741 669.288 78.0994 677.669 86.8713 682.757C99.0756 689.845 113.364 694.943 127.186 692.087C133.679 690.748 139.726 687.706 145.139 683.883C152.144 678.934 158.19 672.637 162.851 665.427C172.246 678.627 189.687 687.501 205.882 687.436C222.086 687.38 238.039 679.036 247.332 665.772C257.648 673.464 271.499 676.19 283.954 672.981C296.41 669.772 307.228 660.693 312.54 648.972C318.205 654.628 331.153 654.544 338.055 650.488C344.957 646.433 348.557 637.484 346.381 629.773C357.078 643.623 372.808 654.293 390.24 655.8C407.672 657.307 426.369 648.181 433.262 632.098C440.927 614.21 432.722 593.002 419.69 578.555C435.104 572.5 438.108 561.784 439.522 545.273Z" fill="#444968"/>
<path d="M186.515 584.926C196.087 586.572 205.063 591.642 211.296 599.102C219.389 589.828 234.588 586.405 238.504 598.135" stroke="#0C0D46" stroke-width="1.425" stroke-miterlimit="10" stroke-linecap="round" stroke-linejoin="round"/>
<path d="M154.479 593.375C161.781 587.366 168.311 584.203 178.748 584.203" stroke="#0C0D46" stroke-width="1.425" stroke-miterlimit="10" stroke-linecap="round" stroke-linejoin="round"/>
<path d="M143.446 607.066C144.544 604.992 145.772 603.029 147.121 601.188" stroke="#0C0D46" stroke-width="1.425" stroke-miterlimit="10" stroke-linecap="round" stroke-linejoin="round"/>
<path d="M285.722 650.711C297.786 650.516 308.623 639.465 308.586 627.391" stroke="#0C0D46" stroke-width="1.425" stroke-miterlimit="10" stroke-linecap="round" stroke-linejoin="round"/>
<path d="M369.273 259.965L359.776 290.345" stroke="#444968" stroke-width="1.425" stroke-miterlimit="10" stroke-linecap="round" stroke-linejoin="round"/>
<path d="M469.744 542.306C470.116 542.251 470.489 542.241 470.861 542.269C480.302 542.976 479.865 556.12 476.684 562.129C472.209 570.566 463.838 572.073 455.084 572.166C454.135 572.175 445.912 572.333 447.364 569.794C450.554 564.194 452.173 557.413 455.531 552.139C457.475 549.078 462.135 547.19 464.712 549.748C463.326 546.529 466.303 542.79 469.744 542.306Z" fill="#444968"/>
<path d="M433.523 581.213C431.263 583.045 435.579 590.31 436.965 591.864C439.123 594.273 443.141 594.626 444.676 591.408C446.044 588.543 444.806 585.176 442.295 583.315C440.286 581.827 436.174 579.464 433.653 581.138C433.607 581.157 433.56 581.185 433.523 581.213Z" fill="#444968"/>
<path d="M13.0508 601.475C14.1391 603.661 17.2832 604.127 19.4134 603.773C24.8458 602.889 26.083 596.908 21.0041 594.406C17.6553 592.759 11.7206 594.583 12.1392 599.066C12.2136 599.931 12.595 600.741 13.0508 601.475Z" fill="#444968"/>
<path d="M276.727 379.527C278.848 385.695 281.918 391.508 285.034 397.248C285.48 398.066 286.085 398.997 287.015 399.043C287.899 399.09 288.587 398.327 289.108 397.62C293.182 392.132 295.303 386.699 296.485 381.118C289.806 382.69 282.987 382.764 276.727 379.527Z" fill="#FFEAD4" stroke="#0C0D46" stroke-width="1.425" stroke-miterlimit="10" stroke-linecap="round" stroke-linejoin="round"/>
<path d="M283.406 381.973C285.424 387.312 286.048 393.061 286.652 398.735" stroke="#0C0D46" stroke-width="1.425" stroke-miterlimit="10" stroke-linecap="round" stroke-linejoin="round"/>
<path d="M291.443 382.688C291.806 388.027 291.089 392.976 288.922 397.868Z" fill="#FFEAD4"/>
<path d="M291.443 382.688C291.806 388.027 291.089 392.976 288.922 397.868" stroke="#0C0D46" stroke-width="1.425" stroke-miterlimit="10" stroke-linecap="round" stroke-linejoin="round"/>
<path d="M167.027 325.617C161.995 332.222 158.144 339.766 154.87 347.896C154.6 348.565 155.149 349.3 155.874 349.217C163.762 348.361 170.86 346.37 177.567 343.105C172.479 338.575 168.683 332.175 167.027 325.617Z" fill="#FFEAD4" stroke="#0C0D46" stroke-width="1.425" stroke-miterlimit="10" stroke-linecap="round" stroke-linejoin="round"/>
<path d="M155.325 346.996C159.074 341.34 163.753 336.299 169.111 332.141Z" fill="#FFEAD4"/>
<path d="M155.325 346.996C159.074 341.34 163.753 336.299 169.111 332.141" stroke="#0C0D46" stroke-width="1.425" stroke-miterlimit="10" stroke-linecap="round" stroke-linejoin="round"/>
<path d="M155.362 348.618C160.934 344.683 166.767 341.13 172.813 337.977" stroke="#0C0D46" stroke-width="1.425" stroke-miterlimit="10" stroke-linecap="round" stroke-linejoin="round"/>
<path d="M357.906 176.546C359.413 173.234 362.538 170.983 365.58 168.993C370.65 165.662 375.868 162.574 381.217 159.737C380.789 159.96 373.924 157.142 372.696 157.012C369.478 156.649 366.259 157.095 363.087 157.57C356.65 158.518 351.115 160.89 346.269 165.504" fill="#5B5EE1"/>
<path d="M357.906 176.546C359.413 173.234 362.538 170.983 365.58 168.993C370.65 165.662 375.868 162.574 381.217 159.737C380.789 159.96 373.924 157.142 372.696 157.012C369.478 156.649 366.259 157.095 363.087 157.57C356.65 158.518 351.115 160.89 346.269 165.504" stroke="#0C0D46" stroke-width="1.425" stroke-miterlimit="10" stroke-linecap="round" stroke-linejoin="round"/>
<path d="M298.698 153.476C300.754 145.736 303.08 139.532 303.759 131.56C303.963 129.151 304.131 126.658 303.759 126.574C307.331 128.928 311.926 133.272 313.489 137.253C315.051 141.244 315.144 147.513 315.861 151.727" fill="#5B5EE1"/>
<path d="M298.698 153.476C300.754 145.736 303.08 139.532 303.759 131.56C303.963 129.151 304.131 126.658 303.759 126.574C307.331 128.928 311.926 133.272 313.489 137.253C315.051 141.244 315.144 147.513 315.861 151.727" stroke="#0C0D46" stroke-width="1.425" stroke-miterlimit="10" stroke-linecap="round" stroke-linejoin="round"/>
<path d="M340.675 141.789L334.845 139.266L326.55 158.43L332.38 160.954L340.675 141.789Z" fill="#424EC1" stroke="#0C0D46" stroke-width="1.425" stroke-miterlimit="10" stroke-linecap="round" stroke-linejoin="round"/>
<path opacity="0.25" d="M426.313 156.547C431.969 151.477 437.495 145.329 438.248 137.766C438.415 136.129 438.183 134.185 436.769 133.338C439.122 131.989 442.667 133.199 444.397 135.301C446.118 137.394 446.508 140.352 445.978 143.022C445.448 145.682 444.099 148.101 442.639 150.398C430.369 169.644 406.202 181.049 385.645 189.374C380.036 191.644 374.417 193.904 368.641 195.755C363.71 197.336 358.306 198.443 353.711 200.871C349.822 216.955 345.199 234.991 334.567 248.024C331.023 252.368 329.618 257.874 327.963 263.111C326.102 269 323.6 274.693 321.284 280.413C312.13 302.989 302.531 326.077 298.456 350.291C296.633 361.1 298.568 370.439 296.01 381.099C291.071 382.699 284.047 383.052 279.341 380.876C278.857 380.652 278.364 380.401 278.001 380.011C277.536 379.518 277.313 378.857 277.108 378.215C275.834 374.16 275.062 369.946 274.82 365.695C278.345 367.685 282.513 369.723 286.261 368.188C290.708 366.374 291.871 360.737 292.419 355.974C295.052 333.017 298.698 311.036 305.163 288.869C315.321 254.014 326.93 219.745 344.911 188.081C360.045 190.546 373.031 187.039 386.938 181.281C401.309 175.328 414.714 166.956 426.313 156.547Z" fill="#272ABF"/>
<path d="M309.545 254.553L267.881 235.316C260.718 232.005 258.067 222.34 262.002 213.828L290.531 152.025C294.457 143.514 303.536 139.254 310.698 142.565L352.362 161.802C359.525 165.113 362.176 174.778 358.241 183.29L330.661 245.744C326.735 254.264 316.707 257.864 309.545 254.553Z" fill="#5B5EE1" stroke="#0C0D46" stroke-width="1.425" stroke-miterlimit="10" stroke-linecap="round" stroke-linejoin="round"/>
<path d="M298.921 195.131C298.419 195.549 298.54 196.349 299.145 196.619C299.461 196.759 299.824 196.703 300.084 196.489L309.098 189.019L316.465 182.908C317.032 182.443 317.907 182.824 317.944 183.559L318.428 193.121L319.032 204.814C319.051 205.149 319.256 205.447 319.572 205.586C320.186 205.856 320.856 205.4 320.818 204.749L320.195 192.991L319.544 179.922C319.507 179.187 318.632 178.806 318.065 179.271L308.009 187.633L298.921 195.131ZM295.498 194.48L308.726 183.689L320.307 174.201C320.874 173.736 321.739 174.117 321.776 174.843L322.623 189.791L323.618 206.833C323.637 207.168 323.851 207.465 324.158 207.595C324.762 207.865 325.441 207.4 325.404 206.749L324.409 189.642L323.367 171.224C323.33 170.499 322.465 170.117 321.897 170.583L307.619 182.275L294.354 193.112C293.842 193.531 293.963 194.331 294.577 194.6C294.875 194.74 295.238 194.694 295.498 194.48ZM314.056 188.396L303.498 197.14C302.986 197.559 303.117 198.359 303.721 198.628H303.73C304.047 198.768 304.409 198.712 304.67 198.507L312.446 192.052C313.014 191.587 313.888 191.968 313.926 192.703L314.437 202.805C314.456 203.14 314.66 203.437 314.977 203.577H314.986C315.591 203.847 316.27 203.391 316.232 202.74L315.535 189.047C315.498 188.322 314.623 187.931 314.056 188.396ZM298.921 195.131C298.419 195.549 298.54 196.349 299.145 196.619C299.461 196.759 299.824 196.703 300.084 196.489L309.098 189.019L316.465 182.908C317.032 182.443 317.907 182.824 317.944 183.559L318.428 193.121L319.032 204.814C319.051 205.149 319.256 205.447 319.572 205.586C320.186 205.856 320.856 205.4 320.818 204.749L320.195 192.991L319.544 179.922C319.507 179.187 318.632 178.806 318.065 179.271L308.009 187.633L298.921 195.131Z" fill="white"/>
<path d="M242.365 189.775C244.709 188.771 247.035 186.715 249.351 185.682C247.165 188.938 244.17 193.98 243.258 197.794C253.295 191.226 262.681 183.803 270.737 174.911C277.015 167.981 282.373 160.213 286.448 151.795C287.369 149.888 288.252 147.86 288.159 145.739C288.066 143.618 286.699 141.414 284.615 141.051C283.536 140.865 282.439 141.181 281.406 141.553C270.969 145.302 262.374 153.107 255.667 161.748C249.165 170.148 245.295 179.58 242.365 189.775Z" fill="#EDCDA4" stroke="#0C0D46" stroke-width="1.425" stroke-miterlimit="10" stroke-linecap="round" stroke-linejoin="round"/>
<path d="M289.806 140.957C287.797 149.627 283.081 157.654 276.476 163.626C277.109 161.189 278.132 158.854 279.49 156.733C274.16 164.956 267.221 172.119 259.174 177.719C258.374 171.979 261.844 166.584 265.342 161.961C268.365 157.971 271.546 154.092 274.858 150.343C271.341 151.645 267.965 153.329 264.811 155.347C266.495 147.45 274.011 142.408 280.904 138.204C281.909 136.083 285.164 136.12 287.332 137.022C289.499 137.925 290.336 138.669 289.806 140.957Z" fill="#D6A35F" stroke="#0C0D46" stroke-width="1.425" stroke-miterlimit="10" stroke-linecap="round" stroke-linejoin="round"/>
<path d="M363.06 246.22C364.697 244.062 365.776 240.937 367.376 238.769C367.06 242.927 366.939 249.16 368.101 253.16C373.934 241.811 378.715 230.035 381.506 217.579C383.673 207.877 384.557 197.887 383.906 187.961C383.757 185.71 383.515 183.375 382.315 181.468C381.115 179.562 378.696 178.231 376.576 178.994C375.478 179.385 374.631 180.259 373.869 181.143C366.185 190.082 362.325 201.812 360.669 213.319C359.05 224.509 360.418 235.253 363.06 246.22Z" fill="#EDCDA4" stroke="#0C0D46" stroke-width="1.425" stroke-miterlimit="10" stroke-linecap="round" stroke-linejoin="round"/>
<path d="M381.32 176.195C384.008 185.265 383.859 195.162 380.892 204.148C380.204 201.562 379.915 198.864 380.064 196.195C379.45 206.594 376.79 216.864 372.288 226.259C368.539 221.366 368.911 214.557 369.72 208.455C370.427 203.18 371.329 197.925 372.427 192.716C369.86 195.767 367.618 199.087 365.757 202.613C363.171 194.427 367.478 185.823 371.646 178.316C371.46 175.823 374.483 174.149 376.966 173.851C379.441 173.544 380.604 173.795 381.32 176.195Z" fill="#D6A35F" stroke="#0C0D46" stroke-width="1.425" stroke-miterlimit="10" stroke-linecap="round" stroke-linejoin="round"/>
<path opacity="0.25" d="M275.043 245.965C278.122 248.374 280.69 250.476 284.289 252.067C282.438 251.518 281.573 251.248 280.038 252.448C278.876 253.36 277.89 254.541 276.95 255.667C275.164 257.816 273.657 260.234 271.769 262.29C268.048 266.336 264.244 270.308 260.365 274.206C252.718 281.899 244.765 289.285 236.551 296.373C231.919 300.363 179.492 346.148 176.544 342.576C173.316 338.679 170.758 334.511 168.804 329.879C169.781 332.214 175.344 330.325 176.674 329.581C179.269 328.13 181.353 325.702 183.101 323.358C183.129 325.377 183.595 327.377 184.46 329.2C185.241 330.846 186.664 332.511 188.497 332.409C193.994 332.111 197.603 324.949 201.073 321.433C224.328 297.861 250.504 276.28 268.55 248.058C269.62 246.383 270.783 244.737 271.49 242.867C271.834 243.193 274.671 245.676 275.043 245.965Z" fill="#272ABF"/>
<path opacity="0.25" d="M374.966 98C375.469 105.581 373.543 113.144 370.706 120.195C364.967 134.446 356.79 148.64 340.549 149.785C340.344 149.803 337.377 148.129 337.312 147.943C337.246 147.757 340.391 149.329 340.307 149.515C348.427 150.668 358.027 151.385 365.553 148.129C379.05 142.306 387.822 127.702 387.961 112.976C388.119 96.9116 377.692 85.8701 366.604 79.4609C372.157 83.2469 374.548 91.656 374.966 98Z" fill="#272ABF"/>
<path d="M383.757 170.679C385.273 161.656 381.617 151.666 374.994 145.452C363.385 134.568 349.637 125.313 334.158 121.052C327.377 119.183 319.452 118.187 311.74 118.736C299.526 119.601 287.834 124.327 282.039 135.573C283.266 138.661 286.327 140.764 289.676 142.075C292.494 139.964 295.155 136.633 298.15 135.945C305.35 134.289 315.861 137.126 322.893 138.857C337.935 142.568 352.148 150.8 364.66 159.758C367.925 162.093 371.199 165.181 371.99 169.293C372.259 170.707 372.101 172.381 371.98 174.056C374.399 177.228 378.296 177.86 382.027 177.023C382.966 174.688 383.506 172.149 383.757 170.679Z" fill="#5B5EE1"/>
<path d="M378.138 178.009C375.376 177.776 373.041 176.567 371.441 174.474C371.339 174.344 371.292 174.176 371.301 174.009L371.339 173.534C371.45 172.037 371.552 170.623 371.32 169.423C370.706 166.223 368.464 163.33 364.269 160.316C349.153 149.488 335.563 142.679 322.735 139.517L321.396 139.182C314.438 137.452 304.903 135.08 298.308 136.605C296.438 137.033 294.587 138.707 292.801 140.317C291.927 141.107 291.015 141.926 290.094 142.614C289.899 142.754 289.648 142.791 289.434 142.707C286.578 141.591 282.866 139.489 281.406 135.814C281.332 135.628 281.341 135.424 281.434 135.247C288.094 122.317 301.564 118.745 311.694 118.038C318.959 117.527 326.996 118.354 334.344 120.382C348.372 124.243 362.204 132.512 375.469 144.94C382.343 151.395 385.952 161.777 384.436 170.781C384.25 171.86 383.72 174.66 382.678 177.264C382.594 177.478 382.408 177.627 382.185 177.683C380.771 178.018 379.413 178.12 378.138 178.009ZM372.697 173.841C374.641 176.223 377.831 177.162 381.534 176.427C382.436 174.046 382.91 171.553 383.078 170.567C384.52 162 381.078 152.102 374.52 145.954C361.423 133.675 347.786 125.517 333.972 121.712C326.772 119.731 318.893 118.913 311.787 119.415C302.085 120.103 289.22 123.471 282.801 135.6C284.094 138.503 287.108 140.27 289.564 141.284C290.336 140.679 291.117 139.982 291.871 139.293C293.796 137.563 295.778 135.768 297.992 135.256C304.912 133.666 314.633 136.075 321.721 137.842L323.051 138.177C336.056 141.386 349.795 148.251 365.06 159.191C367.897 161.218 371.766 164.465 372.659 169.153C372.92 170.53 372.808 172.102 372.697 173.618V173.841Z" fill="#0C0D46"/>
<path d="M371.989 174.059C371.776 177.045 371.71 180.04 374.464 181.621C378.203 183.77 380.594 180.644 382.036 177.026C378.306 177.872 374.408 177.231 371.989 174.059Z" fill="#D3895F"/>
<path d="M376.445 183.004C375.692 182.939 374.911 182.678 374.12 182.222C370.855 180.353 371.115 176.688 371.301 174.018C371.32 173.73 371.515 173.488 371.794 173.404C372.073 173.32 372.362 173.423 372.539 173.646C374.529 176.26 377.934 177.246 381.887 176.353C382.138 176.297 382.399 176.381 382.566 176.576C382.734 176.771 382.78 177.041 382.678 177.283C381.469 180.315 379.952 182.167 378.176 182.781C377.617 182.976 377.041 183.05 376.445 183.004ZM372.594 175.73C372.539 178.074 372.901 179.934 374.808 181.032C375.878 181.646 376.836 181.795 377.72 181.488C378.873 181.088 379.952 179.869 380.892 177.943C377.599 178.371 374.687 177.599 372.594 175.73Z" fill="#0C0D46"/>
<path d="M282.048 135.57C281.992 135.682 281.927 135.794 281.871 135.905C280.271 139.114 280.271 142.463 284.02 143.617C286.057 144.249 287.899 143.403 289.675 142.072C286.327 140.761 283.276 138.659 282.048 135.57Z" fill="#D3895F"/>
<path d="M284.95 144.502C284.578 144.474 284.196 144.399 283.815 144.278C282.196 143.776 281.089 142.874 280.541 141.59C279.676 139.553 280.448 137.209 281.248 135.599C281.285 135.525 281.322 135.46 281.359 135.386L281.424 135.255C281.545 135.013 281.796 134.874 282.066 134.883C282.345 134.883 282.578 135.069 282.671 135.32C283.945 138.53 287.313 140.418 289.917 141.432C290.15 141.525 290.317 141.73 290.345 141.981C290.382 142.232 290.271 142.474 290.075 142.623C288.847 143.553 287.043 144.669 284.95 144.502ZM282.066 137.162C281.471 138.688 281.378 140.046 281.815 141.051C282.196 141.944 283.006 142.585 284.224 142.967C285.471 143.348 286.745 143.125 288.243 142.223C286.01 141.19 283.536 139.581 282.066 137.162Z" fill="#0C0D46"/>
<path d="M386.725 132.955C389.758 126.354 388.716 119.394 384.398 117.41C380.08 115.426 374.12 119.169 371.088 125.77C368.055 132.371 369.097 139.331 373.415 141.315C377.733 143.299 383.692 139.556 386.725 132.955Z" fill="#C9C5E6" stroke="#0C0D46" stroke-width="1.425" stroke-miterlimit="10" stroke-linecap="round" stroke-linejoin="round"/>
<path d="M386.464 133.174C388.918 127.834 388.349 122.329 385.193 120.879C382.037 119.429 377.49 122.583 375.036 127.924C372.582 133.264 373.152 138.769 376.307 140.219C379.463 141.669 384.011 138.515 386.464 133.174Z" fill="#C9C5E6" stroke="#0C0D46" stroke-width="1.425" stroke-miterlimit="10" stroke-linecap="round" stroke-linejoin="round"/>
<path d="M375.078 252.871C374.529 256.238 373.971 259.615 373.422 262.982" stroke="#444968" stroke-width="1.425" stroke-miterlimit="10" stroke-linecap="round" stroke-linejoin="round"/>
<path d="M238.551 193.02C234.114 199.233 229.677 205.456 225.24 211.67" stroke="#444968" stroke-width="1.425" stroke-miterlimit="10" stroke-linecap="round" stroke-linejoin="round"/>
<path d="M260.718 194.938C259.909 197.663 258.849 200.314 257.556 202.854" stroke="#444968" stroke-width="1.425" stroke-miterlimit="10" stroke-linecap="round" stroke-linejoin="round"/>
<path d="M238.533 182.562C236.542 185 234.552 187.437 232.561 189.874" stroke="#444968" stroke-width="1.425" stroke-miterlimit="10" stroke-linecap="round" stroke-linejoin="round"/>
<path d="M227.463 195.538C227.993 195.008 228.523 194.487 229.054 193.957" stroke="#444968" stroke-width="1.425" stroke-miterlimit="10" stroke-linecap="round" stroke-linejoin="round"/>
<path d="M372.92 270.73C372.706 272.526 372.492 274.321 372.278 276.107" stroke="#444968" stroke-width="1.425" stroke-miterlimit="10" stroke-linecap="round" stroke-linejoin="round"/>
<path d="M444.126 513.648L388.055 705.522C387.036 709.008 383.353 711.02 379.876 710.001C376.389 708.982 374.378 705.298 375.397 701.821L431.467 509.947C432.486 506.46 436.169 504.449 439.647 505.468C443.124 506.487 445.145 510.17 444.126 513.648Z" fill="#A06D35" stroke="#0C0D46" stroke-width="2" stroke-miterlimit="10" stroke-linecap="round" stroke-linejoin="round"/>
<path d="M347.737 704.984C347.737 704.984 370.793 691.977 402.288 718.68Z" fill="#5B5EE1"/>
<path d="M347.737 704.984C347.737 704.984 370.793 691.977 402.288 718.68" stroke="#0C0D46" stroke-width="1.5" stroke-miterlimit="10" stroke-linecap="round" stroke-linejoin="round"/>
<path d="M560.29 501.158L342.75 438L310 550.805L527.54 613.962L560.29 501.158Z" fill="#272ABF" stroke="#0C0D46" stroke-width="1.5" stroke-miterlimit="10" stroke-linecap="round" stroke-linejoin="round"/>
<path d="M379.945 497.352L378.397 496.911L375.298 486.743C375.219 486.488 375.168 486.23 375.145 485.968L375.1 485.956C375.075 486.197 374.954 486.697 374.739 487.453L372.521 495.237L371.259 494.877L374.328 484.103L375.966 484.57L378.953 494.559C379.079 494.974 379.155 495.256 379.183 495.405L379.213 495.413C379.252 495.088 379.377 494.553 379.59 493.806L381.752 486.218L383.014 486.577L379.945 497.352ZM385.769 499.206C384.632 498.882 383.825 498.265 383.348 497.354C382.877 496.44 382.811 495.39 383.149 494.203C383.517 492.91 384.158 492.002 385.071 491.477C385.984 490.951 387.042 490.86 388.244 491.203C389.391 491.529 390.184 492.137 390.624 493.026C391.069 493.916 391.113 494.988 390.757 496.24C390.407 497.467 389.779 498.352 388.871 498.895C387.97 499.435 386.936 499.538 385.769 499.206ZM387.858 492.214C387.067 491.988 386.364 492.08 385.749 492.49C385.135 492.895 384.694 493.57 384.424 494.517C384.164 495.429 384.192 496.214 384.508 496.873C384.824 497.531 385.373 497.972 386.155 498.195C386.951 498.421 387.636 498.338 388.208 497.943C388.786 497.55 389.21 496.877 389.482 495.925C389.756 494.964 389.751 494.161 389.469 493.517C389.192 492.875 388.655 492.441 387.858 492.214ZM395.211 501.619C394.875 501.697 394.469 501.668 393.993 501.532C392.646 501.148 392.186 500.205 392.614 498.702L393.911 494.149L392.589 493.772L392.888 492.721L394.211 493.097L394.746 491.219L396.091 491.172L395.443 493.448L397.381 494L397.082 495.052L395.143 494.5L393.908 498.835C393.761 499.351 393.744 499.745 393.857 500.015C393.969 500.285 394.228 500.478 394.634 500.594C394.945 500.682 395.237 500.673 395.511 500.567L395.211 501.619ZM402.343 503.732L401.111 503.381L401.453 502.179L401.423 502.17C400.624 502.939 399.704 503.175 398.662 502.878C397.896 502.66 397.353 502.286 397.032 501.756C396.717 501.228 396.655 500.628 396.846 499.957C397.256 498.519 398.341 497.924 400.101 498.171L402.5 498.505C402.872 497.197 402.53 496.393 401.473 496.092C400.546 495.828 399.62 495.905 398.694 496.324L399.053 495.061C399.947 494.796 400.887 494.804 401.873 495.085C403.682 495.6 404.313 496.814 403.768 498.728L402.343 503.732ZM402.219 499.489L400.291 499.216C399.697 499.133 399.225 499.153 398.876 499.276C398.529 499.393 398.281 499.71 398.134 500.226C398.027 500.602 398.072 500.948 398.269 501.264C398.473 501.576 398.797 501.796 399.243 501.923C399.854 502.097 400.418 502.028 400.935 501.714C401.459 501.398 401.814 500.911 402.001 500.255L402.219 499.489ZM409.052 505.643L412.122 494.869L415.187 495.742C416.119 496.007 416.793 496.446 417.209 497.057C417.625 497.668 417.729 498.34 417.521 499.071C417.347 499.682 417.03 500.166 416.571 500.523C416.112 500.879 415.565 501.07 414.93 501.095L414.921 501.125C415.623 501.417 416.126 501.858 416.429 502.448C416.733 503.033 416.78 503.696 416.569 504.438C416.306 505.359 415.763 506.011 414.939 506.394C414.115 506.777 413.2 506.825 412.193 506.538L409.052 505.643ZM413.059 496.37L412.068 499.849L413.36 500.217C414.051 500.414 414.642 500.404 415.132 500.186C415.623 499.963 415.955 499.548 416.128 498.942C416.426 497.895 415.886 497.176 414.509 496.783L413.059 496.37ZM411.744 500.984L410.64 504.861L412.353 505.349C413.094 505.56 413.718 505.548 414.224 505.313C414.734 505.079 415.077 504.657 415.251 504.046C415.613 502.773 414.928 501.89 413.195 501.397L411.744 500.984ZM424.9 506.331L419.468 504.784C419.244 505.646 419.286 506.373 419.594 506.964C419.902 507.556 420.442 507.961 421.213 508.181C422.08 508.428 422.957 508.369 423.846 508.005L423.517 509.162C422.701 509.461 421.737 509.451 420.625 509.135C419.538 508.825 418.783 508.234 418.36 507.36C417.939 506.482 417.908 505.409 418.269 504.142C418.61 502.945 419.226 502.067 420.116 501.508C421.013 500.946 421.965 500.808 422.972 501.095C423.978 501.382 424.665 501.929 425.03 502.737C425.396 503.546 425.414 504.528 425.084 505.685L424.9 506.331ZM423.935 504.927C424.133 504.215 424.118 503.612 423.89 503.119C423.667 502.628 423.255 502.297 422.654 502.125C422.073 501.96 421.52 502.027 420.996 502.327C420.472 502.628 420.066 503.1 419.78 503.744L423.935 504.927ZM432.149 512.223L430.917 511.872L432.167 507.484C432.632 505.851 432.269 504.864 431.076 504.525C430.46 504.349 429.883 504.437 429.345 504.787C428.813 505.134 428.446 505.66 428.245 506.366L426.995 510.754L425.763 510.403L427.954 502.709L429.187 503.06L428.823 504.338L428.853 504.346C429.711 503.54 430.691 503.294 431.793 503.608C432.634 503.847 433.2 504.304 433.49 504.977C433.782 505.645 433.782 506.492 433.489 507.519L432.149 512.223ZM441.67 511.109L436.238 509.561C436.014 510.423 436.056 511.15 436.364 511.742C436.672 512.333 437.212 512.739 437.983 512.958C438.85 513.205 439.728 513.147 440.617 512.782L440.287 513.94C439.471 514.238 438.507 514.229 437.395 513.912C436.308 513.602 435.553 513.011 435.13 512.138C434.709 511.259 434.679 510.187 435.04 508.919C435.381 507.722 435.996 506.844 436.887 506.285C437.783 505.723 438.735 505.585 439.742 505.872C440.749 506.159 441.435 506.706 441.8 507.515C442.166 508.323 442.184 509.305 441.854 510.462L441.67 511.109ZM440.705 509.705C440.903 508.992 440.888 508.389 440.66 507.896C440.437 507.405 440.025 507.074 439.424 506.903C438.843 506.737 438.29 506.804 437.766 507.105C437.242 507.405 436.837 507.877 436.55 508.521L440.705 509.705ZM447.173 504.853L444.825 512.552L443.811 512.263L445.88 504.485L447.173 504.853ZM443.434 515.583C443.203 515.518 443.028 515.381 442.909 515.174C442.794 514.968 442.769 514.75 442.835 514.519C442.901 514.289 443.037 514.116 443.243 514.002C443.455 513.883 443.676 513.857 443.907 513.923C444.132 513.987 444.304 514.125 444.422 514.338C444.542 514.545 444.569 514.764 444.503 514.994C444.438 515.225 444.299 515.397 444.088 515.51C443.877 515.623 443.659 515.647 443.434 515.583ZM467.136 510.54L461.024 520.448L459.544 520.026L459.57 511.52C459.571 511.158 459.617 510.776 459.71 510.374L459.68 510.366C459.544 510.728 459.376 511.07 459.176 511.392L454.698 518.646L453.232 518.228L453.146 506.555L454.536 506.951L454.473 515.868C454.47 516.241 454.427 516.619 454.345 517.002L454.383 517.013C454.484 516.754 454.664 516.416 454.924 515.997L459.66 508.41L460.87 508.755L460.783 517.731C460.781 518.039 460.746 518.392 460.676 518.789L460.706 518.797C460.8 518.543 460.966 518.216 461.204 517.818L465.769 510.15L467.136 510.54ZM472.1 519.777L466.668 518.229C466.444 519.092 466.486 519.818 466.794 520.41C467.102 521.001 467.642 521.407 468.413 521.627C469.28 521.873 470.158 521.815 471.047 521.451L470.717 522.608C469.901 522.906 468.937 522.897 467.825 522.58C466.738 522.27 465.983 521.679 465.56 520.806C465.139 519.928 465.109 518.855 465.47 517.588C465.811 516.39 466.427 515.512 467.317 514.954C468.213 514.391 469.165 514.254 470.172 514.54C471.179 514.827 471.865 515.375 472.231 516.183C472.596 516.991 472.614 517.974 472.284 519.131L472.1 519.777ZM471.136 518.373C471.333 517.66 471.318 517.057 471.09 516.565C470.867 516.073 470.455 515.742 469.854 515.571C469.273 515.405 468.72 515.473 468.196 515.773C467.672 516.073 467.267 516.545 466.981 517.189L471.136 518.373ZM483.407 526.824L482.175 526.473L482.522 525.255L482.491 525.247C481.715 526.033 480.791 526.273 479.719 525.968C477.886 525.446 477.28 524.093 477.902 521.909L479.212 517.311L480.437 517.659L479.183 522.062C478.72 523.685 479.11 524.674 480.353 525.028C480.954 525.199 481.51 525.119 482.021 524.788C482.539 524.453 482.9 523.928 483.104 523.212L484.366 518.779L485.599 519.13L483.407 526.824ZM485.515 527.124L485.892 525.801C486.422 526.488 487.09 526.947 487.896 527.176C488.978 527.485 489.622 527.278 489.827 526.557C489.886 526.351 489.888 526.165 489.832 525.998C489.783 525.827 489.695 525.663 489.566 525.507C489.442 525.353 489.284 525.203 489.093 525.056C488.909 524.906 488.707 524.748 488.489 524.583C488.187 524.351 487.925 524.13 487.703 523.921C487.487 523.708 487.316 523.491 487.189 523.271C487.069 523.047 486.995 522.812 486.968 522.566C486.945 522.321 486.976 522.051 487.06 521.756C487.163 521.395 487.336 521.1 487.58 520.872C487.825 520.639 488.112 520.468 488.44 520.362C488.77 520.25 489.124 520.196 489.501 520.201C489.884 520.207 490.263 520.264 490.639 520.371C491.305 520.56 491.869 520.845 492.329 521.226L491.974 522.473C491.513 521.941 490.915 521.57 490.178 521.36C489.948 521.295 489.732 521.263 489.531 521.265C489.332 521.263 489.151 521.29 488.988 521.346C488.831 521.404 488.695 521.49 488.582 521.604C488.475 521.714 488.398 521.85 488.352 522.01C488.295 522.21 488.283 522.388 488.314 522.543C488.351 522.7 488.424 522.851 488.535 522.996C488.645 523.141 488.788 523.285 488.964 523.427C489.14 523.569 489.342 523.727 489.569 523.9C489.872 524.127 490.139 524.349 490.37 524.567C490.602 524.779 490.788 525 490.928 525.23C491.07 525.454 491.159 525.693 491.195 525.947C491.236 526.203 491.212 526.486 491.124 526.796C491.015 527.177 490.836 527.483 490.586 527.715C490.341 527.949 490.051 528.118 489.718 528.223C489.385 528.329 489.023 528.375 488.631 528.361C488.24 528.347 487.844 528.282 487.443 528.168C486.652 527.943 486.009 527.595 485.515 527.124ZM499.63 527.619L494.198 526.071C493.974 526.934 494.016 527.661 494.324 528.252C494.632 528.843 495.172 529.249 495.943 529.469C496.81 529.716 497.688 529.657 498.577 529.293L498.247 530.45C497.431 530.748 496.467 530.739 495.355 530.422C494.268 530.112 493.513 529.521 493.09 528.648C492.669 527.77 492.639 526.697 493 525.43C493.341 524.232 493.956 523.354 494.847 522.796C495.743 522.233 496.695 522.096 497.702 522.382C498.709 522.669 499.395 523.217 499.76 524.025C500.126 524.833 500.144 525.816 499.814 526.973L499.63 527.619ZM498.665 526.215C498.863 525.502 498.848 524.899 498.62 524.407C498.397 523.915 497.985 523.584 497.384 523.413C496.803 523.247 496.25 523.315 495.726 523.615C495.202 523.915 494.797 524.387 494.51 525.031L498.665 526.215ZM507.06 533.561L505.828 533.21L506.2 531.903L506.17 531.894C505.316 532.724 504.294 532.968 503.101 532.629C502.135 532.353 501.459 531.79 501.073 530.938C500.694 530.083 500.673 529.061 501.011 527.874C501.374 526.602 501.985 525.674 502.844 525.09C503.704 524.506 504.667 524.367 505.734 524.67C506.791 524.972 507.441 525.606 507.685 526.575L507.715 526.583L509.072 521.82L510.305 522.171L507.06 533.561ZM506.819 529.732L507.142 528.597C507.319 527.976 507.263 527.391 506.975 526.844C506.687 526.296 506.228 525.932 505.596 525.752C504.845 525.538 504.175 525.645 503.588 526.074C503 526.502 502.568 527.202 502.291 528.174C502.038 529.06 502.044 529.82 502.308 530.453C502.578 531.082 503.061 531.496 503.757 531.695C504.444 531.89 505.07 531.801 505.637 531.426C506.209 531.053 506.603 530.488 506.819 529.732ZM350.758 511.068C349.621 510.744 348.814 510.127 348.336 509.217C347.866 508.303 347.799 507.252 348.138 506.065C348.506 504.773 349.146 503.864 350.06 503.339C350.973 502.814 352.03 502.722 353.233 503.065C354.38 503.391 355.173 503.999 355.613 504.888C356.058 505.779 356.102 506.85 355.746 508.102C355.396 509.329 354.767 510.214 353.86 510.757C352.959 511.297 351.925 511.4 350.758 511.068ZM352.847 504.076C352.056 503.85 351.352 503.943 350.738 504.352C350.124 504.757 349.682 505.433 349.413 506.379C349.153 507.291 349.181 508.076 349.497 508.735C349.813 509.394 350.362 509.834 351.143 510.057C351.94 510.284 352.624 510.2 353.197 509.805C353.775 509.412 354.199 508.739 354.47 507.788C354.744 506.826 354.74 506.023 354.458 505.38C354.18 504.737 353.644 504.303 352.847 504.076ZM358.189 511.787L358.159 511.779L356.834 516.43L355.602 516.079L358.801 504.846L360.034 505.197L359.648 506.549L359.678 506.558C360.576 505.709 361.608 505.45 362.775 505.783C363.767 506.065 364.442 506.632 364.801 507.481C365.162 508.326 365.177 509.327 364.848 510.484C364.481 511.771 363.874 512.714 363.027 513.312C362.181 513.905 361.214 514.047 360.127 513.737C359.131 513.453 358.484 512.803 358.189 511.787ZM359.043 508.676L358.737 509.75C358.555 510.386 358.607 510.986 358.89 511.549C359.181 512.108 359.644 512.478 360.28 512.659C361.026 512.872 361.691 512.753 362.275 512.301C362.863 511.852 363.302 511.118 363.592 510.102C363.836 509.245 363.829 508.517 363.572 507.919C363.314 507.32 362.848 506.925 362.171 506.732C361.455 506.528 360.808 506.614 360.229 506.991C359.652 507.363 359.257 507.924 359.043 508.676ZM372.848 513.339L367.416 511.792C367.192 512.654 367.234 513.381 367.542 513.972C367.85 514.564 368.39 514.969 369.161 515.189C370.028 515.436 370.905 515.377 371.794 515.013L371.465 516.17C370.649 516.469 369.685 516.459 368.573 516.143C367.486 515.833 366.731 515.242 366.308 514.368C365.887 513.49 365.856 512.417 366.217 511.15C366.558 509.953 367.174 509.075 368.064 508.516C368.961 507.954 369.913 507.816 370.92 508.103C371.926 508.39 372.613 508.937 372.978 509.745C373.344 510.554 373.362 511.536 373.032 512.693L372.848 513.339ZM371.883 511.935C372.081 511.223 372.066 510.62 371.838 510.127C371.615 509.636 371.203 509.305 370.602 509.133C370.021 508.968 369.468 509.035 368.944 509.335C368.42 509.636 368.014 510.108 367.728 510.752L371.883 511.935ZM380.097 519.231L378.865 518.88L380.115 514.492C380.58 512.859 380.217 511.872 379.024 511.533C378.408 511.357 377.831 511.445 377.293 511.795C376.761 512.142 376.394 512.668 376.193 513.374L374.943 517.762L373.711 517.411L375.902 509.717L377.135 510.068L376.771 511.346L376.801 511.354C377.659 510.548 378.639 510.302 379.741 510.616C380.582 510.855 381.148 511.312 381.438 511.985C381.73 512.653 381.73 513.5 381.437 514.527L380.097 519.231ZM387.447 517.214L383.344 516.045L383.62 515.076L387.723 516.244L387.447 517.214ZM388.201 521.238L388.578 519.916C389.108 520.603 389.776 521.061 390.582 521.291C391.664 521.599 392.308 521.393 392.513 520.672C392.572 520.466 392.574 520.28 392.518 520.112C392.47 519.942 392.381 519.778 392.252 519.622C392.128 519.468 391.97 519.317 391.779 519.171C391.595 519.021 391.393 518.863 391.175 518.698C390.873 518.466 390.611 518.245 390.389 518.035C390.173 517.822 390.002 517.606 389.875 517.386C389.755 517.162 389.681 516.927 389.654 516.681C389.631 516.436 389.662 516.166 389.746 515.87C389.849 515.51 390.022 515.215 390.266 514.987C390.511 514.753 390.798 514.583 391.126 514.476C391.456 514.365 391.81 514.311 392.188 514.316C392.57 514.322 392.95 514.378 393.325 514.485C393.991 514.675 394.555 514.96 395.015 515.34L394.66 516.588C394.199 516.056 393.601 515.685 392.865 515.475C392.634 515.41 392.418 515.378 392.217 515.38C392.018 515.377 391.837 515.404 391.674 515.461C391.517 515.519 391.382 515.605 391.268 515.719C391.161 515.829 391.084 515.965 391.039 516.125C390.981 516.325 390.969 516.503 391 516.658C391.037 516.815 391.11 516.966 391.221 517.111C391.331 517.256 391.474 517.4 391.65 517.542C391.826 517.684 392.028 517.842 392.255 518.015C392.558 518.242 392.825 518.464 393.056 518.682C393.288 518.894 393.474 519.115 393.614 519.344C393.756 519.569 393.845 519.808 393.881 520.062C393.922 520.317 393.898 520.6 393.81 520.911C393.702 521.292 393.522 521.598 393.272 521.83C393.027 522.063 392.738 522.233 392.404 522.338C392.071 522.444 391.709 522.489 391.317 522.475C390.926 522.461 390.53 522.397 390.129 522.283C389.338 522.058 388.695 521.709 388.201 521.238ZM398.289 524.608C397.152 524.284 396.345 523.666 395.868 522.756C395.397 521.842 395.33 520.792 395.669 519.605C396.037 518.312 396.677 517.403 397.591 516.878C398.504 516.353 399.561 516.262 400.764 516.604C401.911 516.931 402.704 517.539 403.144 518.428C403.589 519.318 403.633 520.389 403.277 521.642C402.927 522.869 402.299 523.754 401.391 524.297C400.49 524.836 399.456 524.94 398.289 524.608ZM400.378 517.615C399.587 517.39 398.884 517.482 398.269 517.892C397.655 518.297 397.213 518.972 396.944 519.919C396.684 520.831 396.712 521.616 397.028 522.274C397.344 522.933 397.893 523.374 398.674 523.596C399.471 523.823 400.155 523.739 400.728 523.345C401.306 522.951 401.73 522.279 402.001 521.327C402.275 520.365 402.271 519.563 401.989 518.919C401.711 518.277 401.175 517.842 400.378 517.615ZM410.362 527.852L409.13 527.501L409.477 526.283L409.446 526.275C408.67 527.061 407.746 527.301 406.674 526.996C404.841 526.474 404.235 525.121 404.857 522.937L406.167 518.338L407.392 518.687L406.138 523.09C405.675 524.713 406.065 525.702 407.308 526.056C407.909 526.227 408.465 526.147 408.976 525.816C409.494 525.481 409.855 524.956 410.059 524.24L411.321 519.807L412.554 520.158L410.362 527.852ZM418.705 523.259C418.537 523.032 418.25 522.861 417.844 522.745C417.318 522.595 416.807 522.718 416.31 523.112C415.818 523.508 415.45 524.135 415.206 524.991L414.089 528.913L412.857 528.562L415.048 520.868L416.28 521.219L415.829 522.805L415.859 522.813C416.188 522.322 416.576 521.978 417.022 521.78C417.47 521.577 417.917 521.539 418.363 521.666C418.683 521.758 418.919 521.863 419.069 521.981L418.705 523.259ZM423.551 531.227C422.859 531.414 422.107 531.392 421.296 531.161C420.199 530.849 419.413 530.24 418.94 529.337C418.473 528.429 418.401 527.407 418.725 526.27C419.086 525.002 419.739 524.089 420.683 523.53C421.629 522.965 422.708 522.855 423.921 523.201C424.597 523.393 425.157 523.688 425.602 524.086L425.242 525.348C424.785 524.785 424.231 524.41 423.58 524.225C422.794 524.001 422.067 524.1 421.4 524.522C420.739 524.94 420.278 525.607 420.017 526.524C419.76 527.426 419.793 528.204 420.115 528.859C420.443 529.516 421.005 529.957 421.801 530.184C422.473 530.375 423.167 530.332 423.885 530.055L423.551 531.227ZM432.506 530.333L427.074 528.786C426.85 529.648 426.892 530.375 427.2 530.967C427.508 531.558 428.048 531.963 428.819 532.183C429.686 532.43 430.563 532.371 431.452 532.007L431.123 533.164C430.307 533.463 429.343 533.453 428.231 533.137C427.144 532.827 426.389 532.236 425.966 531.362C425.545 530.484 425.514 529.411 425.875 528.144C426.216 526.947 426.832 526.069 427.722 525.51C428.619 524.948 429.571 524.81 430.578 525.097C431.584 525.384 432.271 525.931 432.636 526.739C433.002 527.548 433.02 528.53 432.69 529.687L432.506 530.333ZM431.541 528.929C431.739 528.217 431.724 527.614 431.496 527.121C431.273 526.63 430.861 526.299 430.26 526.127C429.679 525.962 429.126 526.029 428.602 526.329C428.078 526.63 427.672 527.102 427.386 527.746L431.541 528.929ZM434.984 533.013L432.729 536.367L431.849 536.117L433.782 532.671L434.984 533.013ZM440.541 536.148L440.917 534.825C441.447 535.512 442.116 535.971 442.922 536.201C444.004 536.509 444.648 536.302 444.853 535.581C444.912 535.376 444.913 535.189 444.858 535.022C444.809 534.851 444.72 534.687 444.592 534.532C444.468 534.377 444.31 534.227 444.119 534.08C443.934 533.93 443.733 533.773 443.515 533.607C443.212 533.375 442.95 533.154 442.728 532.945C442.513 532.732 442.342 532.515 442.215 532.295C442.095 532.071 442.021 531.836 441.993 531.59C441.971 531.345 442.002 531.075 442.086 530.78C442.189 530.419 442.362 530.125 442.606 529.896C442.851 529.663 443.138 529.493 443.466 529.386C443.796 529.274 444.15 529.22 444.527 529.225C444.91 529.231 445.289 529.288 445.665 529.395C446.331 529.585 446.894 529.87 447.355 530.25L446.999 531.497C446.539 530.965 445.941 530.594 445.204 530.385C444.974 530.319 444.758 530.287 444.557 530.29C444.358 530.287 444.177 530.314 444.014 530.37C443.857 530.429 443.721 530.515 443.608 530.628C443.5 530.739 443.424 530.874 443.378 531.034C443.321 531.235 443.309 531.412 443.34 531.568C443.377 531.724 443.45 531.875 443.56 532.02C443.671 532.165 443.814 532.309 443.99 532.451C444.166 532.594 444.368 532.751 444.595 532.924C444.898 533.151 445.165 533.374 445.396 533.591C445.628 533.803 445.814 534.024 445.954 534.254C446.096 534.478 446.185 534.717 446.221 534.971C446.262 535.227 446.238 535.51 446.15 535.82C446.041 536.201 445.862 536.507 445.612 536.739C445.367 536.973 445.077 537.142 444.744 537.248C444.411 537.353 444.048 537.399 443.657 537.385C443.266 537.371 442.87 537.307 442.469 537.193C441.677 536.967 441.035 536.619 440.541 536.148ZM450.629 539.517C449.492 539.193 448.685 538.576 448.207 537.666C447.737 536.752 447.67 535.701 448.008 534.514C448.377 533.222 449.017 532.313 449.93 531.788C450.844 531.263 451.901 531.171 453.103 531.514C454.25 531.84 455.044 532.448 455.484 533.337C455.929 534.228 455.973 535.299 455.616 536.551C455.267 537.778 454.638 538.663 453.731 539.206C452.83 539.746 451.796 539.849 450.629 539.517ZM452.718 532.525C451.926 532.299 451.223 532.392 450.608 532.801C449.995 533.206 449.553 533.882 449.284 534.828C449.024 535.74 449.052 536.525 449.368 537.184C449.684 537.842 450.233 538.283 451.014 538.506C451.811 538.733 452.495 538.649 453.068 538.254C453.646 537.861 454.07 537.188 454.341 536.237C454.615 535.275 454.611 534.472 454.329 533.829C454.051 533.186 453.514 532.752 452.718 532.525ZM464.294 543.133C463.957 543.211 463.551 543.182 463.075 543.046C461.728 542.662 461.268 541.719 461.696 540.216L462.993 535.663L461.671 535.286L461.971 534.235L463.293 534.611L463.828 532.733L465.174 532.686L464.525 534.962L466.464 535.514L466.164 536.566L464.226 536.014L462.991 540.349C462.844 540.865 462.827 541.259 462.939 541.529C463.052 541.799 463.311 541.992 463.716 542.108C464.027 542.196 464.319 542.187 464.593 542.081L464.294 543.133ZM472.304 545.496L471.072 545.145L472.335 540.712C472.791 539.109 472.424 538.138 471.231 537.799C470.63 537.627 470.058 537.716 469.515 538.065C468.973 538.409 468.598 538.944 468.391 539.67L467.15 544.028L465.918 543.677L469.162 532.286L470.395 532.637L468.978 537.611L469.008 537.62C469.876 536.817 470.856 536.571 471.948 536.882C473.681 537.375 474.25 538.666 473.655 540.755L472.304 545.496ZM481.825 544.382L476.393 542.835C476.169 543.697 476.211 544.424 476.519 545.015C476.827 545.607 477.367 546.012 478.138 546.232C479.005 546.479 479.883 546.42 480.772 546.056L480.442 547.213C479.626 547.512 478.662 547.502 477.55 547.186C476.463 546.876 475.708 546.285 475.285 545.411C474.864 544.533 474.834 543.46 475.195 542.193C475.536 540.996 476.151 540.118 477.042 539.559C477.938 538.997 478.89 538.859 479.897 539.146C480.904 539.433 481.59 539.98 481.955 540.788C482.321 541.597 482.339 542.579 482.009 543.736L481.825 544.382ZM480.86 542.978C481.058 542.266 481.043 541.663 480.815 541.17C480.592 540.679 480.18 540.348 479.579 540.176C478.998 540.011 478.445 540.078 477.921 540.378C477.397 540.679 476.992 541.151 476.705 541.795L480.86 542.978ZM488.537 543.151C488.368 542.924 488.081 542.753 487.676 542.637C487.15 542.487 486.638 542.61 486.141 543.004C485.649 543.4 485.281 544.027 485.037 544.883L483.92 548.805L482.688 548.454L484.88 540.76L486.112 541.111L485.66 542.697L485.69 542.705C486.02 542.214 486.408 541.87 486.854 541.672C487.302 541.469 487.748 541.431 488.194 541.558C488.515 541.65 488.75 541.755 488.901 541.873L488.537 543.151ZM495.229 548.201L489.797 546.653C489.573 547.516 489.615 548.242 489.923 548.834C490.231 549.425 490.771 549.831 491.543 550.051C492.409 550.297 493.287 550.239 494.176 549.875L493.846 551.032C493.03 551.33 492.066 551.321 490.954 551.004C489.867 550.694 489.112 550.103 488.69 549.23C488.268 548.351 488.238 547.279 488.599 546.011C488.94 544.814 489.556 543.936 490.446 543.378C491.343 542.815 492.294 542.678 493.301 542.964C494.308 543.251 494.994 543.799 495.36 544.607C495.725 545.415 495.743 546.397 495.414 547.555L495.229 548.201ZM494.265 546.797C494.462 546.084 494.447 545.481 494.219 544.989C493.996 544.497 493.584 544.166 492.983 543.995C492.402 543.829 491.85 543.897 491.325 544.197C490.801 544.497 490.396 544.969 490.11 545.613L494.265 546.797ZM505.822 555.044L504.59 554.693L504.933 553.491L504.903 553.483C504.104 554.252 503.184 554.488 502.142 554.191C501.376 553.973 500.832 553.598 500.512 553.069C500.197 552.54 500.135 551.94 500.326 551.269C500.736 549.831 501.82 549.236 503.581 549.483L505.979 549.817C506.352 548.51 506.009 547.705 504.952 547.404C504.026 547.14 503.099 547.218 502.173 547.636L502.533 546.374C503.426 546.108 504.366 546.116 505.353 546.397C507.161 546.912 507.793 548.127 507.248 550.04L505.822 555.044ZM505.699 550.801L503.77 550.528C503.176 550.446 502.705 550.466 502.356 550.588C502.008 550.706 501.761 551.023 501.614 551.538C501.507 551.914 501.552 552.26 501.749 552.576C501.952 552.889 502.277 553.108 502.723 553.235C503.334 553.409 503.898 553.34 504.415 553.027C504.938 552.71 505.294 552.224 505.481 551.568L505.699 550.801ZM513.993 550.402C513.824 550.175 513.537 550.004 513.132 549.889C512.606 549.739 512.094 549.861 511.597 550.256C511.106 550.652 510.738 551.278 510.494 552.135L509.376 556.057L508.144 555.706L510.336 548.012L511.568 548.363L511.116 549.948L511.146 549.957C511.476 549.466 511.864 549.121 512.31 548.923C512.758 548.721 513.204 548.683 513.65 548.81C513.971 548.901 514.206 549.006 514.357 549.125L513.993 550.402ZM520.686 555.452L515.253 553.905C515.029 554.767 515.071 555.494 515.379 556.085C515.688 556.677 516.227 557.082 516.999 557.302C517.865 557.549 518.743 557.49 519.632 557.126L519.302 558.283C518.486 558.581 517.522 558.572 516.41 558.255C515.323 557.946 514.568 557.354 514.146 556.481C513.724 555.603 513.694 554.53 514.055 553.263C514.396 552.066 515.012 551.188 515.902 550.629C516.799 550.067 517.75 549.929 518.757 550.216C519.764 550.502 520.45 551.05 520.816 551.858C521.181 552.666 521.199 553.649 520.87 554.806L520.686 555.452ZM519.721 554.048C519.918 553.335 519.903 552.733 519.675 552.24C519.452 551.749 519.04 551.417 518.439 551.246C517.858 551.081 517.306 551.148 516.782 551.448C516.257 551.748 515.852 552.22 515.566 552.865L519.721 554.048ZM364.066 536.499L362.833 536.148L364.083 531.76C364.548 530.127 364.185 529.141 362.993 528.801C362.377 528.626 361.799 528.713 361.261 529.064C360.729 529.41 360.362 529.937 360.161 530.643L358.911 535.031L357.679 534.68L359.871 526.986L361.103 527.337L360.739 528.614L360.769 528.623C361.627 527.817 362.607 527.57 363.709 527.884C364.55 528.124 365.116 528.58 365.407 529.253C365.698 529.921 365.698 530.769 365.405 531.796L364.066 536.499ZM369.559 538.259C368.422 537.935 367.615 537.318 367.138 536.408C366.667 535.494 366.601 534.443 366.939 533.256C367.307 531.964 367.948 531.055 368.861 530.53C369.774 530.005 370.832 529.913 372.034 530.256C373.181 530.583 373.975 531.19 374.414 532.079C374.859 532.97 374.904 534.041 374.547 535.293C374.197 536.52 373.569 537.406 372.661 537.949C371.76 538.488 370.726 538.591 369.559 538.259ZM371.648 531.267C370.857 531.042 370.154 531.134 369.539 531.543C368.925 531.948 368.484 532.624 368.214 533.571C367.954 534.482 367.983 535.267 368.299 535.926C368.615 536.585 369.163 537.025 369.945 537.248C370.741 537.475 371.426 537.391 371.998 536.996C372.576 536.603 373.001 535.93 373.272 534.979C373.546 534.017 373.541 533.214 373.259 532.571C372.982 531.928 372.445 531.494 371.648 531.267ZM379.247 540.523L379.624 539.201C380.154 539.888 380.822 540.346 381.628 540.576C382.71 540.884 383.354 540.678 383.559 539.956C383.618 539.751 383.62 539.565 383.564 539.397C383.516 539.226 383.427 539.063 383.298 538.907C383.174 538.753 383.016 538.602 382.825 538.456C382.641 538.306 382.439 538.148 382.221 537.983C381.919 537.751 381.657 537.53 381.435 537.32C381.219 537.107 381.048 536.891 380.921 536.67C380.801 536.447 380.727 536.212 380.7 535.966C380.677 535.721 380.708 535.451 380.792 535.155C380.895 534.795 381.068 534.5 381.312 534.272C381.557 534.038 381.844 533.868 382.172 533.761C382.502 533.649 382.856 533.596 383.234 533.6C383.616 533.607 383.996 533.663 384.371 533.77C385.037 533.96 385.601 534.245 386.061 534.625L385.706 535.872C385.245 535.341 384.647 534.97 383.911 534.76C383.68 534.694 383.464 534.663 383.263 534.665C383.064 534.662 382.883 534.689 382.72 534.746C382.563 534.804 382.428 534.89 382.314 535.004C382.207 535.114 382.13 535.249 382.085 535.41C382.028 535.61 382.015 535.788 382.046 535.943C382.083 536.1 382.156 536.251 382.267 536.396C382.377 536.541 382.52 536.684 382.696 536.827C382.872 536.969 383.074 537.127 383.301 537.299C383.604 537.527 383.871 537.749 384.102 537.966C384.334 538.179 384.52 538.4 384.661 538.629C384.802 538.854 384.891 539.093 384.927 539.347C384.968 539.602 384.944 539.885 384.856 540.196C384.748 540.576 384.568 540.883 384.318 541.115C384.073 541.348 383.784 541.518 383.45 541.623C383.117 541.728 382.755 541.774 382.363 541.76C381.972 541.746 381.576 541.682 381.175 541.568C380.384 541.342 379.741 540.994 379.247 540.523ZM393.362 541.018L387.93 539.471C387.706 540.333 387.748 541.06 388.056 541.652C388.364 542.243 388.904 542.649 389.675 542.868C390.542 543.115 391.42 543.056 392.309 542.692L391.979 543.849C391.163 544.148 390.199 544.138 389.087 543.822C388 543.512 387.245 542.921 386.822 542.047C386.401 541.169 386.371 540.096 386.732 538.829C387.073 537.632 387.689 536.754 388.579 536.195C389.475 535.633 390.427 535.495 391.434 535.782C392.441 536.069 393.127 536.616 393.493 537.424C393.858 538.233 393.876 539.215 393.546 540.372L393.362 541.018ZM392.398 539.615C392.595 538.902 392.58 538.299 392.352 537.806C392.129 537.315 391.717 536.984 391.116 536.813C390.535 536.647 389.982 536.714 389.458 537.015C388.934 537.315 388.529 537.787 388.242 538.431L392.398 539.615ZM399.57 546.231C398.878 546.418 398.126 546.396 397.314 546.165C396.217 545.853 395.432 545.245 394.959 544.341C394.491 543.433 394.42 542.411 394.744 541.274C395.105 540.007 395.757 539.093 396.702 538.534C397.648 537.969 398.727 537.86 399.939 538.205C400.616 538.398 401.176 538.693 401.621 539.09L401.261 540.352C400.804 539.789 400.25 539.414 399.599 539.229C398.813 539.005 398.086 539.104 397.419 539.526C396.758 539.944 396.297 540.612 396.036 541.528C395.779 542.43 395.812 543.208 396.134 543.863C396.462 544.52 397.024 544.961 397.82 545.188C398.491 545.38 399.186 545.336 399.904 545.059L399.57 546.231ZM407.554 548.887L406.322 548.536L406.669 547.319L406.639 547.31C405.862 548.097 404.938 548.337 403.866 548.032C402.033 547.509 401.427 546.156 402.049 543.972L403.359 539.374L404.584 539.723L403.33 544.126C402.868 545.749 403.258 546.737 404.5 547.091C405.101 547.262 405.657 547.182 406.168 546.852C406.686 546.517 407.047 545.992 407.251 545.275L408.514 540.842L409.746 541.193L407.554 548.887ZM415.897 544.294C415.729 544.067 415.442 543.896 415.036 543.781C414.51 543.631 413.999 543.753 413.502 544.148C413.01 544.544 412.642 545.17 412.398 546.027L411.281 549.949L410.049 549.598L412.24 541.904L413.473 542.255L413.021 543.84L413.051 543.849C413.381 543.358 413.768 543.013 414.215 542.816C414.662 542.613 415.109 542.575 415.555 542.702C415.875 542.793 416.111 542.898 416.261 543.017L415.897 544.294ZM418.778 541.654C418.557 541.591 418.391 541.463 418.278 541.268C418.166 541.074 418.143 540.861 418.208 540.631C418.274 540.4 418.406 540.232 418.604 540.126C418.803 540.015 419.013 539.991 419.234 540.054C419.459 540.118 419.627 540.25 419.738 540.449C419.856 540.645 419.882 540.858 419.816 541.089C419.753 541.309 419.62 541.474 419.415 541.584C419.216 541.695 419.003 541.718 418.778 541.654ZM416.631 551.473L415.398 551.122L417.59 543.428L418.822 543.779L416.631 551.473ZM422.716 553.125C422.379 553.202 421.973 553.173 421.497 553.038C420.15 552.654 419.69 551.711 420.118 550.208L421.415 545.655L420.093 545.278L420.393 544.226L421.715 544.603L422.25 542.724L423.596 542.677L422.947 544.954L424.886 545.506L424.586 546.558L422.648 546.006L421.413 550.341C421.266 550.857 421.249 551.25 421.361 551.52C421.474 551.791 421.733 551.984 422.138 552.099C422.449 552.188 422.741 552.179 423.015 552.073L422.716 553.125ZM432.655 547.719L426.573 555.637C425.488 557.05 424.375 557.594 423.233 557.269C422.912 557.178 422.654 557.069 422.457 556.942L422.771 555.838C423.011 556.003 423.241 556.118 423.462 556.181C424.083 556.357 424.654 556.119 425.176 555.467L426.207 554.184L425.389 545.649L426.757 546.039L427.151 552.553C427.155 552.635 427.152 552.845 427.142 553.184L427.187 553.196C427.247 553.083 427.351 552.907 427.5 552.668L431.378 547.355L432.655 547.719ZM441.361 558.136C440.668 558.323 439.917 558.301 439.105 558.07C438.008 557.757 437.223 557.149 436.749 556.245C436.282 555.338 436.21 554.315 436.534 553.178C436.895 551.911 437.548 550.998 438.493 550.438C439.439 549.874 440.518 549.764 441.73 550.109C442.406 550.302 442.967 550.597 443.411 550.994L443.052 552.257C442.595 551.693 442.041 551.319 441.39 551.133C440.603 550.909 439.876 551.008 439.209 551.43C438.549 551.848 438.088 552.516 437.827 553.433C437.57 554.334 437.603 555.113 437.925 555.768C438.252 556.424 438.814 556.866 439.611 557.093C440.282 557.284 440.977 557.241 441.695 556.963L441.361 558.136ZM446.288 560.116C445.151 559.792 444.344 559.175 443.867 558.264C443.396 557.351 443.33 556.3 443.668 555.113C444.036 553.82 444.677 552.912 445.59 552.387C446.503 551.862 447.561 551.77 448.763 552.113C449.91 552.439 450.703 553.047 451.143 553.936C451.588 554.826 451.633 555.898 451.276 557.15C450.926 558.377 450.298 559.262 449.39 559.805C448.489 560.345 447.455 560.448 446.288 560.116ZM448.377 553.124C447.586 552.898 446.883 552.99 446.268 553.4C445.654 553.805 445.213 554.481 444.943 555.427C444.683 556.339 444.711 557.124 445.027 557.783C445.343 558.441 445.892 558.882 446.674 559.105C447.47 559.332 448.155 559.248 448.727 558.853C449.305 558.46 449.73 557.787 450.001 556.836C450.275 555.874 450.27 555.071 449.988 554.427C449.711 553.785 449.174 553.351 448.377 553.124ZM458.527 563.407L457.294 563.056L458.544 558.668C459.009 557.035 458.646 556.049 457.454 555.709C456.838 555.534 456.26 555.621 455.722 555.971C455.19 556.318 454.823 556.845 454.622 557.551L453.372 561.939L452.14 561.588L454.332 553.894L455.564 554.245L455.2 555.522L455.23 555.531C456.088 554.725 457.068 554.478 458.17 554.792C459.011 555.032 459.577 555.488 459.868 556.161C460.159 556.829 460.159 557.677 459.866 558.704L458.527 563.407ZM466.201 565.211C465.508 565.399 464.757 565.377 463.945 565.146C462.848 564.833 462.063 564.225 461.589 563.321C461.122 562.413 461.05 561.391 461.374 560.254C461.735 558.987 462.388 558.073 463.333 557.514C464.279 556.949 465.358 556.84 466.57 557.185C467.246 557.378 467.807 557.673 468.251 558.07L467.892 559.333C467.435 558.769 466.881 558.395 466.23 558.209C465.443 557.985 464.716 558.084 464.049 558.506C463.389 558.924 462.928 559.592 462.667 560.508C462.41 561.41 462.442 562.188 462.765 562.844C463.092 563.5 463.654 563.942 464.451 564.169C465.122 564.36 465.817 564.317 466.535 564.039L466.201 565.211ZM475.155 564.318L469.723 562.77C469.499 563.633 469.541 564.36 469.849 564.951C470.157 565.542 470.697 565.948 471.469 566.168C472.335 566.414 473.213 566.356 474.102 565.992L473.772 567.149C472.956 567.447 471.992 567.438 470.88 567.121C469.793 566.811 469.038 566.22 468.615 565.347C468.194 564.469 468.164 563.396 468.525 562.129C468.866 560.931 469.482 560.053 470.372 559.495C471.269 558.932 472.22 558.795 473.227 559.081C474.234 559.368 474.92 559.916 475.286 560.724C475.651 561.532 475.669 562.515 475.339 563.672L475.155 564.318ZM474.191 562.914C474.388 562.201 474.373 561.598 474.145 561.106C473.922 560.614 473.51 560.283 472.909 560.112C472.328 559.946 471.776 560.014 471.251 560.314C470.727 560.614 470.322 561.086 470.036 561.73L474.191 562.914ZM481.867 563.086C481.699 562.859 481.412 562.688 481.006 562.573C480.48 562.423 479.968 562.545 479.472 562.94C478.98 563.336 478.612 563.962 478.368 564.819L477.25 568.741L476.018 568.39L478.21 560.696L479.442 561.047L478.991 562.632L479.021 562.641C479.35 562.15 479.738 561.805 480.184 561.607C480.632 561.405 481.079 561.367 481.524 561.494C481.845 561.585 482.08 561.69 482.231 561.809L481.867 563.086ZM487.754 571.733L486.522 571.382L487.772 566.994C488.237 565.361 487.874 564.375 486.682 564.035C486.066 563.86 485.488 563.947 484.95 564.297C484.418 564.644 484.051 565.17 483.85 565.877L482.6 570.265L481.368 569.914L483.56 562.22L484.792 562.571L484.428 563.848L484.458 563.857C485.316 563.05 486.296 562.804 487.398 563.118C488.239 563.358 488.805 563.814 489.095 564.487C489.387 565.155 489.387 566.002 489.094 567.029L487.754 571.733ZM489.697 571.986L490.074 570.663C490.604 571.35 491.272 571.809 492.078 572.039C493.16 572.347 493.804 572.14 494.009 571.419C494.068 571.213 494.07 571.027 494.014 570.86C493.966 570.689 493.877 570.525 493.748 570.37C493.624 570.215 493.466 570.065 493.275 569.918C493.091 569.768 492.889 569.61 492.671 569.445C492.369 569.213 492.107 568.992 491.885 568.783C491.669 568.57 491.498 568.353 491.371 568.133C491.251 567.909 491.177 567.674 491.15 567.428C491.127 567.183 491.158 566.913 491.242 566.618C491.345 566.257 491.518 565.963 491.762 565.734C492.007 565.501 492.294 565.331 492.622 565.224C492.952 565.112 493.306 565.058 493.684 565.063C494.066 565.069 494.446 565.126 494.821 565.233C495.487 565.422 496.051 565.707 496.511 566.088L496.156 567.335C495.695 566.803 495.097 566.432 494.361 566.222C494.13 566.157 493.914 566.125 493.713 566.127C493.514 566.125 493.333 566.152 493.17 566.208C493.013 566.266 492.878 566.352 492.764 566.466C492.657 566.577 492.58 566.712 492.535 566.872C492.478 567.072 492.465 567.25 492.496 567.405C492.533 567.562 492.606 567.713 492.717 567.858C492.827 568.003 492.97 568.147 493.146 568.289C493.322 568.431 493.524 568.589 493.751 568.762C494.054 568.989 494.321 569.212 494.552 569.429C494.784 569.641 494.97 569.862 495.111 570.092C495.252 570.316 495.341 570.555 495.377 570.809C495.418 571.065 495.394 571.348 495.306 571.658C495.198 572.039 495.018 572.345 494.768 572.577C494.523 572.811 494.234 572.98 493.9 573.086C493.567 573.191 493.205 573.237 492.813 573.223C492.422 573.209 492.026 573.145 491.625 573.03C490.834 572.805 490.191 572.457 489.697 571.986ZM497.002 574.546C496.771 574.48 496.597 574.341 496.479 574.129C496.366 573.918 496.342 573.697 496.407 573.467C496.473 573.236 496.61 573.061 496.817 572.942C497.031 572.818 497.253 572.79 497.483 572.855C497.719 572.922 497.895 573.064 498.012 573.282C498.13 573.494 498.156 573.716 498.09 573.946C498.025 574.176 497.886 574.351 497.673 574.469C497.461 574.587 497.237 574.613 497.002 574.546Z" fill="white"/>
<path opacity="0.15" d="M357.58 459.213C359.341 463.066 363.847 465.453 368.021 464.747C372.196 464.04 375.665 460.295 376.049 456.075C381.369 461.18 391.131 460.375 395.547 454.475C401.474 459.168 405.336 459.186 410.736 456.191C403.924 452.061 406.981 448.53 401.179 447.6C395.377 446.67 389.522 448.53 383.934 450.371C380.564 444.569 373.251 441.36 366.698 442.817C365.787 443.023 364.839 443.3 363.936 443.077C362.845 442.799 362.094 441.843 361.308 441.038C356.445 436.077 347.889 435.871 342.15 439.796C334.944 444.721 333.112 454.117 336.107 462.226C337.313 465.48 339.244 468.457 342.624 469.27C348.399 470.656 360.566 465.757 357.58 459.213Z" fill="#0C0D46"/>
<path opacity="0.15" d="M423.622 582.397L411.793 578.926L408.566 589.922L420.395 593.394L423.622 582.397Z" fill="#0C0D46"/>
<path d="M355.98 454.412C357.571 458.337 361.978 460.911 366.18 460.384C370.382 459.848 374.002 456.263 374.565 452.061C379.661 457.38 389.45 456.996 394.117 451.292C399.132 454.466 404.961 456.325 410.888 456.647C411.254 450.774 405.792 445.848 400.035 444.668C394.269 443.488 388.351 445.106 382.692 446.706C379.572 440.761 372.402 437.248 365.796 438.428C364.875 438.589 363.918 438.839 363.024 438.562C361.951 438.24 361.236 437.257 360.476 436.416C355.828 431.249 347.29 430.686 341.39 434.36C333.979 438.973 330.707 448.682 333.353 456.906C334.417 460.214 336.831 463.254 340.156 464.255C343.884 465.372 358.68 461.072 355.98 454.412Z" fill="#444968"/>
</svg>
