<svg xmlns="http://www.w3.org/2000/svg" fill="none" viewBox="38.5 5 1096.8 382.64">
<path d="M358.037 152.845C375.246 152.845 389.197 138.895 389.197 121.685C389.197 104.476 375.246 90.5254 358.037 90.5254C340.828 90.5254 326.877 104.476 326.877 121.685C326.877 138.895 340.828 152.845 358.037 152.845Z" fill="#7B7D9B" stroke="#0C0D46" stroke-miterlimit="10" stroke-linecap="round" stroke-linejoin="round"/>
<path d="M373.807 148.806C367.407 152.546 359.967 153.876 352.587 152.576C344.337 151.116 337.147 146.536 332.337 139.676C327.527 132.816 325.687 124.486 327.137 116.236C328.597 107.986 333.177 100.796 340.037 95.9855C346.897 91.1755 355.227 89.3355 363.477 90.7855C371.727 92.2455 378.917 96.8255 383.727 103.686C393.647 117.856 390.197 137.456 376.027 147.376C375.307 147.896 374.567 148.366 373.807 148.806ZM342.477 94.9255C341.727 95.3655 340.997 95.8255 340.287 96.3255C333.517 101.066 328.997 108.166 327.557 116.306C326.117 124.446 327.947 132.656 332.687 139.436C337.427 146.206 344.527 150.726 352.667 152.166C360.807 153.606 369.017 151.786 375.797 147.036C382.567 142.296 387.087 135.196 388.527 127.056C389.967 118.916 388.137 110.706 383.397 103.926C378.657 97.1555 371.557 92.6355 363.417 91.1955C356.127 89.9255 348.797 91.2455 342.477 94.9255Z" fill="#7B7D9B" stroke="#0C0D46" stroke-miterlimit="10" stroke-linecap="round" stroke-linejoin="round"/>
<g opacity="0.3">
<path opacity="0.3" d="M376.257 115.875C376.037 120.465 374.957 125.015 372.957 129.255C369.987 135.545 365.247 141.005 359.417 144.795C354.257 148.155 346.957 151.285 341.117 147.695C344.507 149.775 348.407 151.495 352.257 152.265C355.557 152.925 358.767 152.855 362.107 152.445C364.087 152.205 366.077 151.885 367.947 151.195C368.957 150.825 370.017 150.415 370.997 149.965C377.897 146.745 383.517 141.065 386.537 134.075C389.827 126.455 390.057 117.595 386.717 109.995C385.077 106.265 383.047 102.705 380.127 99.8754C377.407 97.2354 372.807 93.4554 369.037 92.7754C369.967 92.9454 372.007 96.5454 372.367 97.2854C375.217 103.055 376.567 109.505 376.257 115.875Z" fill="#0C0D46"/>
</g>
<path d="M356.457 109.156C359.417 109.156 361.817 106.756 361.817 103.796C361.817 100.835 359.417 98.4355 356.457 98.4355C353.497 98.4355 351.097 100.835 351.097 103.796C351.097 106.756 353.497 109.156 356.457 109.156Z" fill="#7B7D9B" stroke="#0C0D46" stroke-miterlimit="10" stroke-linecap="round" stroke-linejoin="round"/>
<path opacity="0.3" d="M356.337 108.866C359.087 108.866 361.317 106.637 361.317 103.886C361.317 101.136 359.087 98.9062 356.337 98.9062C353.587 98.9062 351.357 101.136 351.357 103.886C351.357 106.637 353.587 108.866 356.337 108.866Z" fill="#0C0D46"/>
<path d="M340.717 123.635C343.07 123.635 344.977 121.728 344.977 119.375C344.977 117.023 343.07 115.115 340.717 115.115C338.364 115.115 336.457 117.023 336.457 119.375C336.457 121.728 338.364 123.635 340.717 123.635Z" fill="#7B7D9B" stroke="#0C0D46" stroke-miterlimit="10" stroke-linecap="round" stroke-linejoin="round"/>
<path opacity="0.3" d="M340.547 123.375C342.756 123.375 344.547 121.584 344.547 119.375C344.547 117.166 342.756 115.375 340.547 115.375C338.338 115.375 336.547 117.166 336.547 119.375C336.547 121.584 338.338 123.375 340.547 123.375Z" fill="#0C0D46"/>
<path d="M360.037 133.405C363.842 133.405 366.927 130.32 366.927 126.515C366.927 122.71 363.842 119.625 360.037 119.625C356.232 119.625 353.147 122.71 353.147 126.515C353.147 130.32 356.232 133.405 360.037 133.405Z" fill="#7B7D9B" stroke="#0C0D46" stroke-miterlimit="10" stroke-linecap="round" stroke-linejoin="round"/>
<path opacity="0.3" d="M359.847 133.076C363.409 133.076 366.297 130.188 366.297 126.626C366.297 123.064 363.409 120.176 359.847 120.176C356.285 120.176 353.397 123.064 353.397 126.626C353.397 130.188 356.285 133.076 359.847 133.076Z" fill="#0C0D46"/>
<path d="M1071.14 344.766C1096.93 344.766 1117.85 323.853 1117.85 298.056C1117.85 272.258 1096.93 251.346 1071.14 251.346C1045.34 251.346 1024.43 272.258 1024.43 298.056C1024.43 323.853 1045.34 344.766 1071.14 344.766Z" fill="#7B7D9B" stroke="#0C0D46" stroke-miterlimit="10" stroke-linecap="round" stroke-linejoin="round"/>
<path d="M1118.15 296.945C1118.76 322.865 1098.17 344.455 1072.25 345.065C1059.69 345.365 1047.77 340.745 1038.69 332.075C1029.6 323.405 1024.44 311.715 1024.14 299.155C1023.84 286.595 1028.46 274.675 1037.13 265.595C1045.8 256.505 1057.49 251.335 1070.05 251.045C1082.61 250.745 1094.53 255.365 1103.61 264.035C1111.74 271.785 1116.73 281.955 1117.91 293.005C1118.03 294.295 1118.12 295.615 1118.15 296.945ZM1039.12 331.615C1048.09 340.165 1059.85 344.715 1072.23 344.425C1084.62 344.135 1096.15 339.035 1104.7 330.065C1113.25 321.095 1117.8 309.335 1117.51 296.955C1117.22 284.565 1112.12 273.035 1103.15 264.485C1094.18 255.935 1082.42 251.385 1070.04 251.675C1057.65 251.965 1046.12 257.065 1037.57 266.035C1029.02 275.005 1024.47 286.765 1024.76 299.145C1024.79 300.455 1024.88 301.755 1025.01 303.035C1026.17 313.935 1031.1 323.965 1039.12 331.615Z" fill="#7B7D9B" stroke="#0C0D46" stroke-miterlimit="10" stroke-linecap="round" stroke-linejoin="round"/>
<g opacity="0.3">
<path opacity="0.3" d="M1080.31 325.215C1085.65 320.875 1090.19 315.525 1093.53 309.345C1098.49 300.175 1100.86 289.605 1100.27 279.195C1099.74 269.975 1097.03 258.385 1087.51 254.535C1093.04 256.775 1098.57 259.965 1102.93 263.925C1106.66 267.315 1109.43 271.265 1111.9 275.655C1113.37 278.255 1114.76 280.945 1115.59 283.815C1116.04 285.365 1116.49 287.005 1116.81 288.585C1119.05 299.785 1117.19 311.605 1111.43 321.465C1105.15 332.215 1094.65 340.355 1082.51 343.075C1076.56 344.405 1070.45 345.125 1064.44 344.115C1058.84 343.185 1050.19 340.985 1046.02 337.025C1047.05 337.995 1053.21 337.265 1054.43 337.045C1063.91 335.335 1072.89 331.245 1080.31 325.215Z" fill="#0C0D46"/>
</g>
<path d="M1048.14 320.086C1052.58 320.086 1056.18 316.486 1056.18 312.046C1056.18 307.605 1052.58 304.006 1048.14 304.006C1043.7 304.006 1040.1 307.605 1040.1 312.046C1040.1 316.486 1043.7 320.086 1048.14 320.086Z" fill="#7B7D9B" stroke="#0C0D46" stroke-miterlimit="10" stroke-linecap="round" stroke-linejoin="round"/>
<path opacity="0.3" d="M1048.13 319.275C1052.25 319.275 1055.59 315.936 1055.59 311.815C1055.59 307.695 1052.25 304.355 1048.13 304.355C1044.01 304.355 1040.67 307.695 1040.67 311.815C1040.67 315.936 1044.01 319.275 1048.13 319.275Z" fill="#0C0D46"/>
<path d="M1052.95 285.574C1056.47 285.574 1059.33 282.718 1059.33 279.194C1059.33 275.671 1056.47 272.814 1052.95 272.814C1049.42 272.814 1046.57 275.671 1046.57 279.194C1046.57 282.718 1049.42 285.574 1052.95 285.574Z" fill="#7B7D9B" stroke="#0C0D46" stroke-miterlimit="10" stroke-linecap="round" stroke-linejoin="round"/>
<path opacity="0.3" d="M1052.8 284.994C1056.11 284.994 1058.8 282.308 1058.8 278.994C1058.8 275.68 1056.11 272.994 1052.8 272.994C1049.48 272.994 1046.8 275.68 1046.8 278.994C1046.8 282.308 1049.48 284.994 1052.8 284.994Z" fill="#0C0D46"/>
<path d="M1078.75 306.496C1084.45 306.496 1089.08 301.871 1089.08 296.166C1089.08 290.461 1084.45 285.836 1078.75 285.836C1073.04 285.836 1068.42 290.461 1068.42 296.166C1068.42 301.871 1073.04 306.496 1078.75 306.496Z" fill="#7B7D9B" stroke="#0C0D46" stroke-miterlimit="10" stroke-linecap="round" stroke-linejoin="round"/>
<path opacity="0.3" d="M1078.71 305.506C1084.04 305.506 1088.37 301.181 1088.37 295.846C1088.37 290.51 1084.04 286.186 1078.71 286.186C1073.37 286.186 1069.05 290.51 1069.05 295.846C1069.05 301.181 1073.37 305.506 1078.71 305.506Z" fill="#0C0D46"/>
<path d="M88.0769 114.685C114.995 114.685 136.817 92.8634 136.817 65.9451C136.817 39.0267 114.995 17.2051 88.0769 17.2051C61.1586 17.2051 39.3369 39.0267 39.3369 65.9451C39.3369 92.8634 61.1586 114.685 88.0769 114.685Z" fill="#7B7D9B" stroke="#0C0D46" stroke-miterlimit="10" stroke-linecap="round" stroke-linejoin="round"/>
<path d="M136.597 73.2555C132.567 100.005 107.527 118.495 80.7667 114.465C67.8067 112.515 56.3867 105.635 48.5967 95.0855C40.8167 84.5455 37.6067 71.5955 39.5567 58.6455C41.5067 45.6855 48.3867 34.2655 58.9367 26.4755C69.4767 18.6955 82.4267 15.4755 95.3867 17.4355C108.347 19.3855 119.767 26.2655 127.557 36.8155C134.517 46.2455 137.827 57.5955 137.047 69.1555C136.957 70.5155 136.807 71.8855 136.597 73.2555ZM49.1367 94.6955C56.8167 105.095 68.0867 111.885 80.8767 113.815C93.6667 115.745 106.437 112.575 116.837 104.895C127.237 97.2155 134.027 85.9455 135.957 73.1555C137.887 60.3655 134.717 47.5955 127.037 37.1955C119.357 26.7955 108.087 20.0055 95.2967 18.0755C82.5067 16.1455 69.7367 19.3155 59.3367 26.9955C48.9367 34.6755 42.1367 45.9555 40.2067 58.7355C40.0067 60.0855 39.8567 61.4355 39.7667 62.7855C39.0067 74.1955 42.2667 85.3955 49.1367 94.6955Z" fill="#7B7D9B" stroke="#0C0D46" stroke-miterlimit="10" stroke-linecap="round" stroke-linejoin="round"/>
<g opacity="0.3">
<path opacity="0.3" d="M92.6166 95.516C98.8866 92.016 104.517 87.336 109.057 81.586C115.797 73.046 120.137 62.616 121.397 51.806C122.517 42.236 121.807 29.836 112.717 24.166C117.997 27.456 123.107 31.726 126.877 36.586C130.107 40.746 132.237 45.296 133.987 50.256C135.027 53.196 135.977 56.206 136.307 59.306C136.487 60.976 136.667 62.746 136.707 64.436C136.997 76.346 132.957 88.166 125.267 97.266C116.877 107.186 104.627 113.666 91.6566 114.286C85.2966 114.586 78.8966 114.226 72.8866 112.106C67.2966 110.136 58.8066 106.326 55.2266 101.506C56.1066 102.696 62.5766 103.046 63.8666 103.036C73.9466 102.976 83.9166 100.386 92.6166 95.516Z" fill="#0C0D46"/>
</g>
<path d="M61.9266 84.5847C66.5603 84.5847 70.3166 80.8284 70.3166 76.1947C70.3166 71.561 66.5603 67.8047 61.9266 67.8047C57.293 67.8047 53.5366 71.561 53.5366 76.1947C53.5366 80.8284 57.293 84.5847 61.9266 84.5847Z" fill="#7B7D9B" stroke="#0C0D46" stroke-miterlimit="10" stroke-linecap="round" stroke-linejoin="round"/>
<path opacity="0.3" d="M61.9566 84.2647C66.5019 84.2647 70.1866 80.58 70.1866 76.0347C70.1866 71.4894 66.5019 67.8047 61.9566 67.8047C57.4113 67.8047 53.7266 71.4894 53.7266 76.0347C53.7266 80.58 57.4113 84.2647 61.9566 84.2647Z" fill="#0C0D46"/>
<path d="M72.7767 49.9645C76.4549 49.9645 79.4367 46.9827 79.4367 43.3045C79.4367 39.6263 76.4549 36.6445 72.7767 36.6445C69.0985 36.6445 66.1167 39.6263 66.1167 43.3045C66.1167 46.9827 69.0985 49.9645 72.7767 49.9645Z" fill="#7B7D9B" stroke="#0C0D46" stroke-miterlimit="10" stroke-linecap="round" stroke-linejoin="round"/>
<path opacity="0.3" d="M72.7165 49.5141C76.1738 49.5141 78.9765 46.7114 78.9765 43.2541C78.9765 39.7968 76.1738 36.9941 72.7165 36.9941C69.2592 36.9941 66.4565 39.7968 66.4565 43.2541C66.4565 46.7114 69.2592 49.5141 72.7165 49.5141Z" fill="#0C0D46"/>
<path d="M121.317 52.8357C123.73 52.8357 125.687 50.8792 125.687 48.4657C125.687 46.0522 123.73 44.0957 121.317 44.0957C118.903 44.0957 116.947 46.0522 116.947 48.4657C116.947 50.8792 118.903 52.8357 121.317 52.8357Z" fill="#7B7D9B" stroke="#0C0D46" stroke-miterlimit="10" stroke-linecap="round" stroke-linejoin="round"/>
<path opacity="0.3" d="M121.277 52.5359C123.541 52.5359 125.377 50.7003 125.377 48.4359C125.377 46.1716 123.541 44.3359 121.277 44.3359C119.012 44.3359 117.177 46.1716 117.177 48.4359C117.177 50.7003 119.012 52.5359 121.277 52.5359Z" fill="#0C0D46"/>
<path d="M96.2365 76.1655C102.19 76.1655 107.017 71.3391 107.017 65.3855C107.017 59.4318 102.19 54.6055 96.2365 54.6055C90.2829 54.6055 85.4565 59.4318 85.4565 65.3855C85.4565 71.3391 90.2829 76.1655 96.2365 76.1655Z" fill="#7B7D9B" stroke="#0C0D46" stroke-miterlimit="10" stroke-linecap="round" stroke-linejoin="round"/>
<path opacity="0.3" d="M96.1268 75.9645C102.014 75.9645 106.787 71.1919 106.787 65.3045C106.787 59.4172 102.014 54.6445 96.1268 54.6445C90.2394 54.6445 85.4668 59.4172 85.4668 65.3045C85.4668 71.1919 90.2394 75.9645 96.1268 75.9645Z" fill="#0C0D46"/>
<path opacity="0.57" d="M650.987 293.246C638.667 286.876 624.987 282.916 611.017 282.246C572.087 280.386 532.357 287.236 496.477 302.556C476.577 311.046 450.467 317.296 430.237 305.446C408.157 292.516 397.057 258.756 406.447 235.166C413.547 217.336 430.077 205.276 446.207 194.886C464.367 183.196 500.207 165.386 483.757 139.326C474.187 124.166 455.387 121.046 464.257 99.126C480.527 58.886 532.747 75.646 565.857 71.316C578.077 69.716 598.637 66.936 592.607 48.966C591.927 46.936 590.847 45.056 590.287 42.996C586.657 29.736 598.127 21.136 608.517 16.086C642.387 -0.364034 680.047 5.09597 715.907 9.74597C753.667 14.646 788.367 33.306 827.107 32.106C864.147 30.956 897.917 18.076 933.457 10.166C979.037 0.0359678 1044.33 5.40597 1076.04 44.286C1091.97 63.816 1096.73 92.456 1096.3 117.166C1095.84 143.646 1086.25 176.856 1064.47 193.806C1057.89 198.926 1050.19 202.386 1043 206.606C1019.91 220.136 1007.7 239.286 994.717 261.686C982.707 282.426 960.027 296.856 936.727 301.186C913.337 305.536 882.797 302.616 864.977 285.506C858.567 279.346 855.027 271.276 846.747 267.566C839.457 264.296 831.797 264.256 824.157 266.256C808.877 270.266 796.307 281.056 782.927 288.906C762.457 300.916 735.757 313.856 711.527 313.106C695.187 312.606 676.437 309.896 662.867 300.416C659.087 297.786 655.107 295.376 650.987 293.246Z" fill="#424156"/>
<path opacity="0.57" d="M1132.83 202.596C1137.49 186.056 1136.66 167.216 1120.48 157.626C1112.01 152.616 1105.4 157.986 1103.98 167.026C1102.22 178.246 1101.48 181.686 1093.53 189.556C1090.65 192.396 1086.03 195.796 1086.35 200.336C1086.85 207.466 1097.22 213.516 1103.09 215.946C1110.77 219.126 1120.36 219.896 1126.8 213.706C1129.72 210.896 1131.6 206.956 1132.83 202.596Z" fill="#424156"/>
<g opacity="0.8">
<g opacity="0.8">
<g opacity="0.8">
<path opacity="0.8" d="M885.787 109.257C894.016 109.257 900.687 102.586 900.687 94.357C900.687 86.128 894.016 79.457 885.787 79.457C877.558 79.457 870.887 86.128 870.887 94.357C870.887 102.586 877.558 109.257 885.787 109.257Z" fill="#FDFDFF"/>
<path opacity="0.8" d="M883.027 109.647C880.297 109.157 877.667 107.937 875.447 105.957C869.047 100.257 868.477 90.4171 874.177 84.0171C879.877 77.6171 889.717 77.0471 896.117 82.7471C902.517 88.4471 903.087 98.2871 897.387 104.687C893.667 108.867 888.177 110.567 883.027 109.647ZM888.307 80.3171C883.587 79.4771 878.547 81.0271 875.127 84.8671C872.597 87.7171 871.317 91.3771 871.537 95.1771C871.757 98.9771 873.447 102.467 876.287 105.007C882.157 110.237 891.197 109.717 896.427 103.837C901.657 97.9671 901.137 88.9271 895.267 83.6971C893.237 81.8871 890.817 80.7671 888.307 80.3171Z" fill="#272ABF"/>
</g>
<g opacity="0.8">
<path opacity="0.8" d="M883.567 105.978C881.477 105.608 879.467 104.668 877.777 103.158C875.407 101.048 874.007 98.1376 873.817 94.9776C873.637 91.8076 874.697 88.7576 876.807 86.3976C878.917 84.0376 881.827 82.6276 884.987 82.4376C888.157 82.2576 891.207 83.3176 893.567 85.4276C898.457 89.7776 898.887 97.3076 894.537 102.198C891.697 105.388 887.497 106.678 883.567 105.978ZM887.607 83.5476C886.767 83.3976 885.907 83.3476 885.037 83.3976C882.127 83.5676 879.457 84.8576 877.517 87.0376C875.577 89.2176 874.607 92.0176 874.767 94.9276C874.937 97.8376 876.227 100.508 878.407 102.448C882.897 106.448 889.817 106.048 893.817 101.558C897.817 97.0676 897.417 90.1476 892.927 86.1476C891.407 84.7776 889.577 83.8976 887.607 83.5476Z" fill="#272ABF"/>
</g>
</g>
<g opacity="0.8">
<g opacity="0.8">
<path opacity="0.8" d="M888.437 99.3169C888.407 99.1969 888.337 99.1069 888.237 99.0369L879.017 93.2469C878.847 93.1369 878.637 93.2969 878.687 93.4869L879.367 96.4469C879.397 96.5669 879.467 96.6569 879.567 96.7269L888.787 102.517C888.957 102.627 889.167 102.467 889.117 102.277L888.437 99.3169Z" fill="#272ABF"/>
</g>
<g opacity="0.8">
<path opacity="0.8" d="M892.716 92.5161C892.686 92.3961 892.616 92.3061 892.516 92.2361L883.297 86.4461C883.127 86.3361 882.916 86.4961 882.966 86.6861L883.646 89.6461C883.676 89.7661 883.746 89.8561 883.846 89.9261L893.066 95.7161C893.236 95.8261 893.446 95.6661 893.396 95.4761L892.716 92.5161Z" fill="#272ABF"/>
</g>
<g opacity="0.8">
<path opacity="0.8" d="M882.797 90.9959C882.917 90.9659 883.037 90.9859 883.137 91.0559L892.357 96.8459C892.527 96.9559 892.477 97.2059 892.287 97.2459L889.327 97.9159C889.207 97.9459 889.087 97.9259 888.987 97.8559L879.767 92.0659C879.597 91.9559 879.647 91.7059 879.837 91.6659L882.797 90.9959Z" fill="#272ABF"/>
</g>
</g>
</g>
<path d="M993.096 157.946C1003.71 157.946 1012.32 149.341 1012.32 138.726C1012.32 128.111 1003.71 119.506 993.096 119.506C982.482 119.506 973.876 128.111 973.876 138.726C973.876 149.341 982.482 157.946 993.096 157.946Z" fill="#FDFDFF"/>
<path d="M1003.14 156.066C1000.05 157.866 996.437 158.856 992.607 158.766C981.557 158.496 972.797 149.286 973.067 138.236C973.337 127.186 982.547 118.426 993.597 118.696C1004.65 118.966 1013.41 128.176 1013.14 139.226C1012.96 146.436 1008.96 152.676 1003.14 156.066ZM983.887 122.816C978.537 125.926 974.877 131.656 974.717 138.276C974.597 143.186 976.397 147.846 979.787 151.406C983.177 154.966 987.747 156.986 992.657 157.106C1002.8 157.356 1011.25 149.306 1011.5 139.176C1011.75 129.036 1003.7 120.586 993.567 120.336C990.037 120.256 986.717 121.166 983.887 122.816Z" fill="#272ABF"/>
<path d="M1000.61 152.006C998.247 153.376 995.487 154.136 992.557 154.066C988.467 153.966 984.667 152.276 981.847 149.316C979.027 146.356 977.527 142.466 977.627 138.386C977.727 134.306 979.417 130.496 982.377 127.676C985.337 124.856 989.227 123.356 993.307 123.456C1001.75 123.666 1008.45 130.696 1008.24 139.136C1008.11 144.646 1005.06 149.416 1000.61 152.006ZM985.877 126.566C984.927 127.116 984.037 127.786 983.227 128.556C980.507 131.146 978.957 134.646 978.857 138.406C978.767 142.166 980.137 145.736 982.737 148.456C985.327 151.176 988.827 152.726 992.587 152.826C1000.35 153.016 1006.82 146.856 1007.01 139.096C1007.2 131.336 1001.04 124.866 993.277 124.676C990.647 124.616 988.107 125.276 985.877 126.566Z" fill="#272ABF"/>
<path d="M999.846 141.396C999.726 141.306 999.576 141.266 999.426 141.286L985.526 143.276C985.276 143.316 985.186 143.636 985.396 143.786L988.536 146.136C988.656 146.226 988.806 146.266 988.956 146.246L1002.85 144.256C1003.1 144.216 1003.19 143.896 1002.98 143.746L999.846 141.396Z" fill="#272ABF"/>
<path d="M998.386 131.146C998.266 131.056 998.117 131.016 997.967 131.036L984.066 133.026C983.816 133.066 983.726 133.386 983.936 133.536L987.076 135.886C987.196 135.976 987.347 136.016 987.497 135.996L1001.39 134.006C1001.64 133.966 1001.73 133.646 1001.52 133.496L998.386 131.146Z" fill="#272ABF"/>
<path d="M987.357 137.917C987.447 137.797 987.587 137.717 987.737 137.697L1001.63 135.707C1001.88 135.667 1002.05 135.957 1001.9 136.167L999.547 139.307C999.457 139.427 999.317 139.507 999.167 139.527L985.267 141.517C985.017 141.557 984.847 141.267 984.997 141.057L987.357 137.917Z" fill="#272ABF"/>
<g opacity="0.8">
<g opacity="0.8">
<g opacity="0.8">
<path opacity="0.8" d="M507.067 106.997C514.666 106.997 520.827 100.836 520.827 93.2366C520.827 85.6371 514.666 79.4766 507.067 79.4766C499.467 79.4766 493.307 85.6371 493.307 93.2366C493.307 100.836 499.467 106.997 507.067 106.997Z" fill="#FDFDFF"/>
<path opacity="0.8" d="M504.527 107.357C502.007 106.907 499.577 105.777 497.527 103.957C491.617 98.6969 491.087 89.6069 496.357 83.6969C498.907 80.8369 502.417 79.1369 506.247 78.9169C510.077 78.6969 513.757 79.9769 516.617 82.5269C522.527 87.7869 523.057 96.8769 517.787 102.787C514.347 106.637 509.277 108.197 504.527 107.357ZM509.407 80.2669C508.397 80.0869 507.357 80.0269 506.307 80.0869C502.797 80.2869 499.567 81.8469 497.227 84.4769C492.397 89.8969 492.877 98.2469 498.307 103.077C503.727 107.907 512.077 107.427 516.907 101.997C519.247 99.3669 520.427 95.9869 520.217 92.4769C520.017 88.9669 518.457 85.7369 515.827 83.3969C513.987 81.7569 511.777 80.6869 509.407 80.2669Z" fill="#272ABF"/>
</g>
<g opacity="0.8">
<path opacity="0.8" d="M505.027 103.968C503.097 103.628 501.247 102.758 499.677 101.368C495.157 97.3478 494.757 90.3978 498.777 85.8878C502.797 81.3678 509.747 80.9678 514.257 84.9878C516.447 86.9378 517.747 89.6178 517.907 92.5478C518.077 95.4678 517.097 98.2878 515.147 100.478C512.527 103.418 508.657 104.618 505.027 103.968ZM499.437 86.4678C495.737 90.6178 496.107 97.0078 500.257 100.698C504.407 104.398 510.797 104.028 514.487 99.8778C516.277 97.8678 517.177 95.2778 517.027 92.5878C516.877 89.8978 515.677 87.4378 513.667 85.6378C509.527 81.9478 503.137 82.3178 499.437 86.4678Z" fill="#272ABF"/>
</g>
</g>
<g opacity="0.8">
<g opacity="0.8">
<g opacity="0.8">
<path opacity="0.8" d="M511.477 88.6071C510.467 87.6371 509.117 87.0571 507.727 86.8971C505.917 86.7071 504.057 87.3271 502.697 88.5371C502.317 88.8871 501.937 89.2571 501.717 89.7271C502.837 89.5971 503.967 89.6771 505.087 89.7971C506.907 89.9071 508.727 90.2271 510.557 90.0871C510.997 90.0271 511.527 90.0071 511.807 89.6171C511.997 89.2571 511.697 88.8771 511.477 88.6071Z" fill="#272ABF"/>
</g>
<g opacity="0.8">
<path opacity="0.8" d="M513.537 93.8074C513.597 92.7174 513.397 91.5874 512.907 90.6074C512.017 92.1474 510.647 93.4174 508.997 94.1074C507.017 94.9374 504.697 94.9774 502.727 94.0874C501.927 93.7774 501.237 93.2574 500.537 92.7874C500.117 95.8374 502.327 98.9374 505.287 99.6974C507.047 100.207 509.017 99.8774 510.557 98.8774C512.277 97.7774 513.417 95.8374 513.537 93.8074Z" fill="#272ABF"/>
</g>
</g>
<g opacity="0.8">
<path opacity="0.8" d="M505.077 89.7968C503.957 89.6768 502.827 89.5968 501.707 89.7268L501.637 89.7368C501.287 90.3268 500.947 90.9368 500.787 91.6168C501.317 91.6168 501.827 91.4368 502.337 91.3068C503.347 91.0068 504.397 90.6268 505.077 89.7968Z" fill="#272ABF"/>
</g>
</g>
</g>
<g opacity="0.5">
<g opacity="0.5">
<g opacity="0.5">
<g opacity="0.5">
<path opacity="0.5" d="M1013.02 90.6771C1020.93 90.6771 1027.34 84.2658 1027.34 76.3571C1027.34 68.4484 1020.93 62.0371 1013.02 62.0371C1005.11 62.0371 998.696 68.4484 998.696 76.3571C998.696 84.2658 1005.11 90.6771 1013.02 90.6771Z" fill="#FDFDFF"/>
<path opacity="0.5" d="M1010.37 91.0562C1007.75 90.5862 1005.21 89.4162 1003.08 87.5162C996.927 82.0362 996.377 72.5762 1001.86 66.4262C1007.34 60.2762 1016.8 59.7262 1022.95 65.2062C1029.1 70.6862 1029.65 80.1462 1024.17 86.2962C1020.6 90.3162 1015.32 91.9362 1010.37 91.0562ZM1015.45 62.8662C1010.91 62.0562 1006.07 63.5462 1002.78 67.2362C1000.34 69.9762 999.117 73.4862 999.327 77.1462C999.537 80.8062 1001.16 84.1562 1003.9 86.5962C1009.55 91.6262 1018.23 91.1162 1023.26 85.4762C1028.29 79.8262 1027.78 71.1462 1022.14 66.1162C1020.18 64.3762 1017.86 63.2962 1015.45 62.8662Z" fill="#272ABF"/>
</g>
<g opacity="0.5">
<path opacity="0.5" d="M1010.89 87.5271C1008.88 87.1671 1006.95 86.2671 1005.32 84.8171C1003.04 82.7871 1001.69 79.9971 1001.52 76.9571C1001.34 73.9171 1002.36 70.9871 1004.39 68.7071C1006.42 66.4271 1009.21 65.077 1012.25 64.907C1015.3 64.727 1018.22 65.7471 1020.5 67.7771C1025.2 71.9671 1025.62 79.197 1021.43 83.897C1018.7 86.967 1014.67 88.2071 1010.89 87.5271ZM1014.78 65.967C1013.98 65.827 1013.15 65.777 1012.31 65.827C1009.51 65.987 1006.94 67.227 1005.08 69.327C1003.22 71.417 1002.28 74.117 1002.44 76.907C1002.6 79.707 1003.84 82.2771 1005.94 84.1371C1010.26 87.9871 1016.91 87.5971 1020.75 83.2771C1024.6 78.9571 1024.21 72.307 1019.89 68.467C1018.43 67.157 1016.66 66.307 1014.78 65.967Z" fill="#272ABF"/>
</g>
</g>
<g opacity="0.5">
<g opacity="0.5">
<path opacity="0.5" d="M1015.58 81.1349C1015.55 81.0249 1015.49 80.9249 1015.39 80.8649L1006.53 75.2949C1006.37 75.1949 1006.16 75.3349 1006.21 75.5249L1006.86 78.3749C1006.89 78.4849 1006.95 78.5849 1007.05 78.6449L1015.91 84.2149C1016.07 84.3149 1016.28 84.1749 1016.23 83.9849L1015.58 81.1349Z" fill="#272ABF"/>
</g>
<g opacity="0.5">
<path opacity="0.5" d="M1019.68 74.5959C1019.65 74.4859 1019.59 74.3859 1019.49 74.3259L1010.63 68.7559C1010.47 68.6559 1010.26 68.7959 1010.31 68.9859L1010.96 71.8359C1010.99 71.9459 1011.05 72.0459 1011.15 72.1059L1020.01 77.6759C1020.17 77.7759 1020.38 77.6359 1020.33 77.4459L1019.68 74.5959Z" fill="#272ABF"/>
</g>
<g opacity="0.5">
<path opacity="0.5" d="M1010.15 73.1368C1010.26 73.1068 1010.38 73.1268 1010.47 73.1868L1019.33 78.7568C1019.49 78.8568 1019.45 79.1068 1019.26 79.1468L1016.41 79.7968C1016.3 79.8268 1016.18 79.8068 1016.09 79.7468L1007.23 74.1768C1007.07 74.0768 1007.11 73.8268 1007.3 73.7868L1010.15 73.1368Z" fill="#272ABF"/>
</g>
</g>
</g>
<g opacity="0.5">
<g opacity="0.5">
<g opacity="0.5">
<path opacity="0.5" d="M999.507 194.566C1007.63 194.566 1014.21 187.985 1014.21 179.866C1014.21 171.747 1007.63 165.166 999.507 165.166C991.388 165.166 984.807 171.747 984.807 179.866C984.807 187.985 991.388 194.566 999.507 194.566Z" fill="#FDFDFF"/>
<path opacity="0.5" d="M996.817 194.966C995.547 194.736 994.287 194.346 993.067 193.786C985.397 190.236 982.047 181.106 985.597 173.426C989.147 165.756 998.287 162.406 1005.96 165.956C1013.63 169.506 1016.98 178.636 1013.43 186.316C1010.44 192.766 1003.51 196.156 996.817 194.966ZM1001.99 166.016C995.847 164.916 989.487 168.036 986.747 173.956C983.487 180.996 986.557 189.376 993.597 192.636C1000.64 195.896 1009.02 192.826 1012.28 185.786C1015.54 178.746 1012.47 170.366 1005.43 167.106C1004.31 166.586 1003.15 166.226 1001.99 166.016Z" fill="#272ABF"/>
</g>
<g opacity="0.5">
<path opacity="0.5" d="M997.327 191.376C996.357 191.206 995.397 190.906 994.467 190.476C988.607 187.756 986.047 180.786 988.757 174.926C990.077 172.086 992.417 169.926 995.357 168.846C998.297 167.766 1001.48 167.896 1004.32 169.216C1010.18 171.926 1012.74 178.906 1010.03 184.766C1007.74 189.696 1002.44 192.286 997.327 191.376ZM1001.26 169.236C999.407 168.906 997.487 169.066 995.677 169.736C992.977 170.726 990.827 172.706 989.617 175.316C987.117 180.706 989.477 187.116 994.857 189.616C1000.25 192.116 1006.66 189.756 1009.16 184.376C1011.66 178.986 1009.3 172.576 1003.92 170.076C1003.06 169.676 1002.17 169.396 1001.26 169.236Z" fill="#272ABF"/>
</g>
</g>
<g opacity="0.5">
<g opacity="0.5">
<path opacity="0.5" d="M1001.58 171.486L1001.59 171.886L998.637 182.666L998.497 182.736L994.297 178.416L1001.58 171.486Z" fill="#272ABF"/>
</g>
<g opacity="0.5">
<path opacity="0.5" d="M1001.58 171.486L1004.31 181.156L998.497 182.736L999.927 177.506L1001.58 171.486Z" fill="#272ABF"/>
</g>
<g opacity="0.5">
<path opacity="0.5" d="M998.237 183.687L998.277 183.777L997.227 187.617L997.117 187.787L994.037 179.367L998.237 183.687Z" fill="#272ABF"/>
</g>
<g opacity="0.5">
<path opacity="0.5" d="M997.117 187.785L998.237 183.685L1004.05 182.105L997.117 187.785Z" fill="#272ABF"/>
</g>
</g>
</g>
<g opacity="0.5">
<g opacity="0.5">
<g opacity="0.5">
<path opacity="0.5" d="M786.597 127.397C794.263 127.397 800.477 121.182 800.477 113.517C800.477 105.851 794.263 99.6367 786.597 99.6367C778.931 99.6367 772.717 105.851 772.717 113.517C772.717 121.182 778.931 127.397 786.597 127.397Z" fill="#FDFDFF"/>
<path opacity="0.5" d="M796.537 124.057C795.657 124.887 794.647 125.627 793.527 126.237C786.517 130.057 777.707 127.457 773.887 120.447C770.067 113.437 772.667 104.627 779.677 100.807C786.687 96.9867 795.497 99.5867 799.317 106.597C802.527 112.487 801.207 119.657 796.537 124.057ZM777.487 103.847C773.197 107.887 771.987 114.467 774.937 119.877C778.447 126.307 786.527 128.697 792.967 125.187C799.407 121.677 801.787 113.597 798.277 107.157C794.767 100.727 786.687 98.3367 780.247 101.847C779.217 102.407 778.297 103.087 777.487 103.847Z" fill="#272ABF"/>
</g>
<g opacity="0.5">
<path opacity="0.5" d="M794.097 121.646C793.417 122.286 792.657 122.846 791.797 123.306C786.437 126.226 779.707 124.246 776.787 118.886C775.377 116.286 775.057 113.296 775.887 110.466C776.727 107.626 778.617 105.286 781.207 103.876C786.567 100.956 793.297 102.936 796.217 108.296C798.677 112.806 797.667 118.286 794.097 121.646ZM779.517 106.206C778.227 107.426 777.267 108.976 776.757 110.726C775.987 113.336 776.287 116.086 777.587 118.466C780.267 123.386 786.457 125.216 791.387 122.536C796.317 119.856 798.137 113.666 795.457 108.736C792.777 103.816 786.587 101.986 781.657 104.666C780.857 105.096 780.147 105.606 779.517 106.206Z" fill="#272ABF"/>
</g>
</g>
<g opacity="0.5">
<g opacity="0.5">
<path opacity="0.5" d="M781.396 107.236L781.706 107.456L788.227 115.756L788.206 115.906L782.566 116.656L781.396 107.236Z" fill="#272ABF"/>
</g>
<g opacity="0.5">
<path opacity="0.5" d="M781.396 107.236L790.266 110.606L788.206 115.906L785.047 111.876L781.396 107.236Z" fill="#272ABF"/>
</g>
<g opacity="0.5">
<path opacity="0.5" d="M788.777 116.637L788.867 116.657L791.187 119.617L791.257 119.787L783.137 117.387L788.777 116.637Z" fill="#272ABF"/>
</g>
<g opacity="0.5">
<path opacity="0.5" d="M791.256 119.786L788.776 116.636L790.846 111.336L791.256 119.786Z" fill="#272ABF"/>
</g>
</g>
</g>
<g opacity="0.5">
<g opacity="0.5">
<g opacity="0.5">
<path opacity="0.5" d="M890.747 53.8462C898.346 53.8462 904.507 47.6856 904.507 40.0862C904.507 32.4867 898.346 26.3262 890.747 26.3262C883.147 26.3262 876.987 32.4867 876.987 40.0862C876.987 47.6856 883.147 53.8462 890.747 53.8462Z" fill="#FDFDFF"/>
<path opacity="0.5" d="M888.207 54.2065C885.687 53.7565 883.257 52.6265 881.207 50.8065C875.297 45.5465 874.767 36.4565 880.037 30.5465C882.587 27.6865 886.097 25.9865 889.927 25.7665C893.757 25.5465 897.437 26.8265 900.297 29.3765C906.207 34.6365 906.737 43.7265 901.467 49.6365C898.027 53.4965 892.957 55.0565 888.207 54.2065ZM893.087 27.1265C892.077 26.9465 891.037 26.8865 889.987 26.9465C886.477 27.1465 883.247 28.7065 880.907 31.3365C876.077 36.7565 876.557 45.1065 881.987 49.9365C887.407 54.7665 895.757 54.2865 900.587 48.8565C902.927 46.2265 904.107 42.8465 903.897 39.3365C903.697 35.8265 902.137 32.5965 899.507 30.2565C897.667 28.6165 895.457 27.5465 893.087 27.1265Z" fill="#272ABF"/>
</g>
<g opacity="0.5">
<path opacity="0.5" d="M888.707 50.8272C886.777 50.4872 884.927 49.6172 883.357 48.2272C878.837 44.2072 878.437 37.2572 882.457 32.7472C886.477 28.2272 893.427 27.8272 897.937 31.8472C900.127 33.7972 901.427 36.4772 901.587 39.4072C901.757 42.3272 900.777 45.1472 898.827 47.3372C896.207 50.2772 892.337 51.4672 888.707 50.8272ZM883.117 33.3272C879.417 37.4772 879.787 43.8672 883.937 47.5572C888.087 51.2572 894.477 50.8872 898.167 46.7372C899.957 44.7272 900.857 42.1372 900.707 39.4472C900.557 36.7572 899.357 34.2972 897.347 32.4972C893.207 28.8072 886.817 29.1772 883.117 33.3272Z" fill="#272ABF"/>
</g>
</g>
<g opacity="0.5">
<g opacity="0.5">
<g opacity="0.5">
<path opacity="0.5" d="M895.157 35.4664C894.147 34.4964 892.797 33.9164 891.407 33.7564C889.597 33.5664 887.737 34.1864 886.377 35.3964C885.997 35.7464 885.617 36.1164 885.397 36.5864C886.517 36.4564 887.647 36.5364 888.767 36.6564C890.587 36.7664 892.407 37.0864 894.237 36.9464C894.677 36.8864 895.207 36.8664 895.487 36.4764C895.677 36.1164 895.377 35.7364 895.157 35.4664Z" fill="#272ABF"/>
</g>
<g opacity="0.5">
<path opacity="0.5" d="M897.217 40.6668C897.277 39.5768 897.077 38.4468 896.587 37.4668C895.697 39.0068 894.327 40.2768 892.677 40.9668C890.697 41.7968 888.377 41.8368 886.407 40.9468C885.607 40.6368 884.917 40.1168 884.217 39.6468C883.797 42.6968 886.007 45.7968 888.967 46.5568C890.727 47.0668 892.697 46.7368 894.237 45.7368C895.957 44.6368 897.097 42.6968 897.217 40.6668Z" fill="#272ABF"/>
</g>
</g>
<g opacity="0.5">
<path opacity="0.5" d="M888.767 36.6562C887.647 36.5362 886.517 36.4562 885.397 36.5862L885.327 36.5962C884.977 37.1862 884.637 37.7962 884.477 38.4762C885.007 38.4762 885.517 38.2962 886.027 38.1662C887.027 37.8662 888.077 37.4862 888.767 36.6562Z" fill="#272ABF"/>
</g>
</g>
</g>
<g opacity="0.5">
<g opacity="0.5">
<g opacity="0.5">
<path opacity="0.5" d="M938.497 271.026C946.461 271.026 952.917 264.569 952.917 256.606C952.917 248.642 946.461 242.186 938.497 242.186C930.533 242.186 924.077 248.642 924.077 256.606C924.077 264.569 930.533 271.026 938.497 271.026Z" fill="#FDFDFF"/>
<path opacity="0.5" d="M935.827 271.406C933.127 270.926 930.597 269.706 928.497 267.826C925.497 265.156 923.717 261.476 923.487 257.466C923.257 253.456 924.597 249.596 927.267 246.596C932.787 240.406 942.307 239.856 948.497 245.366C954.687 250.876 955.237 260.406 949.727 266.596C947.057 269.596 943.377 271.376 939.367 271.606C938.167 271.686 936.977 271.616 935.827 271.406ZM940.937 243.026C936.367 242.206 931.487 243.716 928.187 247.426C925.737 250.176 924.507 253.726 924.717 257.406C924.927 261.086 926.567 264.466 929.317 266.916C932.067 269.366 935.617 270.606 939.297 270.386C942.977 270.176 946.357 268.536 948.807 265.786C953.867 260.106 953.367 251.366 947.677 246.296C945.707 244.536 943.367 243.456 940.937 243.026Z" fill="#272ABF"/>
</g>
<g opacity="0.5">
<path opacity="0.5" d="M936.347 267.857C934.277 267.487 932.347 266.557 930.747 265.127C926.017 260.917 925.597 253.637 929.807 248.907C931.847 246.617 934.657 245.257 937.727 245.077C940.787 244.897 943.737 245.927 946.037 247.967C948.327 250.007 949.687 252.817 949.867 255.887C950.047 258.947 949.017 261.897 946.977 264.197C944.937 266.487 942.127 267.847 939.057 268.027C938.137 268.067 937.227 268.007 936.347 267.857ZM940.267 246.137C939.457 245.997 938.627 245.947 937.777 245.987C934.957 246.147 932.377 247.397 930.497 249.507C926.627 253.857 927.007 260.547 931.357 264.417C933.467 266.297 936.177 267.237 938.997 267.077C941.817 266.917 944.397 265.667 946.277 263.557C948.157 261.447 949.097 258.737 948.937 255.917C948.777 253.097 947.527 250.517 945.417 248.637C943.937 247.337 942.157 246.477 940.267 246.137Z" fill="#272ABF"/>
</g>
</g>
<g opacity="0.5">
<path opacity="0.5" d="M936.187 253.557C936.507 253.427 936.727 253.527 936.857 253.847L938.247 255.497L939.067 256.637L940.367 258.507C940.497 258.827 940.717 258.917 941.037 258.797L942.967 258.577C943.187 258.677 943.287 258.447 943.477 258.007L944.147 256.457C944.247 256.237 944.117 255.917 943.987 255.597L942.947 254.357C942.817 254.037 942.597 253.947 942.277 254.067L940.657 254.157C940.337 254.287 940.027 254.407 939.927 254.627L939.447 255.737L938.627 254.597L939.107 253.487C939.207 253.267 939.517 253.137 939.837 253.017L942.847 252.737C943.167 252.607 943.387 252.707 943.517 253.027L945.607 255.497C945.737 255.817 945.857 256.127 945.767 256.357L944.527 259.237C944.337 259.677 944.017 259.807 943.797 259.707L940.467 260.117C940.147 260.247 939.927 260.147 939.797 259.827L938.407 258.177L937.587 257.037L936.197 255.387C936.067 255.067 935.847 254.977 935.527 255.097L933.907 255.187C933.687 255.087 933.367 255.217 933.277 255.437L932.607 256.987C932.507 257.207 932.637 257.527 932.767 257.847L933.717 259.307C933.847 259.627 934.067 259.717 934.387 259.597L936.097 259.287C936.317 259.387 936.637 259.257 936.727 259.037L937.207 257.927L938.027 259.067L937.547 260.177C937.447 260.397 937.137 260.527 936.817 260.647L933.487 261.057C933.167 261.187 932.947 261.087 932.817 260.767L930.827 258.067C930.927 257.847 930.797 257.527 930.887 257.307L932.227 254.207C932.327 253.987 932.637 253.857 932.957 253.737L936.187 253.557Z" fill="#272ABF"/>
</g>
</g>
</g>
<g opacity="0.8">
<g opacity="0.8">
<g opacity="0.8">
<path opacity="0.8" d="M1059.68 145.596C1068.63 145.596 1075.9 138.334 1075.9 129.376C1075.9 120.418 1068.63 113.156 1059.68 113.156C1050.72 113.156 1043.46 120.418 1043.46 129.376C1043.46 138.334 1050.72 145.596 1059.68 145.596Z" fill="#FDFDFF"/>
<path opacity="0.8" d="M1056.68 146.026C1053.64 145.486 1050.8 144.116 1048.43 142.006C1045.06 139.006 1043.06 134.866 1042.79 130.356C1042.53 125.846 1044.04 121.506 1047.04 118.136C1053.24 111.176 1063.95 110.556 1070.92 116.756C1077.88 122.956 1078.5 133.666 1072.3 140.636C1069.3 144.006 1065.16 146.006 1060.65 146.276C1059.31 146.336 1057.97 146.256 1056.68 146.026ZM1062.43 114.106C1057.29 113.186 1051.81 114.876 1048.09 119.056C1045.33 122.156 1043.95 126.136 1044.19 130.276C1044.43 134.416 1046.27 138.216 1049.36 140.966C1052.46 143.726 1056.44 145.116 1060.58 144.866C1064.72 144.626 1068.52 142.786 1071.27 139.696C1076.96 133.306 1076.39 123.476 1070 117.786C1067.78 115.816 1065.15 114.596 1062.43 114.106Z" fill="#272ABF"/>
</g>
<g opacity="0.8">
<path opacity="0.8" d="M1057.26 142.037C1054.94 141.627 1052.77 140.577 1050.96 138.967C1045.64 134.227 1045.17 126.047 1049.9 120.727C1052.2 118.147 1055.36 116.617 1058.8 116.417C1062.25 116.217 1065.56 117.377 1068.14 119.667C1070.72 121.957 1072.25 125.127 1072.45 128.567C1072.65 132.017 1071.49 135.327 1069.2 137.907C1066.91 140.487 1063.74 142.017 1060.3 142.217C1059.27 142.267 1058.25 142.207 1057.26 142.037ZM1061.66 117.617C1060.75 117.457 1059.81 117.397 1058.87 117.457C1055.7 117.637 1052.8 119.047 1050.69 121.417C1046.33 126.307 1046.77 133.827 1051.66 138.187C1054.03 140.297 1057.08 141.357 1060.25 141.177C1063.42 140.997 1066.32 139.587 1068.43 137.217C1070.54 134.847 1071.6 131.797 1071.42 128.627C1071.24 125.457 1069.83 122.557 1067.46 120.447C1065.79 118.967 1063.8 117.997 1061.66 117.617Z" fill="#272ABF"/>
</g>
</g>
<g opacity="0.8">
<path opacity="0.8" d="M1057.08 125.956C1057.44 125.816 1057.69 125.926 1057.83 126.276L1059.4 128.136L1060.32 129.416L1061.78 131.516C1061.92 131.876 1062.17 131.976 1062.53 131.836L1064.7 131.586C1064.95 131.696 1065.06 131.446 1065.27 130.946L1066.02 129.196C1066.13 128.946 1065.99 128.586 1065.84 128.236L1064.67 126.846C1064.53 126.486 1064.28 126.386 1063.92 126.526L1062.1 126.626C1061.74 126.766 1061.39 126.906 1061.28 127.156L1060.74 128.406L1059.82 127.126L1060.36 125.876C1060.47 125.626 1060.82 125.486 1061.18 125.346L1064.57 125.026C1064.93 124.886 1065.18 124.996 1065.32 125.346L1067.67 128.126C1067.81 128.486 1067.95 128.836 1067.85 129.086L1066.46 132.326C1066.25 132.826 1065.89 132.966 1065.64 132.856L1061.9 133.316C1061.54 133.456 1061.29 133.346 1061.15 132.996L1059.58 131.136L1058.66 129.856L1057.09 127.996C1056.95 127.636 1056.7 127.536 1056.34 127.676L1054.52 127.776C1054.27 127.666 1053.91 127.806 1053.81 128.056L1053.06 129.806C1052.95 130.056 1053.09 130.416 1053.24 130.766L1054.31 132.406C1054.45 132.766 1054.7 132.866 1055.06 132.726L1056.98 132.376C1057.23 132.486 1057.59 132.346 1057.69 132.096L1058.23 130.846L1059.15 132.126L1058.61 133.376C1058.5 133.626 1058.15 133.766 1057.79 133.906L1054.05 134.366C1053.69 134.506 1053.44 134.396 1053.3 134.046L1051.06 131.016C1051.17 130.766 1051.03 130.406 1051.13 130.156L1052.63 126.666C1052.74 126.416 1053.09 126.276 1053.45 126.136L1057.08 125.956Z" fill="#272ABF"/>
</g>
</g>
<path d="M869.657 179.327C880.189 179.327 888.727 170.79 888.727 160.257C888.727 149.725 880.189 141.188 869.657 141.188C859.125 141.188 850.587 149.725 850.587 160.257C850.587 170.79 859.125 179.327 869.657 179.327Z" fill="#FDFDFF"/>
<path d="M866.127 179.827C862.547 179.187 859.217 177.577 856.437 175.097C852.467 171.567 850.117 166.697 849.807 161.397C849.497 156.097 851.277 150.987 854.807 147.027C862.097 138.837 874.687 138.107 882.877 145.407C891.067 152.697 891.797 165.297 884.497 173.477C880.967 177.447 876.097 179.797 870.797 180.107C869.227 180.197 867.657 180.097 866.127 179.827ZM872.897 142.297C866.857 141.217 860.407 143.207 856.037 148.117C852.797 151.757 851.167 156.437 851.447 161.307C851.727 166.177 853.887 170.637 857.527 173.877C861.167 177.117 865.847 178.747 870.717 178.467C875.587 178.187 880.047 176.027 883.287 172.387C889.977 164.877 889.307 153.317 881.797 146.627C879.187 144.307 876.097 142.877 872.897 142.297Z" fill="#272ABF"/>
<path d="M866.817 175.128C864.087 174.638 861.537 173.408 859.407 171.518C853.147 165.948 852.597 156.328 858.167 150.068C860.867 147.038 864.587 145.238 868.637 145.008C872.687 144.778 876.587 146.128 879.617 148.828C882.647 151.528 884.447 155.248 884.677 159.298C884.907 163.348 883.557 167.248 880.857 170.278C878.157 173.308 874.437 175.108 870.387 175.338C869.187 175.408 867.987 175.338 866.817 175.128ZM871.997 146.428C870.927 146.238 869.827 146.168 868.707 146.238C864.987 146.458 861.567 148.108 859.087 150.888C853.967 156.638 854.477 165.488 860.227 170.608C863.017 173.088 866.597 174.338 870.327 174.118C874.047 173.898 877.467 172.248 879.947 169.468C882.427 166.678 883.677 163.098 883.457 159.368C883.237 155.648 881.587 152.228 878.807 149.748C876.857 148.008 874.507 146.868 871.997 146.428Z" fill="#272ABF"/>
<path d="M866.607 156.236C867.027 156.066 867.317 156.196 867.487 156.616L869.327 158.796L870.417 160.306L872.127 162.776C872.297 163.196 872.587 163.326 873.007 163.156L875.567 162.866C875.857 162.996 875.987 162.696 876.237 162.116L877.117 160.066C877.247 159.776 877.077 159.356 876.907 158.936L875.527 157.296C875.357 156.876 875.067 156.746 874.647 156.916L872.507 157.036C872.087 157.206 871.667 157.366 871.547 157.666L870.917 159.136L869.827 157.626L870.457 156.156C870.587 155.866 871.007 155.696 871.417 155.526L875.397 155.156C875.817 154.986 876.107 155.116 876.277 155.536L879.037 158.806C879.207 159.226 879.367 159.646 879.247 159.936L877.607 163.746C877.357 164.336 876.937 164.496 876.647 164.376L872.247 164.916C871.827 165.086 871.537 164.956 871.367 164.536L869.527 162.356L868.437 160.846L866.597 158.666C866.427 158.246 866.137 158.116 865.717 158.286L863.577 158.406C863.287 158.276 862.867 158.446 862.737 158.736L861.857 160.786C861.727 161.076 861.897 161.496 862.067 161.916L863.317 163.846C863.487 164.266 863.777 164.396 864.197 164.226L866.457 163.806C866.747 163.936 867.167 163.766 867.297 163.476L867.927 162.006L869.017 163.516L868.387 164.986C868.257 165.276 867.837 165.446 867.427 165.616L863.027 166.156C862.607 166.326 862.317 166.196 862.147 165.776L859.517 162.216C859.647 161.926 859.477 161.506 859.607 161.206L861.377 157.106C861.507 156.816 861.927 156.646 862.337 156.476L866.607 156.236Z" fill="#272ABF"/>
<path d="M982.507 59.867C992.376 59.867 1000.38 51.8663 1000.38 41.997C1000.38 32.1276 992.376 24.127 982.507 24.127C972.637 24.127 964.637 32.1276 964.637 41.997C964.637 51.8663 972.637 59.867 982.507 59.867Z" fill="#FDFDFF"/>
<path d="M993.107 57.3165C990.377 59.2165 987.107 60.4065 983.547 60.6065C973.287 61.1765 964.467 53.2965 963.897 43.0365C963.617 38.0665 965.297 33.2865 968.607 29.5765C971.927 25.8665 976.487 23.6665 981.457 23.3865C991.717 22.8165 1000.54 30.6965 1001.11 40.9565C1001.49 47.6565 998.257 53.7365 993.107 57.3165ZM972.767 27.9165C971.677 28.6765 970.657 29.5665 969.747 30.5865C966.697 33.9965 965.167 38.3765 965.417 42.9465C965.947 52.3665 974.037 59.5965 983.447 59.0665C992.857 58.5365 1000.1 50.4465 999.567 41.0365C999.307 36.4765 997.297 32.2865 993.887 29.2465C990.477 26.2065 986.097 24.6665 981.537 24.9165C978.347 25.0965 975.337 26.1365 972.767 27.9165Z" fill="#272ABF"/>
<path d="M990.457 53.747C988.367 55.197 985.867 56.107 983.147 56.257C975.307 56.697 968.567 50.677 968.137 42.837C967.697 34.997 973.717 28.257 981.557 27.827C985.357 27.617 989.007 28.897 991.847 31.427C994.687 33.967 996.357 37.447 996.577 41.247C996.857 46.357 994.387 51.007 990.457 53.747ZM969.287 42.767C969.687 49.977 975.877 55.507 983.087 55.107C990.297 54.707 995.827 48.517 995.427 41.307C995.227 37.817 993.687 34.607 991.077 32.277C988.467 29.947 985.117 28.767 981.617 28.967C974.417 29.367 968.887 35.557 969.287 42.767Z" fill="#272ABF"/>
<path d="M982.317 33.707C980.497 33.747 978.727 34.447 977.307 35.567C975.467 37.047 974.327 39.327 974.187 41.687C974.157 42.357 974.147 43.037 974.367 43.677C975.277 42.527 976.387 41.577 977.527 40.657C979.297 39.087 981.267 37.717 982.817 35.907C983.167 35.457 983.637 34.947 983.537 34.327C983.397 33.817 982.767 33.747 982.317 33.707Z" fill="#272ABF"/>
<path d="M988.987 36.5966C988.037 35.5366 986.827 34.6766 985.477 34.2266C986.067 36.4566 985.967 38.8766 985.087 41.0266C984.027 43.6066 981.927 45.7666 979.307 46.7566C978.287 47.1966 977.177 47.3566 976.097 47.5666C978.507 50.7566 983.387 51.5866 986.797 49.5666C988.887 48.4166 990.397 46.3066 990.897 43.9866C991.457 41.4066 990.737 38.5766 988.987 36.5966Z" fill="#272ABF"/>
<path d="M977.527 40.6562C976.397 41.5763 975.277 42.5263 974.367 43.6763L974.307 43.7463C974.527 44.6163 974.777 45.4863 975.247 46.2463C975.737 45.7563 976.047 45.1263 976.397 44.5363C977.037 43.3563 977.667 42.0462 977.527 40.6562Z" fill="#272ABF"/>
<path d="M1039.66 98.4655C1050.09 98.4655 1058.55 90.0082 1058.55 79.5755C1058.55 69.1429 1050.09 60.6855 1039.66 60.6855C1029.22 60.6855 1020.77 69.1429 1020.77 79.5755C1020.77 90.0082 1029.22 98.4655 1039.66 98.4655Z" fill="#FDFDFF"/>
<path d="M1036.19 98.9661C1034.56 98.6761 1032.94 98.1761 1031.37 97.4461C1021.51 92.8761 1017.21 81.1461 1021.77 71.2861C1026.34 61.4261 1038.07 57.1261 1047.93 61.6861C1057.79 66.2561 1062.09 77.9861 1057.53 87.8461C1053.7 96.1361 1044.79 100.506 1036.19 98.9661ZM1042.84 61.7761C1034.95 60.3661 1026.78 64.3761 1023.26 71.9761C1019.07 81.0261 1023.02 91.7861 1032.07 95.9761C1041.12 100.166 1051.88 96.2161 1056.07 87.1661C1060.26 78.1161 1056.31 67.3561 1047.26 63.1661C1045.82 62.4961 1044.33 62.0361 1042.84 61.7761Z" fill="#272ABF"/>
<path d="M1036.85 94.3554C1035.61 94.1354 1034.37 93.7554 1033.17 93.1954C1025.64 89.7054 1022.35 80.7354 1025.84 73.2054C1027.53 69.5554 1030.54 66.7854 1034.32 65.3954C1038.1 64.0054 1042.18 64.1754 1045.83 65.8654C1053.36 69.3554 1056.65 78.3154 1053.16 85.8554C1050.23 92.1954 1043.42 95.5254 1036.85 94.3554ZM1041.91 65.9054C1039.53 65.4854 1037.07 65.6954 1034.74 66.5454C1031.27 67.8154 1028.5 70.3654 1026.95 73.7154C1023.74 80.6354 1026.77 88.8754 1033.69 92.0854C1040.61 95.2954 1048.86 92.2654 1052.06 85.3454C1055.27 78.4254 1052.24 70.1754 1045.32 66.9754C1044.21 66.4754 1043.07 66.1154 1041.91 65.9054Z" fill="#272ABF"/>
<path d="M1042.31 68.7969L1042.32 69.3169L1038.53 83.1569L1038.35 83.2669L1032.96 77.7069L1042.31 68.7969Z" fill="#272ABF"/>
<path d="M1042.31 68.7969L1045.82 81.2269L1038.35 83.2669L1040.19 76.5369L1042.31 68.7969Z" fill="#272ABF"/>
<path d="M1038.02 84.476L1038.07 84.596L1036.72 89.526L1036.58 89.736L1032.63 78.916L1038.02 84.476Z" fill="#272ABF"/>
<path d="M1036.58 89.7375L1038.02 84.4775L1045.49 82.4375L1036.58 89.7375Z" fill="#272ABF"/>
<g opacity="0.5">
<path opacity="0.5" d="M984.717 237.855C985.308 237.855 985.787 237.376 985.787 236.785C985.787 236.194 985.308 235.715 984.717 235.715C984.126 235.715 983.647 236.194 983.647 236.785C983.647 237.376 984.126 237.855 984.717 237.855Z" fill="#C0C1F1"/>
<path opacity="0.5" d="M1062.86 184.175C1063.45 184.175 1063.93 183.696 1063.93 183.105C1063.93 182.514 1063.45 182.035 1062.86 182.035C1062.27 182.035 1061.79 182.514 1061.79 183.105C1061.79 183.696 1062.27 184.175 1062.86 184.175Z" fill="#C0C1F1"/>
<path opacity="0.5" d="M1022.32 154.697C1022.91 154.697 1023.39 154.218 1023.39 153.627C1023.39 153.036 1022.91 152.557 1022.32 152.557C1021.73 152.557 1021.25 153.036 1021.25 153.627C1021.25 154.218 1021.73 154.697 1022.32 154.697Z" fill="#C0C1F1"/>
<path opacity="0.5" d="M1062.86 112.015C1063.45 112.015 1063.93 111.536 1063.93 110.945C1063.93 110.354 1063.45 109.875 1062.86 109.875C1062.27 109.875 1061.79 110.354 1061.79 110.945C1061.79 111.536 1062.27 112.015 1062.86 112.015Z" fill="#C0C1F1"/>
<path opacity="0.5" d="M944.117 89.7455C944.708 89.7455 945.187 89.2664 945.187 88.6755C945.187 88.0845 944.708 87.6055 944.117 87.6055C943.526 87.6055 943.047 88.0845 943.047 88.6755C943.047 89.2664 943.526 89.7455 944.117 89.7455Z" fill="#C0C1F1"/>
<path opacity="0.5" d="M880.187 214.515C880.778 214.515 881.257 214.036 881.257 213.445C881.257 212.854 880.778 212.375 880.187 212.375C879.596 212.375 879.117 212.854 879.117 213.445C879.117 214.036 879.596 214.515 880.187 214.515Z" fill="#C0C1F1"/>
<path opacity="0.5" d="M828.427 111.005C829.018 111.005 829.497 110.526 829.497 109.935C829.497 109.344 829.018 108.865 828.427 108.865C827.836 108.865 827.357 109.344 827.357 109.935C827.357 110.526 827.836 111.005 828.427 111.005Z" fill="#C0C1F1"/>
<path opacity="0.5" d="M732.547 225.206C733.138 225.206 733.617 224.727 733.617 224.136C733.617 223.545 733.138 223.066 732.547 223.066C731.956 223.066 731.477 223.545 731.477 224.136C731.477 224.727 731.956 225.206 732.547 225.206Z" fill="#C0C1F1"/>
<path opacity="0.5" d="M598.587 108.495C599.178 108.495 599.657 108.016 599.657 107.425C599.657 106.835 599.178 106.355 598.587 106.355C597.996 106.355 597.517 106.835 597.517 107.425C597.517 108.016 597.996 108.495 598.587 108.495Z" fill="#C0C1F1"/>
<path opacity="0.5" d="M429.057 246.566C429.648 246.566 430.127 246.087 430.127 245.496C430.127 244.905 429.648 244.426 429.057 244.426C428.466 244.426 427.987 244.905 427.987 245.496C427.987 246.087 428.466 246.566 429.057 246.566Z" fill="#C0C1F1"/>
<path opacity="0.5" d="M448.847 287.156C449.438 287.156 449.917 286.677 449.917 286.086C449.917 285.495 449.438 285.016 448.847 285.016C448.256 285.016 447.777 285.495 447.777 286.086C447.777 286.677 448.256 287.156 448.847 287.156Z" fill="#C0C1F1"/>
<path opacity="0.5" d="M649.327 48.6166C649.918 48.6166 650.397 48.1375 650.397 47.5466C650.397 46.9556 649.918 46.4766 649.327 46.4766C648.736 46.4766 648.257 46.9556 648.257 47.5466C648.257 48.1375 648.736 48.6166 649.327 48.6166Z" fill="#C0C1F1"/>
<path opacity="0.5" d="M772.607 92.7357C773.198 92.7357 773.677 92.2566 773.677 91.6657C773.677 91.0748 773.198 90.5957 772.607 90.5957C772.016 90.5957 771.537 91.0748 771.537 91.6657C771.537 92.2566 772.016 92.7357 772.607 92.7357Z" fill="#C0C1F1"/>
<path opacity="0.5" d="M784.307 48.6166C784.898 48.6166 785.377 48.1375 785.377 47.5466C785.377 46.9556 784.898 46.4766 784.307 46.4766C783.716 46.4766 783.237 46.9556 783.237 47.5466C783.237 48.1375 783.716 48.6166 784.307 48.6166Z" fill="#C0C1F1"/>
<path opacity="0.5" d="M736.607 274.925C737.198 274.925 737.677 274.446 737.677 273.855C737.677 273.264 737.198 272.785 736.607 272.785C736.016 272.785 735.537 273.264 735.537 273.855C735.537 274.446 736.016 274.925 736.607 274.925Z" fill="#C0C1F1"/>
<path opacity="0.5" d="M919.767 58.2357C920.358 58.2357 920.837 57.7566 920.837 57.1657C920.837 56.5748 920.358 56.0957 919.767 56.0957C919.176 56.0957 918.697 56.5748 918.697 57.1657C918.697 57.7566 919.176 58.2357 919.767 58.2357Z" fill="#C0C1F1"/>
<path opacity="0.5" d="M963.407 12.5658C963.998 12.5658 964.477 12.0867 964.477 11.4958C964.477 10.9048 963.998 10.4258 963.407 10.4258C962.816 10.4258 962.337 10.9048 962.337 11.4958C962.337 12.0867 962.816 12.5658 963.407 12.5658Z" fill="#C0C1F1"/>
</g>
<path opacity="0.57" d="M422.237 315.335C421.487 314.185 420.337 313.105 418.727 312.175C415.617 310.365 412.187 308.785 409.647 306.175C407.057 303.515 406.837 299.785 404.257 297.165C398.927 291.755 392.437 297.995 391.197 303.455C389.967 308.825 391.067 315.345 393.497 320.255C396.487 326.305 403.327 331.505 410.457 331.125C417.157 330.765 426.987 322.615 422.237 315.335Z" fill="#424156"/>
<path opacity="0.57" d="M370.046 298.024C369.766 301.364 370.826 305.174 372.016 307.484C372.556 308.524 373.186 309.564 374.116 310.284C376.056 311.784 379.136 311.094 379.926 308.654C380.266 307.614 380.186 306.484 380.106 305.384C379.886 302.394 379.666 299.414 379.446 296.424C379.376 295.424 379.286 294.384 378.796 293.504C377.736 291.634 374.986 291.204 373.136 292.304C371.126 293.494 370.246 295.634 370.046 298.024Z" fill="#424156"/>
<path d="M685.437 378.485C679.197 378.095 674.657 378.565 668.757 380.055C663.407 381.405 657.617 381.205 652.397 379.435C645.557 377.115 641.937 372.795 633.767 373.905C627.327 374.775 622.167 378.975 615.637 379.945C610.917 380.645 605.647 379.615 602.457 376.175C601.017 374.615 600.017 372.615 598.217 371.465C595.497 369.725 591.907 370.445 588.757 371.235C576.507 374.285 566.267 381.655 554.057 385.525C552.017 386.175 549.077 386.375 548.397 384.395C547.977 383.185 548.797 381.895 549.757 381.035C550.727 380.165 551.897 379.465 552.537 378.355C553.177 377.245 552.947 375.505 551.687 375.125C548.167 374.055 540.317 379.735 537.047 381.005C531.717 383.085 526.127 384.655 520.347 384.785C519.027 384.815 517.487 384.655 516.787 383.575C516.387 382.965 516.367 382.185 516.487 381.465C517.227 377.315 522.467 373.955 520.937 370.015C519.877 367.275 516.227 366.595 513.217 366.625C504.737 366.685 496.287 368.935 488.967 373.085C484.697 375.505 480.487 378.655 475.537 378.785C473.817 378.825 471.747 378.175 471.417 376.535C471.217 375.565 472.027 374.465 472.787 373.815C477.907 369.365 480.727 366.495 486.267 361.195C491.487 356.205 497.967 352.785 504.207 349.095C518.107 340.865 533.077 334.405 548.517 329.415C578.487 319.725 610.207 315.415 641.727 314.745C642.957 314.715 644.177 314.705 645.407 314.695C678.497 314.455 712.107 320.025 742.737 332.335C758.517 338.685 773.547 346.925 786.847 357.345C791.897 361.305 797.937 363.915 802.527 368.455C804.497 370.405 806.567 373.025 806.487 375.915C806.387 379.765 804.217 381.495 801.017 383.305C798.157 384.925 794.727 385.995 791.557 386.875C789.597 387.415 787.367 387.695 785.337 387.625C784.247 387.585 782.827 387.665 782.487 386.435C782.187 385.345 783.257 384.255 784.097 383.805C786.157 382.695 793.827 381.715 793.537 378.315C793.217 374.535 776.317 381.405 774.197 382.015C771.237 382.865 767.887 383.675 765.207 382.185C763.547 381.265 762.457 379.585 760.877 378.545C754.477 374.335 745.967 382.515 738.497 380.575C736.747 380.125 735.177 379.125 733.397 378.815C730.777 378.355 728.167 379.415 725.627 380.155C712.677 383.885 698.927 379.325 685.437 378.485Z" fill="#7B7D9B"/>
<path d="M470.017 376.175C491.337 354.085 518.947 339.095 548.347 329.585C578.317 319.895 610.037 315.585 641.557 314.915C642.787 314.885 644.007 314.875 645.237 314.865C678.327 314.625 711.937 320.195 742.567 332.505C754.817 337.435 766.617 343.495 777.507 350.855C787.847 357.835 798.927 363.075 807.027 372.865" stroke="#0C0D46" stroke-width="1.5" stroke-miterlimit="10" stroke-linecap="round" stroke-linejoin="round"/>
<path opacity="0.3" d="M594.006 319.364C602.436 318.424 611.596 316.624 620.066 316.164C627.806 315.744 636.016 316.074 643.756 315.654C652.296 315.184 662.177 315.434 670.417 317.724C672.497 321.574 675.796 324.224 677.876 328.074C678.946 330.064 682.326 333.494 683.016 335.654C684.776 341.144 675.946 342.794 672.436 343.844C670.036 344.564 668.216 345.554 666.136 346.924C657.246 352.784 648.036 354.794 637.716 356.034C626.296 357.404 616.046 358.874 604.566 356.334C602.216 355.814 599.846 355.174 597.436 355.284C593.086 355.494 589.277 358.084 585.427 360.114C569.657 368.414 549.427 367.474 534.497 357.734C533.597 357.144 532.686 356.514 531.626 356.314C530.726 356.144 529.806 356.284 528.906 356.404C520.306 357.564 505.056 357.464 497.146 353.894C497.136 353.914 533.286 326.104 594.006 319.364Z" fill="#0C0D46"/>
<path opacity="0.3" d="M732.815 375.063C757.953 374.801 778.288 370.497 778.236 365.45C778.183 360.403 757.763 356.523 732.625 356.784C707.488 357.046 687.152 361.35 687.205 366.397C687.257 371.444 707.678 375.324 732.815 375.063Z" fill="#0C0D46"/>
<path d="M630.867 323.406C630.867 323.406 639.847 324.746 650.307 332.706C651.537 333.646 651.097 335.656 649.597 335.936C642.947 337.186 629.217 339.706 622.467 340.416L630.867 323.406Z" fill="#C9C5E6" stroke="#0C0D46" stroke-width="1.5" stroke-miterlimit="10" stroke-linecap="round" stroke-linejoin="round"/>
<path d="M558.457 295.316C566.467 282.286 577.457 271.096 590.337 262.856C596.167 259.126 602.647 256.296 609.767 257.416C635.057 261.396 625.167 305.526 618.567 320.866C618.787 320.346 632.647 323.266 634.067 323.776C634.067 323.776 635.447 328.686 630.237 339.386C624.717 340.396 620.297 341.356 617.347 342.026C611.167 343.436 607.707 344.306 602.707 343.806C600.297 343.566 597.907 342.866 596.007 341.296C593.297 339.066 594.007 334.536 594.047 331.446C594.117 326.666 594.687 321.926 596.187 317.366C590.427 326.346 583.047 333.126 574.597 339.776" fill="#C9C5E6"/>
<path d="M558.457 295.316C566.467 282.286 577.457 271.096 590.337 262.856C596.167 259.126 602.647 256.296 609.767 257.416C635.057 261.396 625.167 305.526 618.567 320.866C618.787 320.346 632.647 323.266 634.067 323.776C634.067 323.776 635.447 328.686 630.237 339.386C624.717 340.396 620.297 341.356 617.347 342.026C611.167 343.436 607.707 344.306 602.707 343.806C600.297 343.566 597.907 342.866 596.007 341.296C593.297 339.066 594.007 334.536 594.047 331.446C594.117 326.666 594.687 321.926 596.187 317.366C590.427 326.346 583.047 333.126 574.597 339.776" stroke="#0C0D46" stroke-width="1.5" stroke-miterlimit="10" stroke-linecap="round" stroke-linejoin="round"/>
<path d="M627.206 322.396C627.206 322.396 625.596 334.456 619.546 341.446Z" fill="#C9C5E6"/>
<path d="M627.206 322.396C627.206 322.396 625.596 334.456 619.546 341.446" stroke="#0C0D46" stroke-width="1.5" stroke-miterlimit="10" stroke-linecap="round" stroke-linejoin="round"/>
<path d="M595.546 318.466C598.296 313.646 602.896 303.746 603.906 298.766Z" fill="#C9C5E6"/>
<path d="M595.546 318.466C598.296 313.646 602.896 303.746 603.906 298.766" stroke="#0C0D46" stroke-width="1.5" stroke-miterlimit="10" stroke-linecap="round" stroke-linejoin="round"/>
<path d="M597.836 259.496C597.836 259.496 604.806 273.016 622.776 267.436Z" fill="#C9C5E6"/>
<path d="M597.836 259.496C597.836 259.496 604.806 273.016 622.776 267.436" stroke="#0C0D46" stroke-width="1.5" stroke-miterlimit="10" stroke-linecap="round" stroke-linejoin="round"/>
<path d="M568.696 238.796C568.576 235.916 568.646 233.036 568.696 230.066C568.786 224.826 568.136 223.366 563.896 220.216C550.146 210.006 536.546 204.756 519.256 205.126C515.366 205.216 513.466 213.176 512.516 215.966C502.766 244.416 505.696 276.456 514.086 304.866C520.306 325.936 533.657 352.966 558.867 354.566C571.777 355.386 585.926 352.846 594.826 342.576C598.536 338.286 596.156 336.776 594.956 332.436C593.336 326.606 592.986 320.236 591.696 314.296C589.056 302.136 585.437 290.186 580.907 278.596C576.747 267.956 571.667 257.466 569.497 246.176C569.027 243.676 568.796 241.236 568.696 238.796Z" fill="white" stroke="#0C0D46" stroke-width="1.5" stroke-miterlimit="10" stroke-linecap="round" stroke-linejoin="round"/>
<path d="M526.126 336.435C528.066 333.965 529.296 330.895 530.366 327.895C532.346 322.405 534.096 316.825 535.596 311.175L528.716 330.715C531.136 323.155 533.556 315.585 535.966 308.025C534.306 307.735 517.426 307.255 517.156 308.175C514.286 317.685 512.276 327.525 507.156 335.895C512.816 338.615 519.536 338.205 526.126 336.435Z" fill="#C9C5E6" stroke="#0C0D46" stroke-width="1.5" stroke-miterlimit="10" stroke-linecap="round" stroke-linejoin="round"/>
<path d="M507.206 335.975C505.976 337.985 504.576 339.915 502.936 341.725C499.206 345.855 495.086 350.065 493.816 355.485C501.336 350.285 509.356 345.805 517.726 342.125C519.906 341.165 522.146 340.235 524.006 338.745C524.816 338.085 525.536 337.345 526.166 336.525C519.576 338.295 512.866 338.705 507.206 335.975Z" fill="#FFEAD4" stroke="#0C0D46" stroke-width="1.5" stroke-miterlimit="10" stroke-linecap="round" stroke-linejoin="round"/>
<path d="M495.116 353.235C495.636 351.765 496.736 350.505 497.846 349.375C502.776 344.345 508.046 340.895 514.516 338.105" stroke="#0C0D46" stroke-miterlimit="10" stroke-linecap="round" stroke-linejoin="round"/>
<path d="M563.106 168.924C555.866 174.214 549.706 183.664 552.926 193.014C556.646 202.644 564.876 207.664 574.186 210.364C579.516 200.774 585.166 191.074 585.366 179.784C585.436 175.944 584.566 172.114 582.936 168.654C577.296 164.444 569.106 164.544 563.106 168.924Z" fill="#EDCDA4" stroke="#0C0D46" stroke-width="1.5" stroke-miterlimit="10" stroke-linecap="round" stroke-linejoin="round"/>
<path d="M573.067 212.316C573.457 211.596 573.857 210.886 574.257 210.166C564.957 207.466 556.727 202.436 552.997 192.816C549.767 183.466 555.927 174.016 563.177 168.726C569.177 164.346 577.367 164.246 583.007 168.456C580.547 163.236 576.347 158.856 570.917 156.606C560.037 152.096 548.127 157.646 540.597 165.746C530.167 176.956 524.027 190.806 519.267 205.116C539.307 204.646 549.867 208.666 568.847 223.826C569.727 219.796 571.107 215.886 573.067 212.316Z" fill="#D6A35F" stroke="#0C0D46" stroke-width="1.5" stroke-miterlimit="10" stroke-linecap="round" stroke-linejoin="round"/>
<path d="M567.937 162.115C566.007 160.495 564.517 158.355 563.667 155.975C563.267 154.875 563.007 153.685 563.207 152.525C563.397 151.365 564.117 150.255 565.217 149.835C566.647 149.295 568.307 150.085 569.237 151.295C570.167 152.505 570.537 154.045 570.887 155.535C570.437 154.625 571.587 153.555 572.587 153.765C573.587 153.975 574.237 154.945 574.557 155.915C575.007 157.295 575.007 158.775 575.307 160.195" fill="#D6A35F"/>
<path d="M567.937 162.115C566.007 160.495 564.517 158.355 563.667 155.975C563.267 154.875 563.007 153.685 563.207 152.525C563.397 151.365 564.117 150.255 565.217 149.835C566.647 149.295 568.307 150.085 569.237 151.295C570.167 152.505 570.537 154.045 570.887 155.535C570.437 154.625 571.587 153.555 572.587 153.765C573.587 153.975 574.237 154.945 574.557 155.915C575.007 157.295 575.007 158.775 575.307 160.195" stroke="#0C0D46" stroke-width="1.5" stroke-miterlimit="10" stroke-linecap="round" stroke-linejoin="round"/>
<path d="M552.547 190.476C555.097 189.366 559.087 188.336 561.897 188.236C564.557 188.136 567.237 188.506 569.867 188.186C572.357 187.886 575.107 187.416 576.447 185.176C578.167 182.306 576.467 178.606 573.647 177.376C569.997 175.786 565.597 175.736 561.717 176.256C559.107 176.606 557.267 177.246 554.517 178.476C554.517 178.476 551.377 184.036 552.377 189.226L552.547 190.476Z" fill="#D6A35F" stroke="#0C0D46" stroke-width="1.5" stroke-miterlimit="10" stroke-linecap="round" stroke-linejoin="round"/>
<path d="M571.377 183.794C572.542 183.794 573.487 182.85 573.487 181.684C573.487 180.519 572.542 179.574 571.377 179.574C570.211 179.574 569.267 180.519 569.267 181.684C569.267 182.85 570.211 183.794 571.377 183.794Z" fill="#0C0D46" stroke="#0C0D46" stroke-width="1.5" stroke-miterlimit="10" stroke-linecap="round" stroke-linejoin="round"/>
<path opacity="0.2" d="M579.227 183.734C581.017 175.814 580.146 165.594 574.706 159.564C578.216 160.814 580.546 164.194 581.946 167.644C584.836 174.764 584.786 182.854 582.886 190.304C581.516 195.684 579.396 200.904 576.636 205.724C576.346 206.224 568.946 221.864 569.276 222.284C568.906 221.814 566.896 222.794 563.146 213.774C568.756 205.604 577.317 192.164 579.227 183.734Z" fill="#0C0D46"/>
<path d="M579.527 192.164C579.377 192.284 579.257 192.434 579.197 192.634C578.827 193.864 579.537 195.884 580.557 196.634C581.207 196.184 581.677 195.414 582.077 194.744C582.427 194.144 582.826 193.224 582.436 192.564C581.976 191.764 580.217 191.634 579.527 192.164Z" fill="#A06D35" stroke="#0C0D46" stroke-width="1.5" stroke-miterlimit="10" stroke-linecap="round" stroke-linejoin="round"/>
<path d="M576.077 198.445C576.267 200.515 577.507 201.915 578.627 202.355" stroke="#0C0D46" stroke-width="1.5" stroke-miterlimit="10" stroke-linecap="round" stroke-linejoin="round"/>
<path opacity="0.5" d="M547.297 166.205C545.667 167.535 544.267 169.145 543.177 170.945" stroke="#0C0D46" stroke-miterlimit="10" stroke-linecap="round" stroke-linejoin="round"/>
<path opacity="0.5" d="M543.447 180.936C542.277 182.686 541.417 184.636 540.907 186.676" stroke="#0C0D46" stroke-miterlimit="10" stroke-linecap="round" stroke-linejoin="round"/>
<path opacity="0.5" d="M548.896 199.824C547.726 201.574 546.866 203.524 546.356 205.564" stroke="#0C0D46" stroke-miterlimit="10" stroke-linecap="round" stroke-linejoin="round"/>
<path opacity="0.5" d="M532.727 186.045C531.557 187.795 530.697 189.745 530.187 191.785" stroke="#0C0D46" stroke-miterlimit="10" stroke-linecap="round" stroke-linejoin="round"/>
<path d="M680.607 338.615L680.367 338.725C678.837 339.445 677.007 338.785 676.287 337.255L643.417 267.405C642.697 265.875 643.356 264.045 644.886 263.325L645.126 263.215C646.656 262.495 648.487 263.155 649.207 264.685L682.076 334.535C682.796 336.075 682.137 337.895 680.607 338.615Z" fill="#A06D35" stroke="#0C0D46" stroke-width="1.5" stroke-miterlimit="10" stroke-linecap="round" stroke-linejoin="round"/>
<path d="M613.466 338.786L613.706 338.896C615.256 339.586 617.066 338.886 617.756 337.346L649.166 266.826C649.856 265.276 649.156 263.466 647.616 262.776L647.376 262.666C645.826 261.976 644.016 262.676 643.326 264.216L611.916 334.736C611.226 336.286 611.916 338.096 613.466 338.786Z" fill="#A06D35" stroke="#0C0D46" stroke-width="1.5" stroke-miterlimit="10" stroke-linecap="round" stroke-linejoin="round"/>
<path d="M643.466 262.785L644.226 335.885C644.246 337.645 645.686 339.065 647.456 339.045C649.216 339.025 650.636 337.585 650.616 335.815L649.856 262.715C647.706 262.735 645.506 262.765 643.466 262.785Z" fill="#A06D35" stroke="#0C0D46" stroke-width="1.5" stroke-miterlimit="10" stroke-linecap="round" stroke-linejoin="round"/>
<path d="M649.037 183.275C649.017 181.515 647.577 180.095 645.807 180.115C644.047 180.135 642.627 181.575 642.647 183.345L643.477 262.785C645.517 262.765 647.707 262.745 649.867 262.715L649.037 183.275Z" fill="#424EC1" stroke="#0C0D46" stroke-width="1.5" stroke-miterlimit="10" stroke-linecap="round" stroke-linejoin="round"/>
<g opacity="0.2">
<g opacity="0.2">
<path opacity="0.2" d="M725.467 360.795C717.047 356.855 710.817 349.545 707.927 340.225C705.047 330.925 705.837 320.735 710.147 311.515C714.457 302.305 721.787 295.165 730.777 291.425C739.787 287.675 749.387 287.775 757.817 291.725C775.177 299.855 782.057 321.965 773.137 341.005C771.347 344.825 769.067 348.225 766.407 351.165C755.817 362.925 739.357 367.295 725.467 360.795Z" fill="white"/>
</g>
</g>
<path d="M759.637 293.245C754.067 290.135 746.927 288.506 740.817 288.986C737.397 289.256 733.717 290.225 730.787 291.495C727.447 292.945 723.957 294.986 721.197 297.336C717.677 300.336 713.767 303.866 711.387 307.846C708.637 312.456 706.217 318.136 705.997 323.506C705.717 329.996 706.297 336.675 708.827 342.715C711.637 349.445 716.697 355.416 722.537 359.726C721.997 360.556 721.697 362.036 721.447 362.986C721.137 364.176 720.637 365.316 720.147 366.446C720.127 366.486 720.097 366.536 720.057 366.546C720.027 366.546 719.997 366.536 719.977 366.516C719.267 366.106 719.797 366.336 719.057 366.006C715.027 364.246 711.247 361.776 707.887 358.606C699.377 350.566 694.957 338.965 695.617 327.305C696.427 312.895 704.617 300.416 716.617 292.766C724.327 287.846 732.897 285.516 742.047 286.736C748.947 287.656 757.057 289.765 762.167 294.805C761.347 294.265 760.507 293.735 759.637 293.245Z" fill="#FFF9F3"/>
<path d="M721.437 367.176C721.507 367.096 721.567 366.996 721.607 366.886C721.757 366.446 721.527 365.956 721.077 365.806C717.667 364.636 711.397 361.006 708.107 357.906C692.247 342.926 691.997 317.316 707.577 300.846C715.147 292.836 725.227 288.086 735.947 287.486C746.697 286.886 756.837 290.536 764.487 297.766C764.827 298.086 765.367 298.076 765.687 297.736C766.027 297.406 765.997 296.856 765.657 296.536C757.657 288.976 747.077 285.166 735.847 285.796C724.687 286.426 714.207 291.356 706.337 299.686C706.097 299.946 705.857 300.196 705.627 300.456C690.137 317.636 690.647 343.756 706.937 359.146C710.477 362.496 716.937 366.196 720.517 367.426C720.857 367.526 721.217 367.426 721.437 367.176Z" fill="#0C0D46"/>
<path d="M765.017 364.595C762.117 366.685 758.787 368.205 755.267 368.855C751.927 369.465 748.697 368.975 745.427 368.165C754.477 364.585 763.037 358.305 768.737 350.365C772.737 344.785 775.587 338.325 776.617 331.535C777.247 327.365 777.197 323.095 776.457 318.945C782.427 323.405 783.517 331.525 782.277 338.555C780.407 349.105 773.557 358.445 765.017 364.595Z" fill="#C0C1F1"/>
<path d="M765.427 365.175C762.327 367.405 758.857 368.925 755.387 369.555C751.687 370.235 748.187 369.585 745.247 368.855C744.947 368.785 744.727 368.525 744.707 368.215C744.687 367.905 744.867 367.625 745.157 367.505C754.377 363.855 762.767 357.455 768.157 349.945C772.257 344.225 774.947 337.825 775.917 331.425C776.537 327.315 776.487 323.155 775.767 319.065C775.717 318.775 775.847 318.495 776.097 318.335C776.347 318.185 776.657 318.195 776.897 318.375C782.257 322.375 784.537 329.975 782.987 338.685C781.727 345.775 778.207 352.635 772.977 358.435C770.747 360.895 768.217 363.165 765.427 365.175ZM777.317 331.645C776.317 338.265 773.547 344.885 769.307 350.775C764.167 357.935 756.397 364.105 747.747 367.955C750.027 368.395 752.547 368.625 755.127 368.155C758.387 367.555 761.667 366.125 764.597 364.015C773.657 357.495 779.847 348.165 781.577 338.425C782.877 331.085 781.337 324.635 777.447 320.725C777.917 324.365 777.867 328.025 777.317 331.645Z" fill="#0C0D46"/>
<path d="M722.857 367.256C737.397 371.946 754.287 368.096 765.937 355.996C781.227 340.116 781.967 315.736 768.157 300.066C776.017 311.546 778.647 323.286 772.997 336.806C769.887 344.226 765.577 350.146 759.387 355.286C750.667 362.516 738.407 365.246 727.447 362.396C727.037 362.286 726.587 362.176 726.177 362.296C725.747 362.426 725.437 362.806 725.157 363.166C724.137 364.476 723.107 365.796 722.087 367.106C723.617 367.306 725.137 367.506 726.667 367.716" fill="#FFF9F3"/>
<path d="M767.737 356.057C774.727 348.307 778.707 338.437 778.977 328.147C779.257 317.587 775.607 307.547 768.697 299.877C768.437 299.587 767.987 299.567 767.697 299.827C767.407 300.087 767.387 300.537 767.647 300.827C781.397 316.107 780.707 340.267 766.027 355.817C755.117 367.397 738.537 371.917 723.797 367.337C723.427 367.217 723.027 367.427 722.907 367.807C722.787 368.177 722.997 368.577 723.377 368.697C738.627 373.437 755.777 368.767 767.057 356.797C767.287 356.547 767.507 356.297 767.737 356.057Z" fill="#0C0D46"/>
<path d="M724.927 360.006C716.507 356.066 710.277 348.756 707.387 339.436C704.507 330.136 705.297 319.946 709.607 310.726C713.917 301.516 721.247 294.376 730.237 290.636C739.247 286.886 748.847 286.986 757.277 290.936C774.637 299.066 781.517 321.176 772.597 340.216C770.807 344.036 768.527 347.436 765.867 350.376C755.277 362.126 738.817 366.506 724.927 360.006ZM710.887 311.316C706.727 320.206 705.957 330.046 708.737 339.006C711.507 347.946 717.467 354.946 725.527 358.716C742.187 366.516 762.717 357.946 771.307 339.606C779.897 321.266 773.327 300.006 756.667 292.206C748.607 288.436 739.417 288.336 730.777 291.936C725.687 294.056 721.137 297.316 717.417 301.446C714.817 304.336 712.607 307.656 710.887 311.316Z" fill="#0C0D46"/>
<g opacity="0.25">
<g opacity="0.25">
<path opacity="0.25" d="M759.387 355.366C759.807 355.036 760.227 354.706 760.627 354.366C761.417 353.696 767.017 349.726 766.377 348.656C767.037 349.766 766.687 351.116 768.217 351.616C769.247 351.946 770.467 351.556 771.107 350.676C773.007 350.726 774.707 349.536 776.087 348.216C778.227 346.176 781.037 342.906 781.697 339.936C781.177 342.276 780.847 344.166 779.827 346.346C778.827 348.496 777.677 350.566 776.397 352.566C773.807 356.606 770.667 360.316 767.027 363.466C762.617 367.276 756.857 369.896 750.937 368.896C746.567 368.156 742.437 369.606 737.977 369.636C738.977 369.626 739.177 366.226 739.147 365.626C739.057 364.006 738.327 362.596 738.077 360.996C738.177 361.646 742.817 361.726 743.407 361.716C745.227 361.686 747.057 361.406 748.807 360.896C752.657 359.796 756.217 357.816 759.387 355.366Z" fill="#272ABF"/>
</g>
</g>
<g opacity="0.25">
<g opacity="0.25">
<path opacity="0.25" d="M718.207 354.795C710.427 349.145 708.097 341.255 706.367 332.305C706.337 332.145 706.307 331.985 706.217 331.855C706.077 331.645 705.817 331.545 705.577 331.445C700.137 329.325 697.337 324.685 696.797 319.035C693.327 325.995 695.467 336.565 697.897 343.545C700.977 352.385 707.517 360.215 716.197 363.755C715.977 360.705 716.017 357.075 718.527 355.315C717.237 354.785 716.087 353.895 715.237 352.785C716.047 353.435 717.627 354.515 718.197 355.385C717.447 356.235 716.847 357.215 716.427 358.275" fill="#272ABF"/>
</g>
</g>
<g opacity="0.35">
<g opacity="0.35">
<path opacity="0.35" d="M738.394 308.795C744.068 307.268 747.871 303.069 746.887 299.416C745.904 295.763 740.507 294.039 734.833 295.567C729.159 297.094 725.356 301.293 726.339 304.946C727.323 308.599 732.719 310.323 738.394 308.795Z" fill="white"/>
</g>
</g>
<g opacity="0.35">
<g opacity="0.35">
<path opacity="0.35" d="M723.41 315.74C724.694 313.427 724.419 310.822 722.796 309.921C721.174 309.021 718.818 310.166 717.534 312.48C716.251 314.793 716.525 317.398 718.148 318.298C719.771 319.199 722.126 318.053 723.41 315.74Z" fill="white"/>
</g>
</g>
<path d="M741.467 366.134C743.425 360.758 739.026 354.219 731.642 351.53C724.258 348.841 716.684 351.019 714.726 356.395C712.768 361.771 717.167 368.309 724.552 370.998C731.936 373.688 739.509 371.51 741.467 366.134Z" fill="#FFF9F3"/>
<path d="M724.217 371.615C719.797 369.975 716.167 366.845 714.527 363.245C713.407 360.785 713.257 358.295 714.107 356.055C716.267 350.345 724.287 348.025 732.017 350.895C736.437 352.535 740.067 355.665 741.707 359.265C742.827 361.725 742.977 364.215 742.127 366.455C741.747 367.455 741.187 368.355 740.487 369.135C737.157 372.815 730.587 373.975 724.217 371.615ZM715.437 356.555C714.727 358.445 714.857 360.555 715.817 362.655C717.307 365.915 720.627 368.765 724.707 370.285C731.697 372.875 738.917 370.935 740.797 365.955C741.507 364.065 741.377 361.955 740.417 359.855C738.927 356.595 735.607 353.745 731.527 352.225C725.717 350.075 719.757 351.045 716.827 354.295C716.227 354.955 715.757 355.715 715.437 356.555Z" fill="#0C0D46"/>
<path d="M738.652 367.235C740.193 363.012 736.585 357.815 730.593 355.628C724.6 353.441 718.493 355.091 716.951 359.314C715.41 363.537 719.018 368.734 725.01 370.921C731.003 373.109 737.11 371.458 738.652 367.235Z" fill="#FFF9F3"/>
<path d="M724.677 371.586C720.987 370.216 717.987 367.646 716.647 364.696C715.767 362.756 715.647 360.796 716.307 359.036C718.027 354.466 724.577 352.666 730.917 355.016C734.607 356.386 737.607 358.956 738.947 361.906C739.827 363.846 739.947 365.806 739.287 367.566C738.997 368.346 738.557 369.046 738.007 369.656C735.327 372.626 729.927 373.536 724.677 371.586ZM717.627 359.536C717.097 360.936 717.207 362.516 717.927 364.106C719.117 366.716 721.817 369.016 725.167 370.256C730.777 372.336 736.507 370.906 737.957 367.066C738.487 365.666 738.377 364.086 737.657 362.496C736.467 359.886 733.767 357.586 730.417 356.346C725.727 354.606 720.937 355.326 718.657 357.856C718.217 358.356 717.867 358.916 717.627 359.536Z" fill="#0C0D46"/>
<g opacity="0.25">
<g opacity="0.25">
<path opacity="0.25" d="M718.737 357.214C717.297 357.114 715.797 355.374 716.307 353.814C714.707 355.594 713.927 358.544 714.607 360.814C715.287 363.084 716.797 365.004 718.417 366.704C720.047 368.414 721.867 369.994 723.977 371.044C727.367 372.734 731.467 372.954 735.067 371.634C737.967 370.574 740.607 368.424 741.697 365.504C742.927 362.184 741.677 359.344 739.547 356.834C739.717 357.194 739.687 357.624 739.537 358.004C739.387 358.374 739.127 358.694 738.827 358.964C738.307 359.444 737.627 359.824 736.927 359.754C737.217 360.884 736.647 362.164 735.847 363.024C735.037 363.884 733.947 364.404 732.847 364.774C730.207 365.674 727.307 365.814 724.657 365.064C722.867 364.554 721.087 363.684 719.777 362.334C718.597 361.124 717.187 358.714 718.737 357.214Z" fill="#272ABF"/>
</g>
</g>
<path d="M782.457 328.315C782.487 328.285 782.507 328.255 782.527 328.215C782.627 328.005 782.547 327.745 782.337 327.645C781.077 327.015 779.747 326.535 778.377 326.205C778.147 326.145 777.917 326.285 777.867 326.515C777.807 326.745 777.947 326.975 778.177 327.025C779.487 327.345 780.757 327.805 781.957 328.405C782.127 328.505 782.327 328.455 782.457 328.315Z" fill="#0C0D46"/>
<path d="M782.807 335.246C782.947 335.096 782.957 334.856 782.817 334.686C781.587 333.206 779.697 332.276 777.777 332.196C777.547 332.186 777.347 332.366 777.337 332.606C777.327 332.836 777.507 333.036 777.747 333.046C779.437 333.116 781.087 333.936 782.167 335.226C782.317 335.406 782.587 335.426 782.767 335.276C782.777 335.276 782.787 335.256 782.807 335.246Z" fill="#0C0D46"/>
<path d="M782.027 341.025C782.177 340.855 782.177 340.595 782.007 340.435C780.647 339.095 778.857 338.245 776.967 338.035C776.737 338.005 776.527 338.175 776.497 338.415C776.467 338.645 776.637 338.855 776.877 338.885C778.587 339.075 780.197 339.835 781.417 341.045C781.587 341.205 781.857 341.205 782.017 341.045C782.017 341.035 782.017 341.025 782.027 341.025Z" fill="#0C0D46"/>
<path d="M779.837 346.376C779.887 346.316 779.927 346.246 779.937 346.166C779.977 345.936 779.817 345.716 779.587 345.676C777.867 345.386 776.227 344.556 774.987 343.326C774.817 343.166 774.547 343.166 774.387 343.336C774.207 343.506 774.227 343.776 774.397 343.936C775.767 345.276 777.567 346.196 779.457 346.516C779.607 346.536 779.747 346.476 779.837 346.376Z" fill="#0C0D46"/>
<path d="M776.837 352.914C776.877 352.874 776.897 352.834 776.917 352.774C776.997 352.554 776.887 352.304 776.667 352.224C774.917 351.574 773.257 350.574 771.867 349.324C771.697 349.164 771.427 349.184 771.267 349.354C771.107 349.524 771.127 349.794 771.297 349.954C772.767 351.274 774.517 352.334 776.367 353.024C776.547 353.094 776.727 353.044 776.837 352.914Z" fill="#0C0D46"/>
<path d="M773.327 357.715C773.357 357.685 773.377 357.645 773.397 357.605C773.487 357.385 773.397 357.135 773.177 357.045C771.317 356.235 769.597 355.375 768.837 353.805C768.737 353.595 768.477 353.505 768.267 353.605C768.057 353.705 767.967 353.965 768.067 354.175C768.947 356.005 770.827 356.945 772.837 357.815C773.017 357.895 773.207 357.845 773.327 357.715Z" fill="#0C0D46"/>
<path d="M768.857 361.935C768.877 361.915 768.897 361.885 768.907 361.865C769.027 361.665 768.957 361.405 768.747 361.285C767.357 360.485 766.147 359.455 765.137 358.215C764.987 358.035 764.717 358.005 764.537 358.155C764.357 358.305 764.327 358.575 764.477 358.755C765.557 360.075 766.847 361.165 768.327 362.015C768.507 362.125 768.727 362.085 768.857 361.935Z" fill="#0C0D46"/>
<path d="M764.417 365.206C764.447 365.176 764.477 365.136 764.487 365.086C764.577 364.866 764.477 364.616 764.267 364.526C763.057 364.006 761.347 362.666 760.617 361.666C760.477 361.476 760.207 361.436 760.027 361.576C759.837 361.716 759.797 361.976 759.937 362.166C760.757 363.286 762.597 364.726 763.937 365.306C764.107 365.386 764.297 365.336 764.417 365.206Z" fill="#0C0D46"/>
<path d="M759.657 367.696C759.687 367.666 759.707 367.636 759.727 367.596C759.827 367.386 759.737 367.126 759.527 367.026C758.737 366.646 756.817 365.306 756.447 364.656C756.327 364.456 756.077 364.376 755.867 364.496C755.657 364.616 755.587 364.866 755.707 365.076C756.217 365.976 758.357 367.406 759.157 367.796C759.327 367.876 759.537 367.836 759.657 367.696Z" fill="#0C0D46"/>
<path d="M569.117 258.395C569.117 258.395 576.257 274.345 581.857 290.825" stroke="#0C0D46" stroke-miterlimit="10" stroke-linecap="round" stroke-linejoin="round"/>
<path d="M645.497 330.795C645.497 330.795 654.477 332.135 664.937 340.095C666.167 341.035 665.737 343.045 664.227 343.325C657.577 344.575 643.847 347.095 637.097 347.805L645.497 330.795Z" fill="#FFEAD4" stroke="#0C0D46" stroke-width="1.5" stroke-miterlimit="10" stroke-linecap="round" stroke-linejoin="round"/>
<path d="M573.086 302.704C581.096 289.674 592.086 278.484 604.966 270.244C610.796 266.514 617.276 263.684 624.396 264.804C649.686 268.784 639.796 312.914 633.196 328.254C633.416 327.734 647.276 330.654 648.696 331.164C648.696 331.164 650.076 336.074 644.866 346.774C639.346 347.784 634.926 348.744 631.976 349.414C625.796 350.824 622.336 351.694 617.336 351.194C614.926 350.954 612.536 350.254 610.636 348.684C607.926 346.454 608.636 341.924 608.676 338.834C608.746 334.054 609.316 329.314 610.816 324.754C605.056 333.734 597.316 341.554 588.496 348.074" fill="white"/>
<path d="M573.086 302.704C581.096 289.674 592.086 278.484 604.966 270.244C610.796 266.514 617.276 263.684 624.396 264.804C649.686 268.784 639.796 312.914 633.196 328.254C633.416 327.734 647.276 330.654 648.696 331.164C648.696 331.164 650.076 336.074 644.866 346.774C639.346 347.784 634.926 348.744 631.976 349.414C625.796 350.824 622.336 351.694 617.336 351.194C614.926 350.954 612.536 350.254 610.636 348.684C607.926 346.454 608.636 341.924 608.676 338.834C608.746 334.054 609.316 329.314 610.816 324.754C605.056 333.734 597.316 341.554 588.496 348.074" stroke="#0C0D46" stroke-width="1.5" stroke-miterlimit="10" stroke-linecap="round" stroke-linejoin="round"/>
<path d="M641.836 329.785C641.836 329.785 640.236 341.845 634.176 348.835" stroke="#0C0D46" stroke-width="1.5" stroke-miterlimit="10" stroke-linecap="round" stroke-linejoin="round"/>
<path d="M610.176 325.855C612.926 321.035 616.486 314.345 617.506 309.365" stroke="#0C0D46" stroke-width="1.5" stroke-miterlimit="10" stroke-linecap="round" stroke-linejoin="round"/>
<path d="M612.466 266.885C612.466 266.885 619.436 280.405 637.406 274.825" stroke="#0C0D46" stroke-width="1.5" stroke-miterlimit="10" stroke-linecap="round" stroke-linejoin="round"/>
<path d="M665.476 341.135C665.476 341.135 656.556 336.485 649.046 335.535" stroke="#0C0D46" stroke-miterlimit="10" stroke-linecap="round" stroke-linejoin="round"/>
<path d="M664.837 342.364C664.837 342.364 655.137 339.704 647.597 340.344" stroke="#0C0D46" stroke-miterlimit="10" stroke-linecap="round" stroke-linejoin="round"/>
<path opacity="0.2" d="M648.966 331.824C648.796 330.524 638.286 328.964 632.526 328.964C633.436 328.964 636.906 314.944 637.226 313.514C638.466 307.944 639.506 301.104 639.796 295.394C640.116 289.074 640.796 281.934 637.876 276.114C636.796 273.964 635.066 270.924 633.326 269.274C627.896 264.134 620.546 263.784 613.576 266.654C610.516 267.914 607.666 269.624 604.826 271.334C602.626 272.654 600.416 273.954 598.236 275.314C607.056 273.804 615.986 269.284 623.816 276.714C626.946 279.684 628.586 283.924 629.416 288.164C630.966 296.084 629.416 305.704 627.466 313.444C625.836 319.904 623.506 327.904 625.956 334.444C628.416 341.034 636.996 341.434 646.986 341.154C646.996 341.154 649.396 335.164 648.966 331.824Z" fill="#272ABF"/>
<path d="M552.316 317.176C555.486 326.556 563.126 341.766 575.886 336.986C580.456 335.276 584.336 332.086 587.696 328.636C594.496 321.666 599.366 313.206 605.116 305.416C609.636 299.296 614.156 292.346 621.316 289.046C637.046 281.796 629.566 313.976 628.286 320.256C626.196 330.516 623.976 340.746 622.116 351.056" stroke="#0C0D46" stroke-miterlimit="10" stroke-linecap="round" stroke-linejoin="round"/>
<path d="M645.097 191.195C651.31 191.195 656.347 186.159 656.347 179.945C656.347 173.732 651.31 168.695 645.097 168.695C638.883 168.695 633.847 173.732 633.847 179.945C633.847 186.159 638.883 191.195 645.097 191.195Z" fill="#5B5EE1" stroke="#0C0D46" stroke-width="1.5" stroke-miterlimit="10" stroke-linecap="round" stroke-linejoin="round"/>
<path d="M645.157 186.524C648.708 186.524 651.587 183.645 651.587 180.094C651.587 176.543 648.708 173.664 645.157 173.664C641.605 173.664 638.727 176.543 638.727 180.094C638.727 183.645 641.605 186.524 645.157 186.524Z" fill="#424EC1" stroke="#0C0D46" stroke-width="1.5" stroke-miterlimit="10" stroke-linecap="round" stroke-linejoin="round"/>
<path opacity="0.4" d="M706.473 164.531C716.734 161.186 720.792 145.407 715.538 129.286C710.284 113.165 697.706 102.807 687.445 106.152C677.185 109.496 673.126 125.276 678.381 141.397C683.635 157.518 696.212 167.875 706.473 164.531Z" fill="white"/>
<path d="M706.481 164.169C716.742 160.825 720.801 145.045 715.546 128.924C710.292 112.803 697.714 102.446 687.454 105.79C677.193 109.135 673.135 124.914 678.389 141.035C683.643 157.156 696.221 167.514 706.481 164.169Z" stroke="#0C0D46" stroke-width="1.5" stroke-miterlimit="10" stroke-linecap="round" stroke-linejoin="round"/>
<path d="M617.087 149.164L577.347 170.734L586.047 191.874L629.547 179.784L617.087 149.164Z" fill="#5B5EE1" stroke="#0C0D46" stroke-width="1.5" stroke-miterlimit="10" stroke-linecap="round" stroke-linejoin="round"/>
<path d="M673.867 114.105L606.217 150.075L620.647 186.005L694.527 166.165L673.867 114.105Z" fill="#5B5EE1" stroke="#0C0D46" stroke-width="1.5" stroke-miterlimit="10" stroke-linecap="round" stroke-linejoin="round"/>
<path d="M685.375 103.24L666.536 110.189L690.067 173.978L708.906 167.028L685.375 103.24Z" fill="#424EC1" stroke="#0C0D46" stroke-width="1.5" stroke-miterlimit="10" stroke-linecap="round" stroke-linejoin="round"/>
<path d="M685.199 103.239L680.733 104.887L704.264 168.675L708.73 167.027L685.199 103.239Z" fill="#FFDE5F" stroke="#0C0D46" stroke-width="1.5" stroke-miterlimit="10" stroke-linecap="round" stroke-linejoin="round"/>
<path d="M618.027 149.786C618.91 149.786 619.627 149.07 619.627 148.186C619.627 147.302 618.91 146.586 618.027 146.586C617.143 146.586 616.427 147.302 616.427 148.186C616.427 149.07 617.143 149.786 618.027 149.786Z" fill="#0C0D46"/>
<path d="M603.527 164.235C604.41 164.235 605.127 163.519 605.127 162.635C605.127 161.752 604.41 161.035 603.527 161.035C602.643 161.035 601.927 161.752 601.927 162.635C601.927 163.519 602.643 164.235 603.527 164.235Z" fill="#0C0D46"/>
<path d="M606.957 172.854C607.841 172.854 608.557 172.138 608.557 171.254C608.557 170.371 607.841 169.654 606.957 169.654C606.073 169.654 605.357 170.371 605.357 171.254C605.357 172.138 606.073 172.854 606.957 172.854Z" fill="#0C0D46"/>
<path d="M610.047 180.786C610.93 180.786 611.647 180.07 611.647 179.186C611.647 178.302 610.93 177.586 610.047 177.586C609.163 177.586 608.447 178.302 608.447 179.186C608.447 180.07 609.163 180.786 610.047 180.786Z" fill="#0C0D46"/>
<path d="M631.227 180.565C632.111 180.565 632.827 179.849 632.827 178.965C632.827 178.082 632.111 177.365 631.227 177.365C630.343 177.365 629.627 178.082 629.627 178.965C629.627 179.849 630.343 180.565 631.227 180.565Z" fill="#0C0D46"/>
<path d="M680.697 167.495C681.58 167.495 682.297 166.779 682.297 165.895C682.297 165.011 681.58 164.295 680.697 164.295C679.813 164.295 679.097 165.011 679.097 165.895C679.097 166.779 679.813 167.495 680.697 167.495Z" fill="#0C0D46"/>
<path d="M611.306 145.182L603.12 148.545L619.833 189.226L628.019 185.863L611.306 145.182Z" fill="#424EC1" stroke="#0C0D46" stroke-width="1.5" stroke-miterlimit="10" stroke-linecap="round" stroke-linejoin="round"/>
<path d="M578.517 173.574L573.427 175.884L579.867 191.234L584.867 189.084L578.517 173.574Z" fill="#5B5EE1" stroke="#0C0D46" stroke-width="1.5" stroke-miterlimit="10" stroke-linecap="round" stroke-linejoin="round"/>
<path d="M574.857 178.785L579.837 176.625" stroke="#0C0D46" stroke-miterlimit="10" stroke-linecap="round" stroke-linejoin="round"/>
<path d="M576.146 181.974L581.117 179.814" stroke="#0C0D46" stroke-miterlimit="10" stroke-linecap="round" stroke-linejoin="round"/>
<path d="M577.427 185.164L582.407 183.004" stroke="#0C0D46" stroke-miterlimit="10" stroke-linecap="round" stroke-linejoin="round"/>
<path d="M578.717 188.353L583.697 186.193" stroke="#0C0D46" stroke-miterlimit="10" stroke-linecap="round" stroke-linejoin="round"/>
<path d="M665.657 126.014C666.54 126.014 667.257 125.298 667.257 124.414C667.257 123.531 666.54 122.814 665.657 122.814C664.773 122.814 664.057 123.531 664.057 124.414C664.057 125.298 664.773 126.014 665.657 126.014Z" fill="#0C0D46"/>
<path opacity="0.37" d="M701.137 133.305C705.447 131.685 707.067 125.395 704.757 119.245C702.447 113.095 697.087 109.425 692.777 111.045L701.137 133.305Z" fill="white"/>
<path d="M650.567 208.355C651.517 213.655 649.917 219.365 646.097 223.165" stroke="#0C0D46" stroke-miterlimit="10" stroke-linecap="round" stroke-linejoin="round"/>
<path d="M651.856 210.154C653.186 212.794 653.356 215.884 652.876 218.804C652.326 222.154 651.316 224.634 649.606 227.814" stroke="#0C0D46" stroke-miterlimit="10" stroke-linecap="round" stroke-linejoin="round"/>
<path opacity="0.2" d="M583.776 259.964C580.336 259.764 575.986 259.814 572.886 258.364C573.676 261.704 574.816 265.124 576.026 268.344C577.066 271.124 578.166 273.894 579.246 276.664C580.676 280.324 582.596 284.134 583.466 287.984C583.466 287.984 577.416 294.494 571.906 303.934C572.186 303.444 571.876 302.034 571.836 301.524C571.666 299.004 571.236 296.504 570.716 294.034C567.586 279.154 565.116 265.824 561.096 251.134C560.856 250.264 561.116 250.624 561.606 249.854C562.056 249.154 569.036 250.354 570.926 250.694C577.076 251.784 583.346 252.094 589.586 252.024C600.486 251.894 611.296 249.364 621.706 246.134C632.116 242.904 644.676 235.044 641.616 222.324C645.926 222.964 648.636 226.294 649.186 229.224C649.856 232.774 648.846 236.894 646.536 239.674C644.226 242.454 642.046 244.814 639.026 246.814C637.366 247.914 635.706 249.014 633.966 249.964C625.216 254.764 614.246 257.284 604.436 258.884C597.416 260.034 590.876 260.374 583.776 259.964Z" fill="#272ABF"/>
<path d="M546.536 246.555C549.336 235.215 559.726 226.165 571.346 224.935C566.416 219.375 558.336 218.495 551.626 221.665C544.916 224.835 540.076 230.985 536.376 237.425C535.906 238.245 535.426 239.215 535.766 240.105C535.946 240.575 536.316 240.935 536.686 241.275C539.666 244.075 542.646 246.875 545.636 249.675C546.076 249.335 546.726 247.095 546.536 246.555Z" fill="#5B5EE1" stroke="#0C0D46" stroke-width="1.5" stroke-miterlimit="10" stroke-linecap="round" stroke-linejoin="round"/>
<path d="M516.977 205.875C514.837 210.525 515.357 216.655 515.407 221.805C515.447 225.665 516.047 229.715 515.817 233.525C512.547 233.925 506.457 233.395 503.907 235.565C504.527 225.305 507.987 213.095 516.977 205.875Z" fill="#5B5EE1" stroke="#0C0D46" stroke-width="1.5" stroke-miterlimit="10" stroke-linecap="round" stroke-linejoin="round"/>
<path d="M568.347 250.534C567.777 250.264 567.107 250.534 566.907 251.134C565.907 254.094 564.707 256.894 563.697 259.204C562.807 261.234 552.217 278.914 549.967 282.634C549.727 283.044 549.787 283.555 550.117 283.895C550.547 284.325 551.247 284.304 551.637 283.844C557.387 277.134 563.117 270.364 567.637 262.804C569.317 259.994 571.017 256.754 572.417 253.324C572.647 252.774 572.347 252.144 571.777 251.954C570.607 251.524 569.457 251.064 568.347 250.534Z" fill="#5B5EE1" stroke="#0C0D46" stroke-width="1.5" stroke-miterlimit="10" stroke-linecap="round" stroke-linejoin="round"/>
<path opacity="0.2" d="M568.157 251.054C567.587 250.784 566.917 251.054 566.717 251.654C565.717 254.614 564.517 257.414 563.507 259.724C562.617 261.754 552.027 279.434 549.777 283.154C549.537 283.564 549.597 284.074 549.927 284.414C550.357 284.844 551.057 284.824 551.447 284.364C557.197 277.654 562.927 270.884 567.447 263.324C569.127 260.514 570.827 257.274 572.227 253.844C572.457 253.294 572.157 252.664 571.587 252.474C570.417 252.054 569.277 251.584 568.157 251.054Z" fill="#0C0D46"/>
<path d="M630.977 226.005C630.977 226.005 646.057 221.975 650.327 207.885C650.327 207.885 665.847 225.135 637.767 245.715L630.977 226.005Z" fill="#FFEAD4" stroke="#0C0D46" stroke-width="1.5" stroke-miterlimit="10" stroke-linecap="round" stroke-linejoin="round"/>
<path d="M565.347 225.945C574.297 225.165 582.047 227.195 590.587 229.585C604.697 233.545 617.817 235.005 629.987 226.205C632.597 224.315 635.327 222.445 638.457 221.725C644.927 220.255 650.737 225.345 650.167 231.925C649.057 244.865 631.617 252.835 621.037 255.985C606.917 260.185 589.987 262.495 575.547 259.655C571.147 258.785 563.807 257.285 559.537 255.915" fill="white"/>
<path d="M565.347 225.945C574.297 225.165 582.047 227.195 590.587 229.585C604.697 233.545 617.817 235.005 629.987 226.205C632.597 224.315 635.327 222.445 638.457 221.725C644.927 220.255 650.737 225.345 650.167 231.925C649.057 244.865 631.617 252.835 621.037 255.985C606.917 260.185 589.987 262.495 575.547 259.655C571.147 258.785 563.807 257.285 559.537 255.915" stroke="#0C0D46" stroke-width="1.5" stroke-miterlimit="10" stroke-linecap="round" stroke-linejoin="round"/>
<path d="M634.567 223.904C634.567 223.904 648.777 229.264 643.807 243.854" stroke="#0C0D46" stroke-width="1.5" stroke-miterlimit="10" stroke-linecap="round" stroke-linejoin="round"/>
<path d="M558.657 246.964C571.497 252.514 589.697 253.354 602.907 253.424C616.117 253.494 636.037 247.224 644.647 239.324" stroke="#0C0D46" stroke-miterlimit="10" stroke-linecap="round" stroke-linejoin="round"/>
<g opacity="0.2">
<path opacity="0.2" d="M533.647 221.395C541.687 223.395 549.487 226.805 552.117 234.995C553.057 237.925 552.807 241.095 553.607 244.055C554.377 246.925 557.247 250.815 560.707 250.085C562.397 249.725 563.577 248.165 564.247 246.575C566.937 240.115 565.747 231.565 563.627 225.055C561.417 218.265 557.277 212.025 551.207 208.135C546.567 205.155 541.297 203.245 535.937 202.035C532.637 201.285 529.267 200.925 525.877 201.055C523.437 201.145 519.317 201.095 517.637 203.225C516.837 204.245 516.477 205.525 516.177 206.795C515.317 210.445 514.417 214.745 514.627 218.505C516.387 218.055 518.477 218.705 520.267 218.895C524.467 219.305 528.997 220.235 533.647 221.395Z" fill="#272ABF"/>
</g>
<path d="M509.046 215.705C517.676 212.885 528.886 215.445 537.156 218.305C545.026 221.025 552.366 223.655 555.056 232.575C555.826 235.115 555.866 237.565 556.106 239.985C560.146 241.565 564.346 241.045 568.186 239.335C569.126 225.605 565.276 212.815 554.636 205.695C543.566 198.285 525.646 196.355 512.746 199.135C497.646 202.395 489.646 219.065 493.516 233.175C493.866 234.465 494.136 235.105 495.296 235.775C496.976 236.745 499.236 235.655 500.216 233.985C501.196 232.315 501.216 230.265 501.176 228.325C501.066 222.435 502.996 217.705 508.996 215.725C509.006 215.715 509.026 215.715 509.046 215.705Z" fill="#5B5EE1" stroke="#0C0D46" stroke-width="1.5" stroke-miterlimit="10" stroke-linecap="round" stroke-linejoin="round"/>
<path d="M556.106 239.976C556.316 242.076 556.666 244.166 557.786 246.286C560.686 251.796 566.586 249.646 567.576 244.276C567.886 242.626 568.066 240.966 568.186 239.326C564.336 241.046 560.136 241.556 556.106 239.976Z" fill="#272ABF" stroke="#0C0D46" stroke-width="1.5" stroke-miterlimit="10" stroke-linecap="round" stroke-linejoin="round"/>
<path d="M541.617 326.825L551.967 321.025C555.237 319.175 557.057 315.525 556.557 311.795C553.267 287.335 551.627 261.895 548.337 237.435C547.677 232.535 544.057 228.555 539.247 227.435L511.947 221.085C509.567 220.535 508.887 221.175 506.597 222.045L497.637 225.435C496.057 226.035 494.717 227.045 493.727 228.305C492.307 230.125 491.587 232.475 491.867 234.895L498.567 308.655C499.127 313.525 502.417 317.655 507.037 319.285C515.297 322.105 523.567 324.915 531.827 327.735C535.077 328.835 538.637 328.505 541.617 326.825Z" fill="#5B5EE1" stroke="#0C0D46" stroke-width="1.5" stroke-miterlimit="10" stroke-linecap="round" stroke-linejoin="round"/>
<path d="M494.057 228.346L520.477 235.606C523.817 236.496 526.297 239.296 526.767 242.716L536.647 328.036" fill="#5B5EE1"/>
<path d="M494.057 228.346L520.477 235.606C523.817 236.496 526.297 239.296 526.767 242.716L536.647 328.036" stroke="#0C0D46" stroke-width="1.5" stroke-miterlimit="10" stroke-linecap="round" stroke-linejoin="round"/>
<path d="M525.917 239.316L545.667 231.826" stroke="#0C0D46" stroke-width="1.5" stroke-miterlimit="10" stroke-linecap="round" stroke-linejoin="round"/>
<path d="M503.217 282.525C503.047 282.985 503.337 283.585 503.757 283.635C503.967 283.665 504.167 283.535 504.247 283.295L506.837 276.045L509.307 268.615C509.497 268.025 510.097 267.995 510.317 268.565L513.227 276.295L516.797 286.405C516.897 286.705 517.096 286.915 517.316 286.945C517.736 287.005 517.987 286.375 517.787 285.785L514.187 275.545L510.217 265.025C509.997 264.465 509.397 264.515 509.207 265.115L505.837 275.285L503.217 282.525ZM501.097 282.895L505.147 272.015L508.997 260.505C509.187 259.915 509.937 259.795 510.157 260.325L514.677 271.945L519.936 286.865C520.036 287.175 520.237 287.385 520.457 287.415C520.877 287.475 521.127 286.825 520.927 286.215L515.647 271.125L510.057 256.835C509.837 256.305 509.087 256.455 508.897 257.055L504.127 271.315L500.067 282.135C499.897 282.575 500.187 283.155 500.607 283.215C500.827 283.245 501.017 283.115 501.097 282.895ZM509.457 273.895L506.347 282.915C506.177 283.395 506.467 284.015 506.887 284.065C507.107 284.095 507.297 283.955 507.377 283.705L509.547 277.415C509.737 276.845 510.337 276.875 510.557 277.465L513.637 285.965C513.737 286.255 513.937 286.465 514.157 286.495C514.577 286.555 514.827 285.955 514.627 285.375L510.457 273.895C510.247 273.325 509.647 273.315 509.457 273.895ZM503.217 282.525C503.047 282.985 503.337 283.585 503.757 283.635C503.967 283.665 504.167 283.535 504.247 283.295L506.837 276.045L509.307 268.615C509.497 268.025 510.097 267.995 510.317 268.565L513.227 276.295L516.797 286.405C516.897 286.705 517.096 286.915 517.316 286.945C517.736 287.005 517.987 286.375 517.787 285.785L514.187 275.545L510.217 265.025C509.997 264.465 509.397 264.515 509.207 265.115L505.837 275.285L503.217 282.525Z" fill="white"/>
</svg>