<svg xmlns="http://www.w3.org/2000/svg" fill="none" viewBox="68.83 20 428.33 365.86">
<path opacity="0.57" d="M131.012 211.575C129.672 215.085 126.889 218.445 122.219 221.559C85.1325 246.317 104.284 286.433 133.748 308.113C157.305 325.447 186.212 340.4 216.94 343.034C250.753 345.933 276.594 328.035 305.529 315.293C315.482 310.908 331.841 301.141 343.549 303.145C354.795 305.065 362.116 318.041 373.815 317.514C385.957 316.968 385.825 304.961 385.655 296.727C385.419 285.473 387.56 274.199 400.655 269.269C412.25 264.902 425.279 265.796 436.317 260.075C444.846 255.662 451.818 248.83 456.28 240.925C465.517 224.571 462.771 204.678 446.374 192.962C434.591 184.549 417.675 180.644 407.741 169.747C393.344 153.957 404.835 133.613 416.986 119.893C423.883 112.11 432.232 105.298 437.751 96.659C468.187 48.978 403.156 10.3684 355.757 22.131C319.01 31.2494 285.424 52.0551 245.715 50.7189C216.515 49.7308 191.279 42.6168 161.56 48.1876C144.05 51.4717 126.823 58.5011 114.341 70.8848C94.6141 90.4484 90.2648 129.34 99.4067 154.522C105.03 170.058 138.106 193.009 131.012 211.575Z" fill="#424156"/>
<path d="M157.409 30.8622C160.918 27.8039 164.711 26.1289 168.674 26.1289C186.533 26.1289 201.015 60.0994 201.015 102.003C201.015 143.906 186.533 177.876 168.674 177.876C150.814 177.876 136.333 143.906 136.333 102.003C136.333 76.6706 141.625 54.2369 149.758 40.4511" fill="#2B2939"/>
<path d="M157.409 30.8622C160.918 27.8039 164.711 26.1289 168.674 26.1289C186.533 26.1289 201.015 60.0994 201.015 102.003C201.015 143.906 186.533 177.876 168.674 177.876C150.814 177.876 136.333 143.906 136.333 102.003C136.333 76.6706 141.625 54.2369 149.758 40.4511" stroke="#7B7D9B" stroke-width="0.943436" stroke-miterlimit="10" stroke-linecap="round" stroke-linejoin="round"/>
<path d="M180.456 59.6787C180.56 53.6469 176.06 46.7493 170.069 47.615C165.739 48.2455 163.003 52.4894 161.144 56.4323C155.814 67.7714 153.106 80.2774 152.984 92.7929C152.889 102.495 152.663 112.262 153.889 121.917C154.88 129.746 155.918 140.229 161.342 146.412C163.956 149.395 168.239 151.277 171.975 149.931C174.126 149.15 175.796 147.437 177.183 145.621" stroke="#7B7D9B" stroke-width="0.943436" stroke-miterlimit="10" stroke-linecap="round" stroke-linejoin="round"/>
<path d="M177.277 80.7189C177.239 79.1568 177.117 77.5382 176.409 76.1456C175.702 74.7434 174.277 73.6048 172.711 73.6707C170.409 73.7742 169.003 76.1926 168.182 78.3381C164.758 87.2965 163.758 97.1771 165.361 106.634C165.758 108.968 166.352 111.358 167.805 113.231C169.258 115.103 171.786 116.327 174.06 115.621" stroke="#7B7D9B" stroke-width="0.943436" stroke-miterlimit="10" stroke-linecap="round" stroke-linejoin="round"/>
<path d="M146.087 80.2754C144.767 88.9703 144.474 97.8064 145.201 106.567C145.323 108.054 145.474 109.541 145.663 111.028C145.861 112.665 146.106 114.302 146.38 115.93C146.738 118.085 147.172 120.231 147.653 122.357" stroke="#7B7D9B" stroke-width="0.943436" stroke-miterlimit="10" stroke-linecap="round" stroke-linejoin="round"/>
<path d="M176.268 158.389C179.702 158.003 182.749 155.839 184.872 153.11C186.995 150.391 188.316 147.135 189.467 143.879" stroke="#7B7D9B" stroke-width="0.943436" stroke-miterlimit="10" stroke-linecap="round" stroke-linejoin="round"/>
<path d="M196.108 39.7754C197.873 44.0099 199.363 48.3668 200.552 52.799" stroke="#7B7D9B" stroke-width="0.943436" stroke-miterlimit="10" stroke-linecap="round" stroke-linejoin="round"/>
<path d="M316.991 248.075L259.074 246.004C251.658 245.741 245.809 239.474 246.073 232.077L249.479 137.167C249.743 129.771 256.026 123.937 263.442 124.2L321.359 126.27C328.775 126.534 334.624 132.801 334.36 140.197L330.954 235.107C330.69 242.504 324.407 248.338 316.991 248.075Z" fill="#5B5EE1" stroke="#0C0D46" stroke-width="1.41515" stroke-miterlimit="10" stroke-linecap="round" stroke-linejoin="round"/>
<path d="M390.872 364.404L427.798 364.555" stroke="#0C0D46" stroke-width="1.41515" stroke-miterlimit="10" stroke-linecap="round" stroke-linejoin="round"/>
<path d="M237.186 363.764L368.786 364.309" stroke="#0C0D46" stroke-width="1.41515" stroke-miterlimit="10" stroke-linecap="round" stroke-linejoin="round"/>
<path d="M101.897 363.201L149.994 363.409" stroke="#0C0D46" stroke-width="1.41515" stroke-miterlimit="10" stroke-linecap="round" stroke-linejoin="round"/>
<path d="M80.9341 363.115L89.1325 363.153" stroke="#0C0D46" stroke-width="1.41515" stroke-miterlimit="10" stroke-linecap="round" stroke-linejoin="round"/>
<g opacity="0.2">
<g opacity="0.2">
<path opacity="0.2" d="M156.73 361.407C153.787 358.443 151.201 354.971 149.135 351.047C138.786 331.455 144.947 307.855 162.862 298.444C171.551 293.881 181.674 293.297 191.364 296.798C201.024 300.289 209.11 307.431 214.11 316.916C219.119 326.392 220.45 337.082 217.874 347.01C215.289 356.956 209.081 364.955 200.392 369.519C186.061 377.047 168.485 373.255 156.73 361.407Z" fill="white"/>
</g>
</g>
<path d="M161.014 300.136C166.74 296.588 174.184 294.518 180.646 294.725C184.269 294.838 188.194 295.685 191.355 296.87C194.949 298.226 198.723 300.202 201.761 302.545C205.619 305.518 209.921 309.047 212.629 313.122C215.761 317.836 218.582 323.689 219.092 329.335C219.705 336.148 219.431 343.206 217.063 349.689C214.431 356.907 209.384 363.438 203.44 368.256C204.053 369.102 204.449 370.646 204.751 371.634C205.138 372.876 205.714 374.043 206.299 375.21C206.317 375.257 206.355 375.304 206.402 375.304C206.431 375.304 206.459 375.285 206.487 375.275C207.214 374.814 206.666 375.078 207.44 374.701C211.601 372.65 215.469 369.865 218.856 366.364C227.432 357.481 231.517 345.06 230.252 332.836C228.686 317.714 219.431 304.991 206.393 297.529C198.015 292.739 188.864 290.707 179.279 292.438C172.042 293.746 163.599 296.362 158.466 301.924C159.259 301.293 160.117 300.7 161.014 300.136Z" fill="#C9C5E6"/>
<path d="M204.959 376.037C204.874 375.953 204.808 375.849 204.761 375.736C204.582 375.275 204.808 374.758 205.261 374.569C208.799 373.167 215.233 369.046 218.544 365.62C234.536 349.077 233.536 322.117 216.28 305.565C207.902 297.51 197.034 293.012 185.694 292.908C174.326 292.805 163.806 297.143 156.098 305.123C155.759 305.48 155.183 305.49 154.825 305.151C154.457 304.822 154.457 304.238 154.806 303.881C162.863 295.534 173.844 291.008 185.713 291.111C197.515 291.224 208.818 295.891 217.526 304.266C217.79 304.521 218.054 304.784 218.318 305.047C235.498 322.353 236.262 349.858 219.837 366.853C216.261 370.551 209.638 374.758 205.921 376.225C205.582 376.376 205.204 376.282 204.959 376.037Z" fill="#0C0D46"/>
<path d="M158.863 375.461C162.024 377.512 165.618 378.952 169.364 379.46C172.92 379.94 176.307 379.262 179.704 378.255C169.986 374.934 160.637 368.751 154.24 360.677C149.74 355.003 146.419 348.35 144.995 341.255C144.117 336.898 143.966 332.4 144.542 327.996C138.457 332.983 137.711 341.584 139.381 348.915C141.872 359.925 149.561 369.419 158.863 375.461Z" fill="#C0C1F1"/>
<path d="M150.173 369.374C144.381 363.539 140.324 356.482 138.645 349.095C136.578 340.005 138.607 331.912 144.06 327.433C144.296 327.235 144.626 327.207 144.9 327.358C145.164 327.508 145.315 327.8 145.277 328.11C144.711 332.448 144.862 336.833 145.72 341.125C147.06 347.806 150.202 354.412 154.815 360.227C160.872 367.859 170.023 374.182 179.939 377.56C180.25 377.664 180.448 377.956 180.448 378.285C180.439 378.614 180.222 378.897 179.911 378.981C176.844 379.885 173.184 380.741 169.259 380.214C165.57 379.715 161.834 378.294 158.457 376.102C155.419 374.116 152.636 371.858 150.173 369.374ZM143.579 329.945C139.664 334.246 138.362 341.106 140.098 348.765C142.399 358.919 149.39 368.433 159.268 374.841C162.457 376.911 165.985 378.257 169.457 378.727C172.212 379.094 174.854 378.727 177.231 378.153C167.919 374.53 159.41 368.423 153.645 361.14C148.89 355.146 145.645 348.314 144.258 341.407C143.503 337.624 143.277 333.775 143.579 329.945Z" fill="#0C0D46"/>
<path d="M203.458 376.187C188.354 381.833 170.344 378.615 157.466 366.467C140.559 350.507 138.569 324.902 152.362 307.738C144.645 320.197 142.446 332.684 149.079 346.621C152.72 354.281 157.56 360.284 164.344 365.394C173.891 372.574 186.967 374.842 198.383 371.304C198.817 371.172 199.27 371.031 199.713 371.144C200.175 371.266 200.515 371.642 200.826 372.009C201.968 373.336 203.119 374.672 204.26 375.999C202.666 376.291 201.062 376.573 199.468 376.865" fill="#FFF9F3"/>
<path d="M155.579 366.61C147.824 358.799 143.135 348.608 142.343 337.805C141.532 326.711 144.881 315.965 151.787 307.561C152.051 307.241 152.523 307.194 152.843 307.458C153.164 307.712 153.211 308.192 152.947 308.512C139.192 325.262 141.116 350.65 157.372 366.28C169.457 377.921 187.166 381.863 202.487 376.321C202.874 376.18 203.308 376.377 203.449 376.763C203.591 377.149 203.393 377.582 203.006 377.723C187.156 383.463 168.835 379.389 156.343 367.353C156.07 367.108 155.825 366.864 155.579 366.61Z" fill="#0C0D46"/>
<path d="M157.268 360.55C154.325 357.586 151.74 354.113 149.673 350.189C139.324 330.598 145.485 306.997 163.4 297.587C172.09 293.023 182.213 292.44 191.902 295.94C201.562 299.431 209.648 306.574 214.648 316.059C219.658 325.535 220.988 336.225 218.412 346.152C215.827 356.099 209.619 364.098 200.93 368.661C186.59 376.18 169.023 372.388 157.268 360.55ZM205.94 306.687C201.808 302.527 196.855 299.328 191.383 297.342C182.09 293.983 172.401 294.538 164.089 298.904C146.909 307.929 141.032 330.626 150.994 349.493C160.957 368.36 183.043 376.368 200.223 367.335C208.534 362.968 214.478 355.309 216.959 345.776C219.441 336.215 218.158 325.902 213.318 316.755C211.327 312.982 208.836 309.594 205.94 306.687Z" fill="#0C0D46"/>
<g opacity="0.25">
<g opacity="0.25">
<path opacity="0.25" d="M164.344 365.478C163.881 365.158 163.429 364.82 162.985 364.481C162.117 363.822 156.013 359.917 156.636 358.76C155.994 359.955 156.428 361.366 154.843 361.959C153.777 362.364 152.466 362.006 151.749 361.112C149.749 361.263 147.89 360.086 146.381 358.769C144.022 356.727 140.899 353.424 140.05 350.328C140.72 352.756 141.154 354.732 142.333 356.981C143.494 359.192 144.805 361.319 146.258 363.352C149.192 367.473 152.692 371.228 156.683 374.352C161.523 378.144 167.721 380.619 173.929 379.274C178.495 378.286 182.929 379.603 187.637 379.405C186.581 379.452 186.203 375.877 186.213 375.246C186.232 373.533 186.93 372.018 187.118 370.325C187.043 371.012 182.156 371.331 181.533 371.35C179.618 371.407 177.665 371.2 175.797 370.757C171.665 369.807 167.806 367.897 164.344 365.478Z" fill="#272ABF"/>
</g>
</g>
<g opacity="0.25">
<g opacity="0.25">
<path opacity="0.25" d="M207.751 362.843C215.676 356.52 217.742 348.098 219.129 338.603C219.157 338.434 219.176 338.264 219.271 338.114C219.412 337.878 219.676 337.766 219.922 337.653C225.554 335.15 228.271 330.134 228.563 324.168C232.573 331.32 230.837 342.546 228.611 350.008C225.799 359.465 219.28 368.019 210.308 372.169C210.383 368.951 210.166 365.13 207.44 363.399C208.78 362.778 209.949 361.79 210.78 360.576C209.949 361.3 208.346 362.514 207.789 363.465C208.619 364.321 209.308 365.328 209.808 366.419" fill="#272ABF"/>
</g>
</g>
<g opacity="0.35">
<g opacity="0.35">
<path opacity="0.35" d="M196.662 310.84C197.519 306.947 193.304 302.716 187.248 301.39C181.192 300.064 175.588 302.145 174.732 306.039C173.875 309.932 178.09 314.163 184.145 315.489C190.201 316.815 195.805 314.733 196.662 310.84Z" fill="white"/>
</g>
</g>
<g opacity="0.35">
<g opacity="0.35">
<path opacity="0.35" d="M205.997 324.445C207.664 323.417 207.825 320.664 206.357 318.294C204.889 315.924 202.348 314.836 200.682 315.863C199.015 316.89 198.854 319.644 200.322 322.013C201.79 324.383 204.331 325.472 205.997 324.445Z" fill="white"/>
</g>
</g>
<path d="M201.832 380.216C209.49 377.022 213.808 369.924 211.476 364.362C209.144 358.8 201.046 356.88 193.388 360.074C185.73 363.268 181.413 370.366 183.745 375.928C186.076 381.49 194.175 383.41 201.832 380.216Z" fill="#C9C5E6"/>
<path d="M184.967 379.031C184.184 378.241 183.552 377.328 183.099 376.293C182.099 373.969 182.127 371.353 183.184 368.708C184.731 364.841 188.401 361.369 192.986 359.43C200.987 356.033 209.572 358.075 212.129 363.975C213.129 366.299 213.1 368.915 212.044 371.56C210.496 375.427 206.826 378.9 202.241 380.838C195.647 383.642 188.656 382.739 184.967 379.031ZM209.185 362.253C205.93 358.978 199.6 358.244 193.581 360.795C189.354 362.592 185.986 365.754 184.58 369.254C183.675 371.522 183.637 373.743 184.476 375.691C186.703 380.848 194.411 382.532 201.656 379.455C205.883 377.667 209.251 374.496 210.657 370.995C211.562 368.727 211.6 366.507 210.761 364.559C210.383 363.693 209.845 362.921 209.185 362.253Z" fill="#0C0D46"/>
<path d="M201.383 380.186C207.592 377.591 211.138 371.947 209.303 367.581C207.469 363.214 200.948 361.778 194.739 364.373C188.53 366.968 184.984 372.612 186.819 376.979C188.654 381.345 195.174 382.781 201.383 380.186Z" fill="#C9C5E6"/>
<path d="M187.609 379.462C186.996 378.841 186.505 378.126 186.156 377.326C185.373 375.51 185.392 373.44 186.232 371.351C187.505 368.189 190.543 365.328 194.364 363.71C200.93 360.924 207.931 362.496 209.969 367.22C210.752 369.036 210.733 371.106 209.893 373.195C208.619 376.357 205.582 379.218 201.761 380.836C196.317 383.142 190.572 382.455 187.609 379.462ZM207.421 366.091C204.893 363.54 199.808 363.023 194.94 365.084C191.477 366.552 188.732 369.102 187.609 371.906C186.92 373.619 186.892 375.284 187.515 376.733C189.232 380.704 195.355 381.918 201.157 379.453C204.619 377.985 207.365 375.435 208.487 372.631C209.176 370.918 209.204 369.252 208.582 367.803C208.318 367.163 207.921 366.589 207.421 366.091Z" fill="#0C0D46"/>
<g opacity="0.25">
<g opacity="0.25">
<path opacity="0.25" d="M207.308 365.425C208.827 365.255 210.308 363.345 209.704 361.727C211.487 363.514 212.45 366.582 211.846 369.01C211.242 371.438 209.742 373.527 208.11 375.399C206.468 377.281 204.638 379.022 202.459 380.236C198.959 382.184 194.647 382.617 190.788 381.403C187.675 380.434 184.788 378.298 183.496 375.277C182.033 371.852 183.203 368.794 185.335 366.055C185.175 366.441 185.222 366.893 185.401 367.279C185.581 367.664 185.873 367.984 186.194 368.257C186.769 368.737 187.505 369.104 188.241 368.991C187.996 370.196 188.647 371.513 189.543 372.379C190.439 373.235 191.609 373.734 192.798 374.073C195.628 374.882 198.685 374.901 201.449 373.969C203.317 373.339 205.138 372.341 206.459 370.854C207.657 369.528 209.025 366.93 207.308 365.425Z" fill="#272ABF"/>
</g>
</g>
<path d="M138.683 338.162C138.654 338.134 138.626 338.105 138.607 338.068C138.484 337.851 138.56 337.578 138.777 337.456C140.069 336.732 141.456 336.158 142.881 335.743C143.117 335.678 143.371 335.809 143.437 336.045C143.504 336.28 143.371 336.534 143.136 336.6C141.777 336.995 140.456 337.55 139.22 338.237C139.041 338.341 138.815 338.303 138.683 338.162Z" fill="#0C0D46"/>
<path d="M138.654 345.467C138.503 345.307 138.475 345.062 138.616 344.884C139.843 343.265 141.786 342.192 143.814 342.023C144.06 342.004 144.277 342.183 144.305 342.427C144.324 342.672 144.145 342.889 143.899 342.917C142.126 343.077 140.418 344.008 139.343 345.429C139.192 345.627 138.909 345.665 138.71 345.514C138.682 345.495 138.673 345.476 138.654 345.467Z" fill="#0C0D46"/>
<path d="M139.757 351.506C139.588 351.336 139.588 351.064 139.748 350.885C141.116 349.407 142.965 348.429 144.946 348.109C145.192 348.071 145.418 348.24 145.456 348.485C145.494 348.73 145.324 348.956 145.078 348.993C143.286 349.276 141.625 350.16 140.399 351.487C140.229 351.666 139.946 351.675 139.767 351.515C139.767 351.515 139.767 351.515 139.757 351.506Z" fill="#0C0D46"/>
<path d="M142.324 357.031C142.267 356.974 142.22 356.899 142.201 356.815C142.145 356.57 142.305 356.335 142.541 356.278C144.343 355.892 146.022 354.932 147.277 353.587C147.447 353.408 147.73 353.399 147.909 353.559C148.107 353.719 148.098 354.01 147.937 354.189C146.56 355.676 144.711 356.72 142.73 357.153C142.588 357.181 142.428 357.134 142.324 357.031Z" fill="#0C0D46"/>
<path d="M145.824 363.769C145.786 363.731 145.748 363.684 145.73 363.627C145.635 363.402 145.739 363.138 145.965 363.044C147.777 362.272 149.475 361.143 150.881 359.76C151.06 359.59 151.343 359.59 151.513 359.76C151.692 359.939 151.683 360.221 151.513 360.39C150.032 361.849 148.239 363.053 146.315 363.863C146.135 363.938 145.947 363.891 145.824 363.769Z" fill="#0C0D46"/>
<path d="M149.758 368.644C149.721 368.606 149.692 368.568 149.673 368.531C149.56 368.305 149.655 368.041 149.881 367.928C151.796 366.987 153.579 365.999 154.296 364.315C154.391 364.089 154.655 363.986 154.881 364.08C155.108 364.174 155.211 364.437 155.117 364.663C154.277 366.63 152.343 367.712 150.268 368.728C150.098 368.813 149.89 368.775 149.758 368.644Z" fill="#0C0D46"/>
<path d="M154.682 372.858C154.663 372.839 154.645 372.811 154.626 372.783C154.494 372.576 154.55 372.293 154.758 372.162C156.182 371.258 157.409 370.11 158.418 368.755C158.569 368.557 158.852 368.52 159.05 368.661C159.249 368.812 159.286 369.084 159.145 369.291C158.069 370.731 156.758 371.945 155.248 372.914C155.06 373.037 154.833 373.008 154.682 372.858Z" fill="#0C0D46"/>
<path d="M159.523 376.076C159.485 376.038 159.456 376.001 159.438 375.953C159.324 375.728 159.419 375.464 159.645 375.351C160.891 374.74 162.626 373.253 163.353 372.161C163.494 371.954 163.768 371.898 163.976 372.039C164.183 372.171 164.24 372.453 164.098 372.66C163.287 373.883 161.419 375.483 160.032 376.16C159.862 376.245 159.655 376.208 159.523 376.076Z" fill="#0C0D46"/>
<path d="M164.673 378.456C164.645 378.428 164.617 378.39 164.598 378.353C164.475 378.136 164.56 377.863 164.777 377.741C165.589 377.299 167.551 375.793 167.909 375.087C168.023 374.871 168.287 374.777 168.513 374.89C168.74 375.003 168.825 375.266 168.711 375.492C168.221 376.471 166.032 378.08 165.202 378.532C165.023 378.635 164.806 378.597 164.673 378.456Z" fill="#0C0D46"/>
<path d="M246.017 225.184L290.764 255.926C271.008 276.619 244.969 379.208 244.969 379.208C235.931 381.034 226.893 382.097 218.78 382.699C216.383 376.291 212.619 370.664 206.317 367.436C214.119 364.114 221.176 363.352 221.176 363.352C223.469 345.802 226.138 327.773 229.261 309.31C234.214 279.894 239.884 251.824 246.017 225.184Z" fill="white" stroke="#0C0D46" stroke-width="1.41515" stroke-miterlimit="10" stroke-linecap="round" stroke-linejoin="round"/>
<path d="M229.724 309.752C231.856 313.186 237.365 312.405 239.809 309.253C243.696 304.237 245.734 296.022 242.309 290.263C240.526 287.271 237.026 286.048 233.733 286.819" stroke="#0C0D46" stroke-width="1.41515" stroke-miterlimit="10" stroke-linecap="round" stroke-linejoin="round"/>
<path d="M277.291 252.406C261.734 295.1 247.866 335.055 239.573 379.65" stroke="#0C0D46" stroke-width="0.943436" stroke-miterlimit="10" stroke-linecap="round" stroke-linejoin="round"/>
<path d="M211.515 365.564C211.515 365.564 220.94 368.209 225.883 381.853" stroke="#0C0D46" stroke-width="1.41515" stroke-miterlimit="10" stroke-linecap="round" stroke-linejoin="round"/>
<path d="M206.317 367.445C199.524 370.344 192.156 375.18 188.392 383.179C188.392 383.179 201.496 383.988 218.78 382.708C216.383 376.3 212.619 370.673 206.317 367.445Z" fill="#FFEAD4" stroke="#0C0D46" stroke-width="1.41515" stroke-miterlimit="10" stroke-linecap="round" stroke-linejoin="round"/>
<path d="M191.967 383.142C198.373 378.71 207.072 376.385 214.883 375.83" stroke="#0C0D46" stroke-width="1.41515" stroke-miterlimit="10" stroke-linecap="round" stroke-linejoin="round"/>
<path d="M188.807 383.001C194.279 377.016 201.543 372.64 209.449 370.561" stroke="#0C0D46" stroke-width="1.41515" stroke-miterlimit="10" stroke-linecap="round" stroke-linejoin="round"/>
<path opacity="0.2" d="M284.99 264.734C284.188 268.517 281.32 272.394 279.782 275.612C277.282 280.863 274.933 286.18 272.707 291.553C268.282 302.261 264.395 313.187 260.829 324.206C255.215 341.567 250.404 359.174 245.545 376.761C245.168 378.145 244.762 379.782 243.507 379.086C237.366 380.027 231.224 380.977 225.082 381.918C232.413 378.879 236.394 373.27 238.658 365.996C247.536 337.446 254.781 308.576 259.48 279.009C260.961 269.674 262.753 258.185 257.668 249.631C262.235 253.272 268.178 255.154 274.009 254.816C276.235 254.684 278.481 254.223 280.396 253.094C282.311 251.955 283.858 250.064 284.198 247.871C283.802 252.35 284.094 256.895 285.037 261.29C285.292 262.41 285.236 263.567 284.99 264.734Z" fill="#272ABF"/>
<path d="M349.87 125.419C348.71 116.122 342.181 107.39 333.851 103.24C319.237 95.9564 303.01 90.9031 286.537 91.2513C279.32 91.4019 271.235 92.7475 263.81 95.5329C252.045 99.9557 241.941 108.011 239.545 120.743C241.658 123.415 245.281 124.582 248.96 124.892C251.121 122.004 252.753 117.948 255.498 116.395C262.093 112.659 273.263 112.368 280.688 112.01C296.566 111.248 312.963 115.162 327.898 120.291C331.794 121.627 335.926 123.697 337.898 127.499C338.577 128.807 338.917 130.501 339.285 132.176C342.587 134.575 346.616 134.058 350.04 132.148C350.276 129.588 350.059 126.934 349.87 125.419Z" fill="#5B5EE1"/>
<path d="M346.502 134.254C343.719 134.837 341.059 134.329 338.879 132.748C338.738 132.645 338.644 132.504 338.606 132.334L338.502 131.854C338.172 130.349 337.861 128.928 337.285 127.827C335.747 124.863 332.69 122.679 327.681 120.957C309.633 114.756 294.274 112.055 280.735 112.714L279.32 112.78C271.971 113.119 261.904 113.589 255.857 117.005C254.149 117.974 252.819 120.148 251.527 122.256C250.895 123.291 250.244 124.354 249.536 125.305C249.394 125.502 249.149 125.606 248.913 125.587C245.781 125.324 241.517 124.354 238.998 121.174C238.875 121.014 238.819 120.807 238.856 120.609C241.611 105.976 253.81 98.5331 263.565 94.8726C270.556 92.2471 278.707 90.7039 286.528 90.5439C301.453 90.2334 317.482 94.2891 334.172 102.608C342.832 106.927 349.418 116.055 350.578 125.333C350.72 126.453 351.012 129.351 350.757 132.212C350.738 132.447 350.606 132.654 350.399 132.767C349.097 133.492 347.785 133.99 346.502 134.254ZM339.927 131.76C342.54 133.529 345.955 133.51 349.37 131.713C349.559 129.116 349.295 126.528 349.172 125.512C348.078 116.685 341.795 107.99 333.54 103.869C317.058 95.6536 301.246 91.6449 286.556 91.9554C278.896 92.1154 270.905 93.621 264.065 96.19C254.725 99.6999 243.055 106.767 240.309 120.543C242.432 123.009 245.913 123.865 248.63 124.138C249.215 123.319 249.772 122.407 250.319 121.513C251.696 119.254 253.13 116.911 255.159 115.763C261.499 112.178 271.763 111.698 279.254 111.35L280.66 111.284C294.387 110.625 309.916 113.345 328.134 119.602C331.521 120.769 336.276 122.811 338.54 127.149C339.2 128.42 339.549 130 339.889 131.525L339.927 131.76Z" fill="#0C0D46"/>
<path d="M339.294 132.174C339.964 135.167 340.776 138.122 343.946 138.865C348.248 139.872 349.691 136.108 350.05 132.137C346.625 134.066 342.596 134.583 339.294 132.174Z" fill="#272ABF"/>
<path d="M346.304 139.646C345.549 139.806 344.7 139.778 343.785 139.561C340.021 138.677 339.2 135.016 338.606 132.334C338.54 132.052 338.662 131.751 338.908 131.591C339.153 131.431 339.474 131.441 339.709 131.61C342.436 133.586 346.078 133.558 349.7 131.535C349.927 131.403 350.21 131.412 350.427 131.553C350.644 131.695 350.766 131.949 350.748 132.212C350.446 135.534 349.502 137.802 347.927 138.931C347.446 139.279 346.898 139.524 346.304 139.646ZM340.379 133.633C341.011 135.948 341.908 137.67 344.115 138.178C345.351 138.47 346.332 138.338 347.115 137.774C348.125 137.04 348.842 135.534 349.191 133.37C346.078 134.772 342.983 134.856 340.379 133.633Z" fill="#0C0D46"/>
<path d="M239.545 120.74C239.517 120.863 239.498 120.985 239.47 121.117C238.838 124.73 239.819 128.014 243.847 128.052C246.027 128.071 247.602 126.706 248.961 124.881C245.281 124.589 241.658 123.422 239.545 120.74Z" fill="#272ABF"/>
<path d="M245.026 128.655C244.649 128.73 244.262 128.777 243.847 128.767C242.101 128.749 240.752 128.184 239.837 127.083C238.384 125.342 238.46 122.811 238.781 120.995C238.79 120.91 238.809 120.835 238.828 120.759L238.856 120.609C238.903 120.336 239.111 120.12 239.384 120.054C239.658 119.978 239.941 120.082 240.111 120.298C242.309 123.074 246.177 123.94 249.026 124.175C249.281 124.194 249.507 124.354 249.611 124.589C249.715 124.825 249.687 125.098 249.536 125.305C248.583 126.584 247.139 128.212 245.026 128.655ZM240.035 122.293C239.903 123.959 240.205 125.323 240.922 126.18C241.564 126.942 242.545 127.337 243.856 127.356C245.196 127.365 246.385 126.773 247.592 125.446C245.092 125.098 242.186 124.241 240.035 122.293Z" fill="#0C0D46"/>
<path d="M464.082 176.013C481.965 176.013 496.461 161.554 496.461 143.717C496.461 125.881 481.965 111.422 464.082 111.422C446.2 111.422 431.704 125.881 431.704 143.717C431.704 161.554 446.2 176.013 464.082 176.013Z" fill="#7B7D9B" stroke="#0C0D46" stroke-width="0.943436" stroke-miterlimit="10" stroke-linecap="round" stroke-linejoin="round"/>
<path d="M480.48 171.837C473.829 175.714 466.102 177.097 458.432 175.752C449.856 174.246 442.384 169.494 437.384 162.38C432.393 155.266 430.468 146.637 431.987 138.083C433.497 129.529 438.261 122.076 445.393 117.089C452.526 112.111 461.177 110.191 469.753 111.706C478.329 113.212 485.801 117.964 490.801 125.078C501.113 139.767 497.518 160.084 482.791 170.369C482.036 170.887 481.263 171.376 480.48 171.837ZM447.922 115.988C447.148 116.44 446.384 116.929 445.639 117.447C438.601 122.359 433.902 129.717 432.412 138.158C430.921 146.599 432.808 155.106 437.742 162.126C442.667 169.146 450.044 173.832 458.507 175.319C466.97 176.806 475.498 174.924 482.536 170.002C489.574 165.09 494.273 157.731 495.763 149.29C497.254 140.85 495.367 132.343 490.433 125.323C485.508 118.303 478.131 113.617 469.668 112.13C462.102 110.794 454.479 112.168 447.922 115.988Z" fill="#7B7D9B" stroke="#0C0D46" stroke-width="0.943436" stroke-miterlimit="10" stroke-linecap="round" stroke-linejoin="round"/>
<g opacity="0.3">
<path opacity="0.3" d="M483.017 137.696C482.791 142.458 481.668 147.172 479.593 151.557C476.507 158.079 471.583 163.734 465.526 167.668C460.167 171.149 452.582 174.396 446.516 170.669C450.035 172.834 454.091 174.603 458.101 175.412C461.526 176.099 464.865 176.024 468.337 175.6C470.394 175.346 472.47 175.026 474.413 174.311C475.46 173.925 476.564 173.502 477.583 173.031C484.753 169.691 490.593 163.809 493.735 156.554C497.15 148.65 497.386 139.466 493.923 131.589C492.225 127.731 490.112 124.033 487.074 121.097C484.253 118.359 479.47 114.444 475.545 113.738C476.507 113.917 478.63 117.643 479.008 118.415C481.942 124.409 483.338 131.091 483.017 137.696Z" fill="#0C0D46"/>
</g>
<path d="M462.45 130.734C465.53 130.734 468.026 128.244 468.026 125.173C468.026 122.101 465.53 119.611 462.45 119.611C459.371 119.611 456.875 122.101 456.875 125.173C456.875 128.244 459.371 130.734 462.45 130.734Z" fill="#7B7D9B" stroke="#0C0D46" stroke-width="0.943436" stroke-miterlimit="10" stroke-linecap="round" stroke-linejoin="round"/>
<path opacity="0.3" d="M462.318 130.423C465.174 130.423 467.488 128.114 467.488 125.266C467.488 122.418 465.174 120.109 462.318 120.109C459.463 120.109 457.148 122.418 457.148 125.266C457.148 128.114 459.463 130.423 462.318 130.423Z" fill="#0C0D46"/>
<path d="M446.082 145.733C448.526 145.733 450.507 143.757 450.507 141.32C450.507 138.882 448.526 136.906 446.082 136.906C443.638 136.906 441.657 138.882 441.657 141.32C441.657 143.757 443.638 145.733 446.082 145.733Z" fill="#7B7D9B" stroke="#0C0D46" stroke-width="0.943436" stroke-miterlimit="10" stroke-linecap="round" stroke-linejoin="round"/>
<path opacity="0.3" d="M445.912 145.47C448.21 145.47 450.073 143.612 450.073 141.32C450.073 139.028 448.21 137.17 445.912 137.17C443.614 137.17 441.751 139.028 441.751 141.32C441.751 143.612 443.614 145.47 445.912 145.47Z" fill="#0C0D46"/>
<path d="M466.158 155.876C470.113 155.876 473.319 152.679 473.319 148.734C473.319 144.789 470.113 141.592 466.158 141.592C462.204 141.592 458.998 144.789 458.998 148.734C458.998 152.679 462.204 155.876 466.158 155.876Z" fill="#7B7D9B" stroke="#0C0D46" stroke-width="0.943436" stroke-miterlimit="10" stroke-linecap="round" stroke-linejoin="round"/>
<path opacity="0.3" d="M465.96 155.519C469.659 155.519 472.658 152.527 472.658 148.837C472.658 145.148 469.659 142.156 465.96 142.156C462.26 142.156 459.261 145.148 459.261 148.837C459.261 152.527 462.26 155.519 465.96 155.519Z" fill="#0C0D46"/>
<path d="M192.279 94.6355C192.883 96.4892 193.364 98.9923 193.807 101.025C194.411 98.0137 194.628 94.9272 194.458 91.8595C197.137 98.6724 197.147 106.191 197.307 113.399C197.439 119.243 196.826 125.915 192.939 130.601C190.665 133.349 186.269 134.704 183.439 132.53C181.627 131.137 180.939 128.766 180.354 126.564C178.929 121.2 177.514 115.836 176.089 110.473C174.825 105.721 173.721 101.11 173.391 96.1599C174.561 98.136 180.476 108.054 180.307 101.345C180.174 96.3575 179.165 91.5113 179.448 86.4769C179.523 85.1313 179.646 83.7292 180.373 82.5999C182.901 88.0578 184.939 93.7415 186.618 99.5005C186.778 96.5081 186.863 93.5157 186.826 90.5232C186.788 87.6626 186.514 84.8207 186.052 81.9883C189.496 85.1877 190.76 89.9869 192.279 94.6355Z" fill="#FFEAD4" stroke="#0C0D46" stroke-width="1.41515" stroke-miterlimit="10" stroke-linecap="round" stroke-linejoin="round"/>
<path d="M186.41 98.6445C187.08 101.11 187.722 104.206 187.91 106.624" stroke="#0C0D46" stroke-width="1.41515" stroke-miterlimit="10" stroke-linecap="round" stroke-linejoin="round"/>
<path d="M193.599 99.3887C193.826 101.497 193.967 103.614 194.033 105.731" stroke="#0C0D46" stroke-width="1.41515" stroke-miterlimit="10" stroke-linecap="round" stroke-linejoin="round"/>
<path d="M180.203 102.381C180.278 104.206 180.448 106.023 180.731 107.829" stroke="#0C0D46" stroke-width="1.41515" stroke-miterlimit="10" stroke-linecap="round" stroke-linejoin="round"/>
<path d="M265.159 167.507C265.565 170.18 253.404 172.674 251.517 173.172C239.63 176.343 226.573 178.254 214.704 173.982C202.336 169.531 193.118 160.412 186.882 149.064C181.731 139.682 176.75 125.952 185.59 117.135C186.892 115.837 188.609 115.008 190.439 114.745C192.628 114.434 195.109 114.491 197.109 115.601C202.147 118.405 202.289 125.896 205.251 130.375C208.44 135.212 212.78 139.221 218.553 140.623C231.478 143.775 245.809 140.209 255.904 131.608C257.319 130.403 259.489 131.175 259.782 133.01C261.367 143.22 265.159 167.489 265.159 167.507Z" fill="white" stroke="#0C0D46" stroke-width="1.41515" stroke-miterlimit="10" stroke-linecap="round" stroke-linejoin="round"/>
<path d="M182.467 138.998C182.655 134.029 185.061 129.07 189.212 126.313C193.354 123.556 199.213 123.339 203.26 126.247" stroke="#0C0D46" stroke-width="1.41515" stroke-miterlimit="10" stroke-linecap="round" stroke-linejoin="round"/>
<path d="M183.722 142.318C190.071 152.048 200.27 162.701 211.232 166.615C226.752 172.158 245.696 170.991 258.932 160.649" stroke="#0C0D46" stroke-width="0.943436" stroke-miterlimit="10" stroke-linecap="round" stroke-linejoin="round"/>
<path d="M317.727 130.111C328.718 144.141 331.369 164.156 333.426 181.302C335.181 195.962 335.501 210.812 333.964 225.501C333.237 232.455 332.162 239.597 329.152 245.987C318.671 268.204 288.32 270.312 269.112 258.69C252.781 248.81 241.809 229.171 242.214 210.106C242.573 193.422 248.451 175.627 252.366 159.451C254.385 151.123 256.404 136.688 257.526 128.85C260.517 131.682 265.734 133.978 271.291 135.418C291.518 140.669 310.019 133.442 317.727 130.111Z" fill="white" stroke="#0C0D46" stroke-width="1.41515" stroke-miterlimit="10" stroke-linecap="round" stroke-linejoin="round"/>
<path d="M274.895 136.756C273.508 161.909 258.574 186.921 260.093 212.065C260.48 218.436 261.366 226.933 262.923 233.115C266.451 247.099 273.367 256.744 285.32 264.856" stroke="#0C0D46" stroke-width="0.943436" stroke-miterlimit="10" stroke-linecap="round" stroke-linejoin="round"/>
<path d="M279.688 137.355C278.301 162.509 263.735 186.918 265.263 212.062C265.65 218.433 266.537 226.93 268.093 233.113C271.178 245.346 276.396 254.37 285.377 262.002" stroke="#0C0D46" stroke-width="0.943436" stroke-miterlimit="10" stroke-linecap="round" stroke-linejoin="round"/>
<path d="M330.54 241.574C330.54 241.574 331.615 318.012 331.813 365.035C331.813 365.035 334.464 374.859 335.332 379.771C335.332 379.771 325.379 381.098 312.473 382.519C308.963 376.346 304.604 370.925 297.425 369.166C299.953 367.444 302.906 365.806 306.369 364.395C308.916 363.36 304.199 349.96 303.699 348.012C298.717 328.843 294.227 310.146 290.311 290.723C287.604 277.276 283.679 261.797 284.481 248.011" fill="white"/>
<path d="M330.54 241.574C330.54 241.574 331.615 318.012 331.813 365.035C331.813 365.035 334.464 374.859 335.332 379.771C335.332 379.771 325.379 381.098 312.473 382.519C308.963 376.346 304.604 370.925 297.425 369.166C299.953 367.444 302.906 365.806 306.369 364.395C308.916 363.36 304.199 349.96 303.699 348.012C298.717 328.843 294.227 310.146 290.311 290.723C287.604 277.276 283.679 261.797 284.481 248.011" stroke="#0C0D46" stroke-width="1.41515" stroke-miterlimit="10" stroke-linecap="round" stroke-linejoin="round"/>
<path d="M323.539 215.423C323.567 215.019 323.586 214.623 323.615 214.219C323.445 228.108 321.596 241.772 321.586 255.661C321.577 269.654 321.596 283.646 321.879 297.639C322.435 325.173 323.851 352.867 328.794 380.006" stroke="#0C0D46" stroke-width="0.943436" stroke-miterlimit="10" stroke-linecap="round" stroke-linejoin="round"/>
<path d="M301.661 366.727C301.661 366.727 313.246 367.564 319.265 381.642" stroke="#0C0D46" stroke-width="1.41515" stroke-miterlimit="10" stroke-linecap="round" stroke-linejoin="round"/>
<path d="M297.434 369.156C286.877 376.374 283.934 385.153 283.934 385.153C293.321 384.504 303.595 383.488 312.473 382.509C308.972 376.336 304.614 370.925 297.434 369.156Z" fill="#FFEAD4" stroke="#0C0D46" stroke-width="1.41515" stroke-miterlimit="10" stroke-linecap="round" stroke-linejoin="round"/>
<path d="M287.349 384.966C293.5 380.656 300.869 378.04 308.275 376.77" stroke="#0C0D46" stroke-width="1.41515" stroke-miterlimit="10" stroke-linecap="round" stroke-linejoin="round"/>
<path d="M284.235 385.043C288.273 380.084 296.594 373.544 302.906 371.709" stroke="#0C0D46" stroke-width="1.41515" stroke-miterlimit="10" stroke-linecap="round" stroke-linejoin="round"/>
<path d="M298.189 321.87C299.415 321.823 300.566 321.211 301.529 320.449C306.01 316.92 306.689 309.035 304.633 304.028C301.84 297.225 296.453 295.136 291.066 295.992" stroke="#0C0D46" stroke-width="1.41515" stroke-miterlimit="10" stroke-linecap="round" stroke-linejoin="round"/>
<path d="M316.246 126.79C313.529 113.663 317.114 102.672 319.199 89.2908C321.605 73.8771 312.916 60.1665 297.273 57.1835C287.424 55.3015 275.923 57.5882 269.263 65.7279C262.668 73.7924 261.979 84.8963 260.46 94.7675C258.838 105.307 258.177 115.724 258.14 126.385C276.678 137.442 297.066 134.403 316.246 126.79Z" fill="#D6A35F" stroke="#0C0D46" stroke-width="1.41515" stroke-miterlimit="10" stroke-linecap="round" stroke-linejoin="round"/>
<path d="M258.139 126.375C258.139 127.514 258.13 128.643 258.13 129.781C261.422 133.056 266.177 134.722 272.206 135.917C291.358 139.719 308.991 133.753 317.189 130.638C316.802 129.33 316.5 128.05 316.246 126.78C297.066 134.402 276.678 137.441 258.139 126.375Z" fill="white" stroke="#0C0D46" stroke-width="1.41515" stroke-miterlimit="10" stroke-linecap="round" stroke-linejoin="round"/>
<path d="M277.357 117.116C289.641 119.6 302.037 113.22 306.698 102.041C311.104 91.473 308.302 78.487 298.415 71.8811C288.593 65.3223 274.338 67.1102 266.8 76.0122C259.413 84.7353 259.564 93.6185 262.819 103.8C264.942 110.406 270.13 115.648 277.357 117.116Z" fill="#EDCDA4" stroke="#0C0D46" stroke-width="1.41515" stroke-miterlimit="10" stroke-linecap="round" stroke-linejoin="round"/>
<path d="M282.622 106.729C282.339 103.36 277.961 101.111 275.829 104.207C274.433 106.24 274.801 109.938 276.433 111.622C277.15 112.356 278.254 112.761 279.244 112.469C279.895 112.272 280.433 111.81 280.886 111.302C282.009 110.07 282.754 108.404 282.622 106.729Z" fill="#D6A35F" stroke="#0C0D46" stroke-width="1.41515" stroke-miterlimit="10" stroke-linecap="round" stroke-linejoin="round"/>
<path d="M278.602 89.912C273.423 89.4792 276.866 98.2494 281.367 96.1415C282.65 95.5393 284.593 93.9019 284.631 92.3304C284.706 89.7238 280.291 90.0532 278.602 89.912Z" fill="#A06D35" stroke="#0C0D46" stroke-width="1.41515" stroke-miterlimit="10" stroke-linecap="round" stroke-linejoin="round"/>
<path d="M279.273 96.4141C278.876 98.4372 278.678 100.112 278.565 102.568" stroke="#0C0D46" stroke-width="1.41515" stroke-miterlimit="10" stroke-linecap="round" stroke-linejoin="round"/>
<path opacity="0.2" d="M315.698 108.224C317.33 96.3768 322.557 83.7673 317.132 72.334C315.528 68.9558 313.255 65.8975 310.472 63.4038C306.547 59.8844 301.603 57.5037 296.405 56.6191C296.631 57.8801 299.556 59.1599 300.49 59.9315C301.952 61.1266 303.292 62.4816 304.49 63.9402C306.839 66.8103 308.641 70.132 309.707 73.6891C311.708 80.3326 311.142 87.7195 308.141 93.9772C306.726 96.932 303.868 101.449 300.094 101.27C296.15 101.082 292.424 98.9928 289.225 96.8755C286.442 95.0312 283.169 92.5375 279.716 92.227C276.668 91.9541 273.329 92.4246 270.413 93.3656C267.347 94.3536 264.196 95.1065 261.017 95.5958C260.753 95.6334 260.46 95.6899 260.281 95.8875C259.875 96.3486 259.979 98.5411 259.922 99.2187C264.574 100.178 269.206 97.5343 273.951 97.4213C280.819 97.252 286.584 102.249 292.98 104.724C294.829 105.439 296.745 106.013 298.707 106.333C301.122 106.728 302.207 106.323 303.603 108.61C304.736 110.483 305.16 112.732 305.387 114.877C305.698 117.898 305.679 120.994 304.896 123.93C304.075 127.026 301.924 130.667 298.886 132.041C300.169 131.458 301.934 131.364 303.311 131.006C304.858 130.601 306.405 130.159 307.934 129.67C308.509 129.491 316.179 127.477 316.104 126.818C315.538 121.831 315 116.797 315.33 111.791C315.406 110.605 315.528 109.419 315.698 108.224Z" fill="#0C0D46"/>
<path d="M287.037 60.6261C286.329 61.0119 285.414 61.0213 284.697 60.6543C283.706 60.1367 283.159 58.8946 283.338 57.803C283.565 56.4292 285.093 55.4129 286.452 55.7422C287.348 55.9586 288.056 56.6362 288.716 57.2855C287.791 56.3256 287.018 53.8414 287.659 52.6087C288.216 51.5453 289.659 51.3006 290.82 51.5924C294.707 52.5898 297.669 57.2855 298.773 60.8801" fill="#D6A35F"/>
<path d="M287.037 60.6261C286.329 61.0119 285.414 61.0213 284.697 60.6543C283.706 60.1367 283.159 58.8946 283.338 57.803C283.565 56.4292 285.093 55.4129 286.452 55.7422C287.348 55.9586 288.056 56.6362 288.716 57.2855C287.791 56.3256 287.018 53.8414 287.659 52.6087C288.216 51.5453 289.659 51.3006 290.82 51.5924C294.707 52.5898 297.669 57.2855 298.773 60.8801" stroke="#0C0D46" stroke-width="1.41515" stroke-miterlimit="10" stroke-linecap="round" stroke-linejoin="round"/>
<path opacity="0.5" d="M263.177 117.34C262.866 119.109 262.781 120.925 262.942 122.722" stroke="#0C0D46" stroke-width="0.943436" stroke-miterlimit="10" stroke-linecap="round" stroke-linejoin="round"/>
<path opacity="0.5" d="M300.217 114.811C300.49 117.05 300.49 118.245 299.868 120.777" stroke="#0C0D46" stroke-width="0.943436" stroke-miterlimit="10" stroke-linecap="round" stroke-linejoin="round"/>
<path opacity="0.5" d="M310.18 120.041C310.406 122.027 310.633 124.012 310.859 126.007" stroke="#0C0D46" stroke-width="0.943436" stroke-miterlimit="10" stroke-linecap="round" stroke-linejoin="round"/>
<path opacity="0.5" d="M271.168 126.742C270.904 128.332 270.885 129.97 271.102 131.57" stroke="#0C0D46" stroke-width="0.943436" stroke-miterlimit="10" stroke-linecap="round" stroke-linejoin="round"/>
<path opacity="0.5" d="M287.867 123.844C287.971 125.669 288.065 127.504 288.169 129.33" stroke="#0C0D46" stroke-width="0.943436" stroke-miterlimit="10" stroke-linecap="round" stroke-linejoin="round"/>
<path opacity="0.5" d="M314.189 95.9336C314.302 98.2673 314.076 100.61 313.51 102.878" stroke="#0C0D46" stroke-width="0.943436" stroke-miterlimit="10" stroke-linecap="round" stroke-linejoin="round"/>
<path d="M311.114 95.5476L317.473 99.3681L318.784 92.3199L313.397 87.2949L311.114 95.5476Z" fill="#7B7D9B" stroke="#0C0D46" stroke-width="1.41515" stroke-miterlimit="10" stroke-linecap="round" stroke-linejoin="round"/>
<path d="M251.574 76.1358L310.029 77.3968C314.312 79.8246 316.794 88.3784 314.765 93.5069C313.058 97.8167 308.935 101.449 304.303 101.656C293.613 102.127 287.217 92.4906 277.669 92.0577C273.499 91.8695 269.499 93.5445 265.442 94.5138C261.386 95.483 256.65 95.5959 253.527 92.8105C248.904 88.6889 248.791 81.669 251.536 76.2205C251.583 76.1358 251.621 76.0417 251.668 75.957" fill="#424EC1"/>
<path d="M251.574 76.1358L310.029 77.3968C314.312 79.8246 316.794 88.3784 314.765 93.5069C313.058 97.8167 308.935 101.449 304.303 101.656C293.613 102.127 287.217 92.4906 277.669 92.0577C273.499 91.8695 269.499 93.5445 265.442 94.5138C261.386 95.483 256.65 95.5959 253.527 92.8105C248.904 88.6889 248.791 81.669 251.536 76.2205C251.583 76.1358 251.621 76.0417 251.668 75.957" stroke="#0C0D46" stroke-width="1.41515" stroke-miterlimit="10" stroke-linecap="round" stroke-linejoin="round"/>
<path d="M311.378 78.8358C312.944 81.9129 313.312 86.411 312.19 89.4975C310.633 93.7414 306.576 97.0538 302.151 97.4584C293.019 98.2865 285.773 88.5188 276.622 88.0954C272.622 87.9072 268.792 89.5539 264.895 90.5044C260.999 91.4548 256.461 91.5677 253.47 88.8482C248.961 84.7548 249.31 77.349 253.017 72.7946C257.084 67.7884 266.424 66.4804 272.443 66.1792C280.245 65.7934 288.311 66.4992 295.859 68.8988C301.661 70.7431 308.416 73.0204 311.378 78.8358Z" fill="#5B5EE1" stroke="#0C0D46" stroke-width="1.41515" stroke-miterlimit="10" stroke-linecap="round" stroke-linejoin="round"/>
<path d="M263.518 70.8295C264.282 70.6503 265.084 70.5276 265.914 70.4805" stroke="#0C0D46" stroke-width="1.41515" stroke-miterlimit="10" stroke-linecap="round" stroke-linejoin="round"/>
<path d="M254.121 78.7531C254.678 76.5605 257.187 73.3611 261.074 71.6484" stroke="#0C0D46" stroke-width="1.41515" stroke-miterlimit="10" stroke-linecap="round" stroke-linejoin="round"/>
<path d="M250.243 135.043C251.262 137.123 252.224 140.51 252.564 143.014C255.516 141.781 258.507 141.451 261.668 141.903C261.404 136.304 259.951 130.78 257.101 126.828" fill="#5B5EE1"/>
<path d="M250.243 135.043C251.262 137.123 252.224 140.51 252.564 143.014C255.516 141.781 258.507 141.451 261.668 141.903C261.404 136.304 259.951 130.78 257.101 126.828" stroke="#0C0D46" stroke-width="1.41515" stroke-miterlimit="10" stroke-linecap="round" stroke-linejoin="round"/>
<path d="M261.102 150.568C261.602 147.802 261.8 144.847 261.668 141.892C258.517 141.441 255.516 141.77 252.563 143.003C252.875 145.223 252.95 147.576 252.865 149.957C255.582 149.364 258.413 149.731 261.102 150.568Z" fill="#272ABF" stroke="#0C0D46" stroke-width="1.41515" stroke-miterlimit="10" stroke-linecap="round" stroke-linejoin="round"/>
<path d="M252.856 149.967C252.602 157.006 250.913 164.374 249.432 169.973C253.564 168.27 257.828 160.478 259.489 156.338C260.187 154.588 260.725 152.63 261.093 150.579C258.413 149.732 255.583 149.365 252.856 149.967Z" fill="#5B5EE1" stroke="#0C0D46" stroke-width="1.41515" stroke-miterlimit="10" stroke-linecap="round" stroke-linejoin="round"/>
<path d="M252.102 158.221C253.441 159.67 255.46 160.451 257.432 160.291" stroke="#0C0D46" stroke-width="0.943436" stroke-miterlimit="10" stroke-linecap="round" stroke-linejoin="round"/>
<path opacity="0.2" d="M334.992 379.564C331.275 380.637 327.756 381.117 323.878 381.352C321.105 381.521 316.133 382.02 313.623 382.453C317.482 380.336 319.897 376.195 320.925 371.914C321.954 367.632 321.765 363.181 321.576 358.787C320.133 325.56 318.586 291.749 312.416 258.945C312.019 256.847 311.604 254.749 311.538 252.622C311.453 249.695 312.019 246.788 312.491 243.899C314.293 232.701 314.387 221.644 312.435 210.474C317.397 210.465 322.643 209.533 327.511 208.564C329.907 208.084 332.218 207.83 334.115 206.117C334.124 206.305 334.143 206.494 334.152 206.682C334.483 211.735 334.52 216.722 334.237 221.794C334.077 224.636 333.785 227.469 333.313 230.273C332.898 232.767 331.511 235.778 331.511 238.253C329.115 246.59 330.36 255.784 330.558 264.45C330.775 273.719 331.02 282.988 331.247 292.257C331.69 310.616 332.039 328.975 331.832 347.344C331.756 353.545 330.794 360.142 331.869 366.277C332.077 367.435 332.388 368.564 332.709 369.693C333.605 372.902 334.096 376.355 334.992 379.564Z" fill="#272ABF"/>
<path d="M290.905 183.044C288.094 180.673 286.509 177.172 285.386 173.681C282.848 165.824 280.829 158.23 273.885 152.96C271.442 151.106 268.149 150.636 265.215 149.779C265.376 149.826 267.017 154.917 267.215 155.444C268.074 157.768 268.753 160.149 269.244 162.568C267.055 159.801 264.272 157.514 261.14 155.905C264.045 160.535 265.461 165.824 266.725 171.065C267.744 175.318 268.112 179.468 269.697 183.571C272.791 191.598 280.074 197.074 286.82 201.939L290.905 183.044Z" fill="#FFEAD4" stroke="#0C0D46" stroke-width="1.41515" stroke-miterlimit="10" stroke-linecap="round" stroke-linejoin="round"/>
<path d="M265.659 149.928C271.187 153.965 276.395 161.239 278.112 168.55" stroke="#0C0D46" stroke-width="1.41515" stroke-miterlimit="10" stroke-linecap="round" stroke-linejoin="round"/>
<path d="M268.914 162.059C270.112 163.771 272.735 169.079 273.48 173.181" stroke="#0C0D46" stroke-width="1.41515" stroke-miterlimit="10" stroke-linecap="round" stroke-linejoin="round"/>
<path d="M319.029 136.115C324.869 138.778 330.086 148.038 333.992 157.175C337.388 165.108 339.794 172.946 340.747 176.268C343.313 185.189 347.558 205.016 332.218 203.755C320.727 202.805 314.944 191.597 311.085 182.244C307.934 174.612 305.368 166.566 304.972 158.267" fill="white"/>
<path d="M319.029 136.115C324.869 138.778 330.086 148.038 333.992 157.175C337.388 165.108 339.794 172.946 340.747 176.268C343.313 185.189 347.558 205.016 332.218 203.755C320.727 202.805 314.944 191.597 311.085 182.244C307.934 174.612 305.368 166.566 304.972 158.267" stroke="#0C0D46" stroke-width="1.41515" stroke-miterlimit="10" stroke-linecap="round" stroke-linejoin="round"/>
<path d="M343.171 194.004C342.766 199.293 340.322 205.014 336.275 208.468C327.906 215.619 315.462 213.53 305.698 210.82C298.433 208.806 291.594 205.56 285.376 201.325C279.499 197.326 277.216 190.118 277.857 183.098C278.159 179.805 280.414 174.403 284.48 174.281C288.009 174.177 293.122 179.532 296.631 180.943C301.292 182.806 305.575 182.759 310.538 182.27C316.878 181.649 320.972 183.296 326.567 185.902" fill="white"/>
<path d="M343.171 194.004C342.766 199.293 340.322 205.014 336.275 208.468C327.906 215.619 315.462 213.53 305.698 210.82C298.433 208.806 291.594 205.56 285.376 201.325C279.499 197.326 277.216 190.118 277.857 183.098C278.159 179.805 280.414 174.403 284.48 174.281C288.009 174.177 293.122 179.532 296.631 180.943C301.292 182.806 305.575 182.759 310.538 182.27C316.878 181.649 320.972 183.296 326.567 185.902" stroke="#0C0D46" stroke-width="1.41515" stroke-miterlimit="10" stroke-linecap="round" stroke-linejoin="round"/>
<path d="M286.725 197.657C292.593 201.026 298.254 203.106 304.801 204.856C313.443 207.171 324.538 207.848 331.803 201.647C340.709 194.044 335.793 175.59 332.755 165.785C329.906 156.582 319.745 139.587 314.566 131.457" stroke="#0C0D46" stroke-width="0.943436" stroke-miterlimit="10" stroke-linecap="round" stroke-linejoin="round"/>
<path d="M290.254 204.506C286.518 199.378 284.376 192.734 285.989 186.599C286.348 185.244 286.886 183.926 287.706 182.778C289.065 180.868 291.197 179.513 293.509 179.08" stroke="#0C0D46" stroke-width="1.41515" stroke-miterlimit="10" stroke-linecap="round" stroke-linejoin="round"/>
<path opacity="0.2" d="M315.632 156.471C326.397 158.306 331.888 177.098 332.369 186.037C334.02 216.554 273.876 205.385 278.527 181.511C276.565 191.599 280.329 199.908 289.367 204.876C297.141 209.149 306.255 210.852 314.831 212.79C326.359 215.406 339.275 209.798 342.181 197.339C344.256 188.437 341.152 179.196 338.464 170.868C333.652 155.953 327.652 142.497 317.453 130.358C316.453 129.163 316.406 128.626 316.029 127.111C310.991 129.549 305.528 131.101 299.962 131.675C300.802 132.607 301.028 134.301 300.66 135.505C300.434 136.249 299.849 135.834 299.113 136.07C303.292 134.771 308.198 155.436 309.698 158.174C311.717 156.612 313.717 156.141 315.632 156.471Z" fill="#272ABF"/>
<path opacity="0.2" d="M198.552 154.183C189.976 146.636 182.306 135.062 181.372 123.469C179.891 136.248 184.929 147.681 192.241 157.816C204.345 174.603 228.45 181.454 247.8 174.782C248.309 174.603 248.932 169.776 249.083 169.098C249.536 167.085 249.979 165.061 250.413 163.048C251.224 159.331 252.3 155.614 252.753 151.84C250.498 155.35 247.205 158.117 243.545 160.14C228.62 168.393 211.081 165.221 198.552 154.183Z" fill="#272ABF"/>
<path opacity="0.57" d="M69.3393 192.387C68.6884 199.049 68.2827 205.947 70.5186 212.261C79.8304 238.591 119.219 215.291 111.737 193.196C103.699 169.455 72.1885 163.244 69.3393 192.387Z" fill="#424156"/>
<path opacity="0.57" d="M82.4249 165.597C80.3021 165.559 78.0945 165.07 76.2076 164.176C70.0564 161.24 70.9432 152.046 76.2171 148.48C81.5286 144.885 87.6704 150.456 89.9346 155.076C93.5385 162.435 88.2742 165.71 82.4249 165.597Z" fill="#424156"/>
<path opacity="0.57" d="M406.863 284.775C406.797 286.892 406.287 289.085 405.363 290.957C402.344 297.055 393.136 296.058 389.636 290.76C386.098 285.415 391.759 279.364 396.419 277.162C403.825 273.652 407.042 278.941 406.863 284.775Z" fill="#424156"/>
<path d="M306.438 159.494L286.987 158.395L286.285 170.758L305.735 171.858L306.438 159.494Z" stroke="#0C0D46" stroke-width="0.943436" stroke-miterlimit="10" stroke-linecap="round" stroke-linejoin="round"/>
<path d="M324.322 132.303C316.793 133.394 310.887 137.205 306.991 142.381C311.774 142.927 314.623 146.521 317.265 150.37C321.152 147.82 325.859 146.672 330.879 147.811" fill="#5B5EE1"/>
<path d="M324.322 132.303C316.793 133.394 310.887 137.205 306.991 142.381C311.774 142.927 314.623 146.521 317.265 150.37C321.152 147.82 325.859 146.672 330.879 147.811" stroke="#0C0D46" stroke-width="1.41515" stroke-miterlimit="10" stroke-linecap="round" stroke-linejoin="round"/>
<path d="M306.991 142.381C305.425 144.47 304.17 146.766 303.292 149.213C306.915 150.361 310.114 152.083 312.916 154.172C314.199 152.704 315.661 151.424 317.265 150.379C314.614 146.512 311.774 142.927 306.991 142.381Z" fill="#272ABF" stroke="#0C0D46" stroke-width="1.41515" stroke-miterlimit="10" stroke-linecap="round" stroke-linejoin="round"/>
<path d="M312.906 154.162C310.113 152.083 306.906 150.361 303.283 149.203C300.217 157.719 301.519 167.863 308.415 175.862C307.5 174.62 307 170.197 307.057 168.729C307.255 163.365 309.444 158.114 312.906 154.162Z" fill="#5B5EE1" stroke="#0C0D46" stroke-width="1.41515" stroke-miterlimit="10" stroke-linecap="round" stroke-linejoin="round"/>
<path d="M301.991 160.975C304.179 160.9 306.378 161.493 308.227 162.66" stroke="#0C0D46" stroke-width="0.943436" stroke-miterlimit="10" stroke-linecap="round" stroke-linejoin="round"/>
<path d="M153.635 296.371C154.193 296.371 154.645 295.92 154.645 295.364C154.645 294.808 154.193 294.357 153.635 294.357C153.078 294.357 152.626 294.808 152.626 295.364C152.626 295.92 153.078 296.371 153.635 296.371Z" fill="#C0C1F1"/>
<path d="M360.833 234.865C361.39 234.865 361.842 234.415 361.842 233.858C361.842 233.302 361.39 232.852 360.833 232.852C360.275 232.852 359.823 233.302 359.823 233.858C359.823 234.415 360.275 234.865 360.833 234.865Z" fill="#C0C1F1"/>
<path d="M203.788 198.297C204.346 198.297 204.798 197.846 204.798 197.29C204.798 196.734 204.346 196.283 203.788 196.283C203.231 196.283 202.779 196.734 202.779 197.29C202.779 197.846 203.231 198.297 203.788 198.297Z" fill="#C0C1F1"/>
<path d="M390.654 78.2149C391.212 78.2149 391.664 77.7641 391.664 77.2081C391.664 76.652 391.212 76.2012 390.654 76.2012C390.097 76.2012 389.645 76.652 389.645 77.2081C389.645 77.7641 390.097 78.2149 390.654 78.2149Z" fill="#C0C1F1"/>
<path d="M114.181 136.793C114.738 136.793 115.19 136.342 115.19 135.786C115.19 135.23 114.738 134.779 114.181 134.779C113.623 134.779 113.171 135.23 113.171 135.786C113.171 136.342 113.623 136.793 114.181 136.793Z" fill="#C0C1F1"/>
<path d="M206.629 75.336C207.186 75.336 207.638 74.8852 207.638 74.3291C207.638 73.7731 207.186 73.3223 206.629 73.3223C206.071 73.3223 205.619 73.7731 205.619 74.3291C205.619 74.8852 206.071 75.336 206.629 75.336Z" fill="#C0C1F1"/>
<path d="M341.568 56.1681C342.126 56.1681 342.578 55.7173 342.578 55.1612C342.578 54.6051 342.126 54.1543 341.568 54.1543C341.011 54.1543 340.559 54.6051 340.559 55.1612C340.559 55.7173 341.011 56.1681 341.568 56.1681Z" fill="#C0C1F1"/>
<path d="M384.928 208.865C385.486 208.865 385.938 208.415 385.938 207.858C385.938 207.302 385.486 206.852 384.928 206.852C384.371 206.852 383.919 207.302 383.919 207.858C383.919 208.415 384.371 208.865 384.928 208.865Z" fill="#C0C1F1"/>
<path d="M427.317 253.178C427.875 253.178 428.327 252.727 428.327 252.171C428.327 251.615 427.875 251.164 427.317 251.164C426.76 251.164 426.308 251.615 426.308 252.171C426.308 252.727 426.76 253.178 427.317 253.178Z" fill="#C0C1F1"/>
<path d="M197.213 259.754L162.39 235.937L172.872 239.494L156.89 219.959L175.306 234.065L172.523 227.129L184.08 237.782L180.91 230.912L199.099 257.054L197.213 259.754Z" fill="#7B7D9B"/>
<path d="M196.901 260.206C198.355 260.206 199.533 259.03 199.533 257.58C199.533 256.13 198.355 254.955 196.901 254.955C195.448 254.955 194.269 256.13 194.269 257.58C194.269 259.03 195.448 260.206 196.901 260.206Z" fill="#C0C1F1" stroke="#0C0D46" stroke-width="0.943436" stroke-miterlimit="10" stroke-linecap="round" stroke-linejoin="round"/>
<g opacity="0.7">
<path opacity="0.7" d="M424.949 331.338L456.875 306.984L447.082 310.88L461.319 291.523L444.497 305.846L446.809 299.108L436.355 309.807L439.016 303.117L423.015 328.863L424.949 331.338Z" fill="#7B7D9B"/>
<path opacity="0.7" d="M425.138 331.76C426.524 331.76 427.648 330.639 427.648 329.257C427.648 327.875 426.524 326.754 425.138 326.754C423.752 326.754 422.628 327.875 422.628 329.257C422.628 330.639 423.752 331.76 425.138 331.76Z" fill="#C0C1F1" stroke="#0C0D46" stroke-width="0.943436" stroke-miterlimit="10" stroke-linecap="round" stroke-linejoin="round"/>
</g>
</svg>