<?xml version="1.0" encoding="utf-8"?>
<!-- Generator: Adobe Illustrator 25.0.0, SVG Export Plug-In . SVG Version: 6.00 Build 0)  -->
<svg version="1.1" id="Layer_1" xmlns="http://www.w3.org/2000/svg" xmlns:xlink="http://www.w3.org/1999/xlink" x="0px" y="0px"
	 viewBox="0 0 1920 1920" style="enable-background:new 0 0 1920 1920;" xml:space="preserve">
<style type="text/css">
	.st0{fill:#272ABF;}
</style>
<path class="st0" d="M1303,1220.3l-301.8-615.7c-17-34.6-66.2-34.6-83.2,0l-301.8,615.7l-273.8,553.5c-15.2,30.8,7.2,66.9,41.5,66.9
	h0c17.6,0,33.7-10,41.5-25.8L697,1264.5l221-450.2c17-34.5,66.2-34.5,83.2,0l221,450.2l271.3,550.3c7.8,15.8,23.9,25.8,41.6,25.8h0
	c34.3,0,56.8-36.1,41.5-66.9L1303,1220.3z M1793.6,1840.6c34.5,0,56.9-36.3,41.4-67.1l-402.1-802.8l-431.8-865.2
	c-17.1-34.2-65.8-34.2-82.9,0L486.3,970.8L84.2,1773.5c-15.4,30.8,7,67.1,41.4,67.1h0c17.5,0,33.6-9.9,41.4-25.6l400.7-799.6
	l350.4-701.9c17.1-34.2,65.8-34.2,82.9,0l350.4,702.1L1752,1815c7.9,15.7,23.9,25.6,41.4,25.6H1793.6z M918,1129.4l-317.2,644.4
	c-15.2,30.8,7.3,66.8,41.6,66.8h0.1c17.7,0,33.8-10,41.6-25.9L918,1339.3c17-34.5,66.2-34.5,83.1,0l233.8,475.4
	c7.8,15.8,23.9,25.9,41.6,25.9h0.2c34.3,0,56.7-36,41.6-66.8l-317.1-644.4C984.2,1094.9,935,1094.9,918,1129.4z M1303,1220.3
	l-301.8-615.7c-17-34.6-66.2-34.6-83.2,0l-301.8,615.7l-273.8,553.5c-15.2,30.8,7.2,66.9,41.5,66.9h0c17.6,0,33.7-10,41.5-25.8
	L697,1264.5l221-450.2c17-34.5,66.2-34.5,83.2,0l221,450.2l271.3,550.3c7.8,15.8,23.9,25.8,41.6,25.8h0c34.3,0,56.8-36.1,41.5-66.9
	L1303,1220.3z"/>
</svg>  