<?xml version="1.0" encoding="utf-8"?>
<!-- Generator: Adobe Illustrator 25.0.0, SVG Export Plug-In . SVG Version: 6.00 Build 0)  -->
<svg version="1.1" id="Layer_1" xmlns="http://www.w3.org/2000/svg" xmlns:xlink="http://www.w3.org/1999/xlink" x="0px" y="0px"
	 viewBox="0 0 3000 1000" style="enable-background:new 0 0 3000 1000;" xml:space="preserve">
<style type="text/css">
	.st0{fill:#FFFFFF;}
	.st1{enable-background:new    ;}
</style>
<path class="st0" d="M485.9,616.9L375,390.6c-6.2-12.7-24.4-12.7-30.6,0L233.4,617L132.8,820.4c-5.6,11.3,2.6,24.6,15.3,24.6l0,0
	c6.5,0,12.4-3.7,15.3-9.5l99.8-202.3l81.3-165.5c6.2-12.7,24.3-12.7,30.6,0l81.3,165.5L556,835.5c2.9,5.8,8.8,9.5,15.3,9.5l0,0
	c12.6,0,20.9-13.3,15.3-24.6L485.9,616.9z M666.3,845c12.7,0,20.9-13.3,15.2-24.7L533.7,525.2l-158.8-318
	c-6.3-12.6-24.2-12.6-30.5,0l-158.7,318L37.8,820.4c-5.7,11.3,2.6,24.7,15.2,24.7l0,0c6.4,0,12.3-3.6,15.2-9.4l147.3-294
	l128.8-258.1c6.3-12.6,24.2-12.6,30.5,0l128.8,258.1L651,835.6C653.9,841.4,659.8,845,666.3,845L666.3,845z M344.4,583.5l-116.6,237
	c-5.6,11.3,2.7,24.6,15.3,24.6h0.1c6.5,0,12.4-3.7,15.3-9.5l86-174.8c6.2-12.7,24.3-12.7,30.6,0L461,835.6c2.9,5.8,8.8,9.5,15.3,9.5
	h0.1c12.6,0,20.9-13.2,15.3-24.6L375,583.5C368.7,570.9,350.6,570.9,344.4,583.5z M485.9,616.9L375,390.6
	c-6.2-12.7-24.4-12.7-30.6,0L233.4,617L132.8,820.4c-5.6,11.3,2.6,24.6,15.3,24.6l0,0c6.5,0,12.4-3.7,15.3-9.5l99.8-202.3
	l81.3-165.5c6.2-12.7,24.3-12.7,30.6,0l81.3,165.5L556,835.5c2.9,5.8,8.8,9.5,15.3,9.5l0,0c12.6,0,20.9-13.3,15.3-24.6L485.9,616.9z
	"/>
<g class="st1">
	<path class="st0" d="M763.2,724.1c-2.9,0-5.4-1.1-7.5-3.2c-2.1-2.1-3.2-4.6-3.2-7.5c0-1.8,0.4-3.8,1.1-5.9l135.7-348.1
		c1.4-3.6,3.3-6.3,5.6-8c2.3-1.8,5.6-2.7,9.9-2.7H923c4.3,0,7.6,0.9,9.9,2.7c2.3,1.8,4.2,4.5,5.6,8l135.7,348.1
		c0.7,2.1,1.1,4.1,1.1,5.9c0,2.9-1.1,5.4-3.2,7.5s-4.7,3.2-7.5,3.2h-10.7c-3.6,0-6.3-1-8-2.9c-1.8-2-3-3.7-3.8-5.1l-33.3-85.8H819
		l-33.3,85.8c-0.4,1.4-1.5,3.1-3.5,5.1s-4.7,2.9-8.3,2.9H763.2z M831.8,598.1H996l-82.1-211.3L831.8,598.1z"/>
	<path class="st0" d="M1150.4,724.1c-3.6,0-6.4-1.1-8.6-3.2c-2.1-2.1-3.2-5-3.2-8.6V360.5c0-3.6,1.1-6.4,3.2-8.6
		c2.1-2.1,5-3.2,8.6-3.2h10.2c3.6,0,6.4,1.1,8.6,3.2s3.2,5,3.2,8.6v351.8c0,3.6-1.1,6.4-3.2,8.6s-5,3.2-8.6,3.2H1150.4z"/>
	<path class="st0" d="M1285,724.1c-3.6,0-6.4-1.1-8.6-3.2c-2.1-2.1-3.2-5-3.2-8.6V361.1c0-3.9,1.1-7,3.2-9.1s5-3.2,8.6-3.2h125
		c37.5,0,67.5,8.9,89.8,26.8s33.5,45,33.5,81.5c0,28.6-7.2,51.5-21.5,68.6c-14.3,17.2-34.1,28.8-59.5,34.9l86.3,146.9
		c1.1,2.1,1.6,4.1,1.6,5.9c0,2.9-1.1,5.4-3.2,7.5s-4.7,3.2-7.5,3.2h-6.4c-5.7,0-10-1.5-12.9-4.6c-2.9-3-5.4-6.3-7.5-9.9l-85.3-144.3
		H1307v146.9c0,3.6-1.1,6.4-3.2,8.6s-5.2,3.2-9.1,3.2L1285,724.1L1285,724.1z M1307,533.2h100.3c31.1,0,54.3-6.3,69.5-19
		s22.8-31.7,22.8-57.1s-7.6-44.4-22.8-57.1c-15.2-12.7-38.3-19-69.5-19H1307V533.2z"/>
	<path class="st0" d="M1628.8,724.1c-3.6,0-6.5-1.1-8.8-3.2c-2.3-2.1-3.5-5-3.5-8.6V361.1c0-3.9,1.2-7,3.5-9.1s5.3-3.2,8.8-3.2h13.4
		c3.6,0,6.3,0.9,8,2.7c1.8,1.8,2.9,3.2,3.2,4.3l121.7,237l122.3-237c0.7-1.1,1.9-2.5,3.5-4.3s4.2-2.7,7.8-2.7h12.9
		c3.9,0,7,1.1,9.1,3.2s3.2,5.2,3.2,9.1v351.3c0,3.6-1.1,6.4-3.2,8.6c-2.1,2.1-5.2,3.2-9.1,3.2h-9.7c-3.6,0-6.4-1.1-8.6-3.2
		c-2.1-2.1-3.2-5-3.2-8.6V421.7l-102.4,201.7c-1.4,3.6-3.5,6.3-6.2,8c-2.7,1.8-6.2,2.7-10.5,2.7h-11.8c-4.3,0-7.7-0.9-10.2-2.7
		s-4.7-4.5-6.4-8l-102.4-201.7v290.7c0,3.6-1.1,6.4-3.2,8.6c-2.1,2.1-5,3.2-8.6,3.2h-9.6V724.1z"/>
	<path class="st0" d="M2008,724.1c-2.9,0-5.4-1.1-7.5-3.2c-2.1-2.1-3.2-4.6-3.2-7.5c0-1.8,0.4-3.8,1.1-5.9l135.6-348
		c1.4-3.6,3.3-6.3,5.6-8c2.3-1.8,5.6-2.7,9.9-2.7h18.2c4.3,0,7.6,0.9,9.9,2.7c2.3,1.8,4.2,4.5,5.6,8l135.8,348
		c0.7,2.1,1.1,4.1,1.1,5.9c0,2.9-1.1,5.4-3.2,7.5s-4.7,3.2-7.5,3.2h-10.7c-3.6,0-6.3-1-8-2.9c-1.8-2-3-3.7-3.8-5.1l-33.3-85.8
		h-189.9l-33.3,85.8c-0.4,1.4-1.5,3.1-3.5,5.1s-4.7,2.9-8.3,2.9L2008,724.1L2008,724.1z M2076.6,598.1h164.1l-82.1-211.3
		L2076.6,598.1z"/>
	<path class="st0" d="M2490.6,729.5c-29,0-53.5-4.7-73.7-13.9c-20.2-9.3-35.7-21.3-46.4-35.9c-10.7-14.7-16.4-30.2-17.2-46.7
		c0-2.9,1.1-5.4,3.2-7.5c2.1-2.1,4.8-3.2,8-3.2h10.7c3.6,0,6.3,1.1,8.3,3.2c2,2.1,3.1,4.7,3.5,7.5c1.4,10,5.9,19.9,13.4,29.8
		c7.5,9.8,18.6,18.1,33.3,24.7c14.7,6.6,33.6,9.9,56.8,9.9c35,0,60.6-6.3,76.7-19c16.1-12.7,24.1-29.8,24.1-51.2
		c0-14.3-4.2-25.8-12.6-34.6c-8.4-8.8-21.2-16.6-38.3-23.6c-17.2-7-39.2-14.7-66-23.3c-25.4-8.2-46.3-16.7-62.7-25.5
		s-28.5-19.4-36.2-31.9S2364,459.7,2364,440c0-18.2,4.8-34.6,14.5-49.1s23.7-26,42.1-34.6c18.4-8.6,40.8-12.9,67.3-12.9
		c21.1,0,39.5,2.9,55.2,8.6s28.8,13.3,39.2,22.8s18.2,19.7,23.6,30.6c5.4,10.9,8.2,21.5,8.6,31.9c0,2.5-0.9,4.9-2.7,7.2
		c-1.8,2.3-4.7,3.5-8.6,3.5h-10.7c-1.8,0-4-0.7-6.7-2.1s-4.4-4.3-5.1-8.6c-2.1-17.9-11.5-32.6-28.2-44.2
		c-16.6-11.6-38.2-17.4-64.6-17.4c-26.5,0-48.1,5.2-64.9,15.6c-16.8,10.4-25.2,26.6-25.2,48.8c0,14.3,3.8,26,11.3,35.1
		s19.3,17.2,35.4,24.1c16.1,7,36.8,14.6,62.2,22.8c26.8,8.6,49,17.2,66.5,25.7c17.5,8.6,30.6,19,39.2,31.4s12.9,28.3,12.9,48
		c0,21.8-5.5,40.3-16.4,55.5s-26.4,26.8-46.4,34.9C2542.5,725.5,2518.5,729.5,2490.6,729.5z"/>
	<path class="st0" d="M2714.3,724.1c-3.6,0-6.4-1.1-8.6-3.2s-3.2-5-3.2-8.6V361.1c0-3.9,1.1-7,3.2-9.1s5-3.2,8.6-3.2h9.7
		c3.9,0,7,1.1,9.1,3.2s3.2,5.2,3.2,9.1v139.4l162.5-143.7c1.4-1.1,3.8-2.7,7-4.8c3.2-2.1,7.7-3.2,13.4-3.2h8.6
		c2.9,0,5.4,1.1,7.5,3.2s3.2,4.7,3.2,7.5c0,2.9-0.9,5.2-2.7,7l-181.8,162l193,177.4c2.1,2.1,3.2,4.7,3.2,7.5c0,2.9-1.1,5.4-3.2,7.5
		c-2.1,2.1-4.7,3.2-7.5,3.2h-9.1c-5.7,0-10.2-1.1-13.4-3.2s-5.5-3.8-7-4.8l-173.8-158.7v155c0,3.6-1.1,6.4-3.2,8.6s-5.2,3.2-9.1,3.2
		h-9.6V724.1z"/>
</g>
</svg>